<svg width="20" height="26" viewBox="0 0 20 26" fill="none" xmlns="http://www.w3.org/2000/svg">
<path d="M10 1.5C14.6756 1.51543 18.4999 5.32767 18.5 10.1357C18.5 11.4064 18.4904 12.7501 17.9199 14.3682C17.349 15.9874 16.2014 17.919 13.8652 20.3047L13.8643 20.3057L10 24.2822L6.13574 20.3057L6.13477 20.3037C3.79877 17.9181 2.65104 15.9874 2.08008 14.3682C1.50959 12.7501 1.5 11.4064 1.5 10.1357C1.50002 5.32762 5.32436 1.51543 10 1.5Z" fill="#5A443E" stroke="#A9827C"/>
<path d="M12.6251 6.875C12.9358 6.875 13.1876 6.62316 13.1876 6.3125C13.1876 6.00184 12.9358 5.75 12.6251 5.75C12.3144 5.75 12.0626 6.00184 12.0626 6.3125C12.0626 6.62316 12.3144 6.875 12.6251 6.875Z" fill="#D6D6D6"/>
<path d="M14.3621 6.64343C14.0229 7.00321 13.6135 7.4375 12.625 7.4375C11.5 7.4375 10.3791 7.10316 9.62496 6.5C10.0801 7.71377 11.125 8.75 12.625 8.75C14.0865 8.75 14.875 8 15.25 7.625L14.5 6.5C14.4545 6.54545 14.4089 6.5938 14.3621 6.64343Z" fill="#D6D6D6"/>
<path d="M6.325 9.42501C7.1125 8.63751 7.6375 8.37501 8.1625 8.37501C8.93401 8.37501 9.2125 8.90496 9.2125 9.42501C9.2125 9.94505 8.95 10.2125 8.6875 10.475C8.13422 10.9156 7.6375 11 6.82466 10.975L7.375 12.05C8.43586 12.05 9.2125 12.5888 9.2125 13.3625C9.2125 14.1363 8.74228 14.675 7.9 14.675C6.04812 14.675 4.96061 13.058 4.75 11.4127C4.7499 12.1966 4.74973 13.3931 5.13063 14.3602C5.32947 14.8651 5.64206 15.3472 6.13587 15.7009C6.63327 16.0571 7.07445 16.25 7.9 16.25C9.00087 16.25 9.63846 15.8387 10.0777 15.2405C10.4827 14.6891 10.5925 14.0102 10.4878 13.3763C10.3795 12.721 9.91418 12.2168 9.25658 11.7449C10.9707 11.6969 11.4685 11.3236 11.872 11.021C12.16 10.805 12.4 10.625 13 10.625C13.9527 10.625 14.5 11 14.5 12.5C14.5 13.25 13.75 14 13 14C12.25 14 11.5 13.625 11.125 12.5C11.125 14 11.875 15.5 13 15.5C14.5 15.5 15.25 14.375 15.25 12.5C15.25 10.25 14.125 9.5 13 9.5C11.9741 9.5 11.5847 9.92394 11.1762 10.3687C10.758 10.8239 10.3199 11.3009 9.15858 11.3672C9.8499 10.8429 10.2625 10.146 10.2625 9.425C10.2625 8.34607 9.6568 7.63892 8.60283 7.38162C7.71843 7.16571 6.325 7.32501 5.5375 8.11251L6.325 9.42501Z" fill="#D6D6D6"/>
</svg>
