<svg width="20" height="26" viewBox="0 0 20 26" fill="none" xmlns="http://www.w3.org/2000/svg">
<path d="M10 1.5C14.6756 1.51543 18.4999 5.32767 18.5 10.1357C18.5 11.4064 18.4904 12.7501 17.9199 14.3682C17.349 15.9874 16.2014 17.919 13.8652 20.3047L13.8643 20.3057L10 24.2822L6.13574 20.3057L6.13477 20.3037C3.79877 17.9181 2.65104 15.9874 2.08008 14.3682C1.50959 12.7501 1.5 11.4064 1.5 10.1357C1.50002 5.32762 5.32436 1.51543 10 1.5Z" fill="#195657" stroke="#499D9E"/>
<path d="M4.75 16.25V15.5L6.25 14.9375L8.125 15.5L10 14.375L11.875 15.5L13.375 14.9375L15.25 15.5V16.25H4.75Z" fill="#D6D6D6"/>
<path d="M13.225 9.5L12.7 6.8C12.7 6.2 12.1 5.75 11.5 5.75L10 5.75V6.8H11.5C11.575 6.8 11.65 6.875 11.725 6.95L11.875 8H8.35L8.2 7.55H8.5V6.5H5.5V7.55H7.075L7.675 9.5L7.75 9.65C7.525 9.575 7.3 9.5 7 9.5C5.725 9.5 4.75 10.475 4.75 11.75C4.75 13.025 5.725 14 7 14C7.975 14 8.8 13.325 9.1 12.425C9.25 12.5 9.325 12.575 9.475 12.575H9.55C9.625 12.575 9.775 12.575 9.85 12.575C10.225 12.575 10.525 12.425 10.825 12.275C11.05 13.25 11.95 14 13 14C14.275 14 15.25 13.025 15.25 11.75C15.25 10.625 14.35 9.65 13.225 9.5ZM7 12.95C6.325 12.95 5.8 12.425 5.8 11.75C5.8 11.075 6.325 10.55 7 10.55C7.675 10.55 8.2 11.075 8.2 11.75C8.2 12.425 7.675 12.95 7 12.95ZM9.7 11.525C9.55 11.525 9.4 11.375 9.325 11.15L8.725 9.05H12.1L10.3 11.3C10.15 11.525 9.925 11.6 9.7 11.525ZM13 12.95C12.325 12.95 11.8 12.425 11.8 11.75C11.8 11.075 12.325 10.55 13 10.55C13.675 10.55 14.2 11.075 14.2 11.75C14.2 12.425 13.675 12.95 13 12.95Z" fill="#D6D6D6"/>
</svg>
