<svg width="20" height="26" viewBox="0 0 20 26" fill="none" xmlns="http://www.w3.org/2000/svg">
<path d="M10 1.5C14.6756 1.51543 18.4999 5.32767 18.5 10.1357C18.5 11.4064 18.4904 12.7501 17.9199 14.3682C17.349 15.9874 16.2014 17.919 13.8652 20.3047L13.8643 20.3057L10 24.2822L6.13574 20.3057L6.13477 20.3037C3.79877 17.9181 2.65104 15.9874 2.08008 14.3682C1.50959 12.7501 1.5 11.4064 1.5 10.1357C1.50002 5.32762 5.32436 1.51543 10 1.5Z" fill="#4C3D77" stroke="#927DC4"/>
<path d="M14.335 15L10.5 8.22L11.755 6H10.755L10 7.335L9.25 6H8.25L9.5 8.22L5.675 15H5V16H15V15H14.335ZM10 11.75L11.855 15H8.17L10 11.75Z" fill="#D6D6D6"/>
</svg>
