<svg width="20" height="26" viewBox="0 0 20 26" fill="none" xmlns="http://www.w3.org/2000/svg">
<path d="M10 1.5C14.6756 1.51543 18.4999 5.32767 18.5 10.1357C18.5 11.4064 18.4904 12.7501 17.9199 14.3682C17.349 15.9874 16.2014 17.919 13.8652 20.3047L13.8643 20.3057L10 24.2822L6.13574 20.3057L6.13477 20.3037C3.79877 17.9181 2.65104 15.9874 2.08008 14.3682C1.50959 12.7501 1.5 11.4064 1.5 10.1357C1.50002 5.32762 5.32436 1.51543 10 1.5Z" fill="#865627" stroke="#D69962"/>
<path d="M7.185 14H11.565C11.8185 14.0006 12.0628 13.9049 12.2485 13.7323C12.4341 13.5596 12.5473 13.3229 12.565 13.07L12.715 11H12.92C13.3907 11.0088 13.8502 10.8556 14.2215 10.5662C14.5929 10.2768 14.8535 9.86861 14.96 9.41C15.021 9.11868 15.0162 8.81741 14.946 8.52817C14.8758 8.23893 14.7419 7.969 14.5541 7.73809C14.3663 7.50717 14.1293 7.32108 13.8605 7.19339C13.5916 7.0657 13.2976 6.99963 13 7H5.75L6.185 13.065C6.20153 13.3188 6.31414 13.5568 6.49992 13.7305C6.68569 13.9042 6.93067 14.0005 7.185 14ZM13 8C13.1596 7.99932 13.317 8.03684 13.4592 8.10944C13.6013 8.18204 13.724 8.2876 13.817 8.4173C13.91 8.54701 13.9706 8.69709 13.9937 8.855C14.0169 9.01291 14.0019 9.17407 13.95 9.325C13.8755 9.52837 13.7387 9.70306 13.5592 9.82424C13.3796 9.94542 13.1665 10.0069 12.95 10H12.79L12.935 8H13ZM5 15H14.5L14.275 15.445C14.1922 15.6116 14.0646 15.7518 13.9065 15.8499C13.7484 15.9479 13.566 15.9999 13.38 16H6.12C5.93396 15.9999 5.75163 15.9479 5.59352 15.8499C5.43541 15.7518 5.30779 15.6116 5.225 15.445L5 15Z" fill="#D6D6D6"/>
</svg>
