<svg width="20" height="26" viewBox="0 0 20 26" fill="none" xmlns="http://www.w3.org/2000/svg">
<path d="M10 1.5C14.6756 1.51543 18.4999 5.32767 18.5 10.1357C18.5 11.4064 18.4904 12.7501 17.9199 14.3682C17.349 15.9874 16.2014 17.919 13.8652 20.3047L13.8643 20.3057L10 24.2822L6.13574 20.3057L6.13477 20.3037C3.79877 17.9181 2.65104 15.9874 2.08008 14.3682C1.50959 12.7501 1.5 11.4064 1.5 10.1357C1.50002 5.32762 5.32436 1.51543 10 1.5Z" fill="#4E596F" stroke="#717C95"/>
<path d="M5.5 6.50011V15.5001H7V8.00024L9.81247 8.00013C10.2267 8.00012 10.5625 8.33591 10.5625 8.75013V12.5001H11.875V8C11.875 7.17156 11.2034 6.49998 10.375 6.5L5.5 6.50011Z" fill="#D6D6D6"/>
<path d="M14.5 6.50011L13 6.5001V13.2501C13 13.6643 12.6642 14.0001 12.25 14.0001L9.4375 14.0001L9.46529 9.50011L8.125 9.5001L8.12498 15.5001L13 15.5001C13.8284 15.5001 14.5 14.8285 14.5 14.0001V6.50011Z" fill="#D6D6D6"/>
</svg>
