<svg width="20" height="26" viewBox="0 0 20 26" fill="none" xmlns="http://www.w3.org/2000/svg">
<path d="M10 1.5C14.6756 1.51543 18.4999 5.32767 18.5 10.1357C18.5 11.4064 18.4904 12.7501 17.9199 14.3682C17.349 15.9874 16.2014 17.919 13.8652 20.3047L13.8643 20.3057L10 24.2822L6.13574 20.3057L6.13477 20.3037C3.79877 17.9181 2.65104 15.9874 2.08008 14.3682C1.50959 12.7501 1.5 11.4064 1.5 10.1357C1.50002 5.32762 5.32436 1.51543 10 1.5Z" fill="#4E596F" stroke="#717C95"/>
<path d="M13.6099 9.5C14.7447 9.5 15.25 10.3759 15.25 11.758C15.25 13.0759 14.5873 14.4232 13.5023 14.4232C13.0715 14.4232 12.7859 14.2973 12.5125 14V16.1134L11.125 16.25V9.63661H12.3625L12.5125 10.1107C12.877 9.66875 13.1709 9.5 13.6099 9.5ZM13.0964 13.4911C13.5851 13.4911 13.8916 12.875 13.8916 11.7741C13.8916 10.7134 13.6265 10.4321 13.1875 10.4321C12.8893 10.4321 12.703 10.617 12.5125 10.9304V13.1134C12.6948 13.3705 12.823 13.4911 13.0964 13.4911Z" fill="#D6D6D6"/>
<path d="M8.9375 14.75L7.40236 11.882H6.71047V14.75H4.9375V7.25H7.39155C9.42399 7.25 10.4726 7.97511 10.4726 9.53355C10.4726 10.5184 10.0078 11.1136 9.0348 11.5574L10.9375 14.75H8.9375ZM6.71047 8.49459V10.6591H7.45642C8.2348 10.6591 8.64561 10.3236 8.64561 9.53355C8.64561 8.80844 8.22399 8.49459 7.34831 8.49459H6.71047Z" fill="#D6D6D6"/>
</svg>
