<svg width="20" height="26" viewBox="0 0 20 26" fill="none" xmlns="http://www.w3.org/2000/svg">
<path d="M10 1.5C14.6756 1.51543 18.4999 5.32767 18.5 10.1357C18.5 11.4064 18.4904 12.7501 17.9199 14.3682C17.349 15.9874 16.2014 17.919 13.8652 20.3047L13.8643 20.3057L10 24.2822L6.13574 20.3057L6.13477 20.3037C3.79877 17.9181 2.65104 15.9874 2.08008 14.3682C1.50959 12.7501 1.5 11.4064 1.5 10.1357C1.50002 5.32762 5.32436 1.51543 10 1.5Z" fill="#4E596F" stroke="#717C95"/>
<path fill-rule="evenodd" clip-rule="evenodd" d="M9.25002 5.75H10.825V7.32722C12.1617 7.51576 12.9423 8.06666 12.9423 9.16558C12.9423 10.118 12.2352 10.6158 11.5168 10.7781C12.3811 10.9405 13.2679 11.3517 13.2679 12.5639C13.2679 13.9831 12.2782 14.5524 10.825 14.705V16.25H9.25002V14.75H7.375V7.25H9.25002V5.75ZM9.75459 8.50541H9.21582V10.2478H9.90051C10.6638 10.2478 11.0679 9.96645 11.0679 9.33874C11.0679 8.71104 10.6413 8.50541 9.75459 8.50541ZM9.88928 13.4621C10.7536 13.4621 11.3709 13.289 11.3709 12.4664C11.3709 11.7089 10.8209 11.4275 10.024 11.4275H9.21582V13.4621H9.88928Z" fill="#D6D6D6"/>
</svg>
