<svg width="20" height="26" viewBox="0 0 20 26" fill="none" xmlns="http://www.w3.org/2000/svg">
<path d="M10 1.5C14.6756 1.51543 18.4999 5.32767 18.5 10.1357C18.5 11.4064 18.4904 12.7501 17.9199 14.3682C17.349 15.9874 16.2014 17.919 13.8652 20.3047L13.8643 20.3057L10 24.2822L6.13574 20.3057L6.13477 20.3037C3.79877 17.9181 2.65104 15.9874 2.08008 14.3682C1.50959 12.7501 1.5 11.4064 1.5 10.1357C1.50002 5.32762 5.32436 1.51543 10 1.5Z" fill="#4E596F" stroke="#717C95"/>
<path d="M13.1376 9.3125C13.8941 9.3125 14.5721 9.55813 15.0535 9.95115L14.4836 10.8256C14.0808 10.5701 13.6485 10.4228 13.1965 10.4228C12.774 10.4228 12.5677 10.58 12.5677 10.8158C12.5677 11.0909 12.7052 11.2088 13.6386 11.4839C14.6703 11.7787 15.25 12.211 15.25 13.1444C15.25 14.2252 14.2282 14.8638 12.9312 14.8638C12.0273 14.8638 11.2609 14.5494 10.75 14.0876L11.5065 13.2426C11.8996 13.5472 12.381 13.7535 12.8919 13.7535C13.3635 13.7535 13.6485 13.5767 13.6485 13.2623C13.6485 12.9086 13.4913 12.8005 12.548 12.5352C11.5164 12.2404 11.0055 11.7099 11.0055 10.9042C11.0055 10.0101 11.821 9.3125 13.1376 9.3125Z" fill="#D6D6D6"/>
<path d="M9.12933 14.75L7.59253 11.882H6.89989V14.75H5.125V7.25H7.58171C9.61634 7.25 10.6661 7.97511 10.6661 9.53355C10.6661 10.5184 10.2008 11.1136 9.22673 11.5574L11.1315 14.75H9.12933ZM6.89989 8.49459V10.6591H7.64664C8.42587 10.6591 8.83712 10.3236 8.83712 9.53355C8.83712 8.80844 8.41504 8.49459 7.53842 8.49459H6.89989Z" fill="#D6D6D6"/>
</svg>
