<svg width="20" height="26" viewBox="0 0 20 26" fill="none" xmlns="http://www.w3.org/2000/svg">
<path d="M10 1.5C14.6756 1.51543 18.4999 5.32767 18.5 10.1357C18.5 11.4064 18.4904 12.7501 17.9199 14.3682C17.349 15.9874 16.2014 17.919 13.8652 20.3047L13.8643 20.3057L10 24.2822L6.13574 20.3057L6.13477 20.3037C3.79877 17.9181 2.65104 15.9874 2.08008 14.3682C1.50959 12.7501 1.5 11.4064 1.5 10.1357C1.50002 5.32762 5.32436 1.51543 10 1.5Z" fill="#3E495A" stroke="#8D9FB5"/>
<path d="M12.9595 5.81445L8.90612 7.3242L10.7906 12.4715L14.844 10.9617L12.9595 5.81445Z" fill="#D6D6D6"/>
<path d="M6.21289 7.05514L5.4626 6.49623L4.7876 7.39014L5.53789 7.94905C5.93453 8.24452 6.23102 8.6531 6.38781 9.12027L7.5264 12.5129C6.98228 12.8817 6.62509 13.5025 6.62509 14.2062C6.62509 15.3376 7.5485 16.2547 8.68759 16.2547C9.68061 16.2547 10.5097 15.5577 10.706 14.6294L15.2197 13.0182L14.8392 11.9666L10.6147 13.4746C10.3182 12.7045 9.56717 12.1577 8.68759 12.1577C8.65613 12.1577 8.62484 12.1584 8.59372 12.1597L7.45508 8.76692C7.22593 8.08413 6.7926 7.48698 6.21289 7.05514Z" fill="#D6D6D6"/>
</svg>
