<svg width="20" height="26" viewBox="0 0 20 26" fill="none" xmlns="http://www.w3.org/2000/svg">
<path d="M10 1.5C14.6756 1.51543 18.4999 5.32767 18.5 10.1357C18.5 11.4064 18.4904 12.7501 17.9199 14.3682C17.349 15.9874 16.2014 17.919 13.8652 20.3047L13.8643 20.3057L10 24.2822L6.13574 20.3057L6.13477 20.3037C3.79877 17.9181 2.65104 15.9874 2.08008 14.3682C1.50959 12.7501 1.5 11.4064 1.5 10.1357C1.50002 5.32762 5.32436 1.51543 10 1.5Z" fill="#5A443E" stroke="#A9827C"/>
<path d="M10 12.11C11.0241 12.1575 12.0466 11.987 13 11.61V11.755C13 14.1 11.66 16 10 16C8.34 16 7 14.1 7 11.755V11.61C7.95324 11.9875 8.97586 12.1579 10 12.11ZM15 8.855L10 6L5 8.855L7 10.25V10.75C7.95902 11.1062 8.97728 11.276 10 11.25C11.0227 11.276 12.041 11.1062 13 10.75V10.285L13.75 9.75V13.56H14.75V9.06L15 8.855Z" fill="#D6D6D6"/>
</svg>
