<svg width="20" height="26" viewBox="0 0 20 26" fill="none" xmlns="http://www.w3.org/2000/svg">
<path d="M10 1.5C14.6756 1.51543 18.4999 5.32767 18.5 10.1357C18.5 11.4064 18.4904 12.7501 17.9199 14.3682C17.349 15.9874 16.2014 17.919 13.8652 20.3047L13.8643 20.3057L10 24.2822L6.13574 20.3057L6.13477 20.3037C3.79877 17.9181 2.65104 15.9874 2.08008 14.3682C1.50959 12.7501 1.5 11.4064 1.5 10.1357C1.50002 5.32762 5.32436 1.51543 10 1.5Z" fill="#4E596F" stroke="#717C95"/>
<path d="M5 10V15.5H8.5V14H11.5V15.5H15V10H5ZM7.25 13H6V11H7.25V13ZM9.5 13H8.25V11H9.5V13ZM11.75 13H10.5V11H11.75V13ZM14 13H12.75V11H14V13ZM5.105 9.00003C5.56655 8.09912 6.26777 7.34306 7.13145 6.81512C7.99512 6.28717 8.98774 6.00781 10 6.00781C11.0123 6.00781 12.0049 6.28717 12.8686 6.81512C13.7322 7.34306 14.4335 8.09912 14.895 9.00003H13.74C13.3295 8.3812 12.7723 7.87358 12.118 7.52242C11.4636 7.17127 10.7326 6.9875 9.99 6.9875C9.24741 6.9875 8.51636 7.17127 7.86204 7.52242C7.20773 7.87358 6.65048 8.3812 6.24 9.00003H5.105Z" fill="#D6D6D6"/>
</svg>
