<svg width="20" height="26" viewBox="0 0 20 26" fill="none" xmlns="http://www.w3.org/2000/svg">
<path d="M10 1.5C14.6756 1.51543 18.4999 5.32767 18.5 10.1357C18.5 11.4064 18.4904 12.7501 17.9199 14.3682C17.349 15.9874 16.2014 17.919 13.8652 20.3047L13.8643 20.3057L10 24.2822L6.13574 20.3057L6.13477 20.3037C3.79877 17.9181 2.65104 15.9874 2.08008 14.3682C1.50959 12.7501 1.5 11.4064 1.5 10.1357C1.50002 5.32762 5.32436 1.51543 10 1.5Z" fill="#195657" stroke="#499D9E"/>
<path d="M12 12.25C12 11.9533 12.088 11.6633 12.2528 11.4166C12.4176 11.17 12.6519 10.9777 12.926 10.8642C13.2001 10.7506 13.5017 10.7209 13.7926 10.7788C14.0836 10.8367 14.3509 10.9796 14.5607 11.1893C14.7704 11.3991 14.9133 11.6664 14.9712 11.9574C15.0291 12.2483 14.9993 12.5499 14.8858 12.824C14.7723 13.0981 14.58 13.3324 14.3334 13.4972C14.0867 13.662 13.7967 13.75 13.5 13.75C13.1022 13.75 12.7206 13.592 12.4393 13.3107C12.158 13.0294 12 12.6478 12 12.25ZM15 14.5H7.5V10.1L11.5 8L6.5 6V14.5H5V15.5H15V14.5Z" fill="#D6D6D6"/>
</svg>
