<svg width="20" height="26" viewBox="0 0 20 26" fill="none" xmlns="http://www.w3.org/2000/svg">
<path d="M10 1.5C14.6756 1.51543 18.4999 5.32767 18.5 10.1357C18.5 11.4064 18.4904 12.7501 17.9199 14.3682C17.349 15.9874 16.2014 17.919 13.8652 20.3047L13.8643 20.3057L10 24.2822L6.13574 20.3057L6.13477 20.3037C3.79877 17.9181 2.65104 15.9874 2.08008 14.3682C1.50959 12.7501 1.5 11.4064 1.5 10.1357C1.50002 5.32762 5.32436 1.51543 10 1.5Z" fill="#4C3D77" stroke="#927DC4"/>
<path d="M14 12H10.5V10H13C13.2652 10 13.5196 10.1054 13.7071 10.2929C13.8946 10.4804 14 10.7348 14 11V12ZM7.5 12V11C7.5 10.7348 7.60536 10.4804 7.79289 10.2929C7.98043 10.1054 8.23478 10 8.5 10C8.76522 10 9.01957 10.1054 9.20711 10.2929C9.39464 10.4804 9.5 10.7348 9.5 11V12H7.5ZM14.5 13.375C14.4987 13.2759 14.4588 13.1813 14.3887 13.1113C14.3187 13.0412 14.2241 13.0013 14.125 13H6.5V10H5.5V16H6.5V15H13.5V16H14.5V13.375ZM15 9.21L10 7.42L5 9.21V7.78L10 6L15 7.78V9.21Z" fill="#D6D6D6"/>
</svg>
