<svg width="20" height="26" viewBox="0 0 20 26" fill="none" xmlns="http://www.w3.org/2000/svg">
<path d="M10 1.5C14.6756 1.51543 18.4999 5.32767 18.5 10.1357C18.5 11.4064 18.4904 12.7501 17.9199 14.3682C17.349 15.9874 16.2014 17.919 13.8652 20.3047L13.8643 20.3057L10 24.2822L6.13574 20.3057L6.13477 20.3037C3.79877 17.9181 2.65104 15.9874 2.08008 14.3682C1.50959 12.7501 1.5 11.4064 1.5 10.1357C1.50002 5.32762 5.32436 1.51543 10 1.5Z" fill="#4E596F" stroke="#717C95"/>
<path d="M13.5 6H6.5C6.36739 6 6.24021 6.05268 6.14645 6.14645C6.05268 6.24021 6 6.36739 6 6.5V16H14V6.5C14 6.36739 13.9473 6.24021 13.8536 6.14645C13.7598 6.05268 13.6326 6 13.5 6ZM13 12C13 12.5933 12.8241 13.1734 12.4944 13.6667C12.1648 14.1601 11.6962 14.5446 11.148 14.7716C10.5999 14.9987 9.99667 15.0581 9.41473 14.9424C8.83279 14.8266 8.29824 14.5409 7.87868 14.1213C7.45912 13.7018 7.1734 13.1672 7.05764 12.5853C6.94189 12.0033 7.0013 11.4001 7.22836 10.8519C7.45542 10.3038 7.83994 9.83524 8.33329 9.50559C8.82664 9.17595 9.40666 9 10 9H10.05C10.837 9.01312 11.5872 9.33497 12.1391 9.89616C12.6909 10.4574 13.0001 11.2129 13 12ZM11 7H13V8H11V7ZM11.5 12C11.4997 12.2965 11.4116 12.5862 11.2468 12.8327C11.0819 13.0791 10.8478 13.2712 10.5738 13.3846C10.2999 13.498 9.99852 13.5277 9.70773 13.4699C9.41693 13.4122 9.14977 13.2695 8.94 13.06C8.65861 12.779 8.50035 12.3977 8.5 12H11.5Z" fill="#D6D6D6"/>
</svg>
