<svg width="20" height="26" viewBox="0 0 20 26" fill="none" xmlns="http://www.w3.org/2000/svg">
<path d="M10 1.5C14.6756 1.51543 18.4999 5.32767 18.5 10.1357C18.5 11.4064 18.4904 12.7501 17.9199 14.3682C17.349 15.9874 16.2014 17.919 13.8652 20.3047L13.8643 20.3057L10 24.2822L6.13574 20.3057L6.13477 20.3037C3.79877 17.9181 2.65104 15.9874 2.08008 14.3682C1.50959 12.7501 1.5 11.4064 1.5 10.1357C1.50002 5.32762 5.32436 1.51543 10 1.5Z" fill="#545D65" stroke="#9CA8B2"/>
<path d="M8.50009 6.50079V9.50079H5.5001V8.52577H6.77509L4.9751 6.72578L5.65009 6.05078L7.4501 7.85078V6.57577H8.50009V6.50079ZM11.5001 6.50079V9.50079H14.5001V8.52577H13.2251L15.0251 6.72578L14.3501 6.05078L12.5501 7.85078V6.57577H11.5001V6.50079ZM12.4751 15.5008V14.2258L14.2751 16.0258L14.9501 15.3508L13.1501 13.5508H14.4251V12.5758H11.4251V15.5758H12.4751V15.5008ZM8.50009 15.5008V12.5008H5.5001V13.4758H6.77509L4.9751 15.2758L5.65009 15.9508L7.4501 14.1508V15.4258H8.50009V15.5008ZM10.0001 9.87579C9.40009 9.87579 8.87509 10.4008 8.87509 11.0008C8.87509 11.6008 9.40009 12.1258 10.0001 12.1258C10.6001 12.1258 11.1251 11.6008 11.1251 11.0008C11.1251 10.4008 10.6001 9.87579 10.0001 9.87579Z" fill="#D6D6D6"/>
</svg>
