<svg width="20" height="26" viewBox="0 0 20 26" fill="none" xmlns="http://www.w3.org/2000/svg">
<path d="M10 1.5C14.6756 1.51543 18.4999 5.32767 18.5 10.1357C18.5 11.4064 18.4904 12.7501 17.9199 14.3682C17.349 15.9874 16.2014 17.919 13.8652 20.3047L13.8643 20.3057L10 24.2822L6.13574 20.3057L6.13477 20.3037C3.79877 17.9181 2.65104 15.9874 2.08008 14.3682C1.50959 12.7501 1.5 11.4064 1.5 10.1357C1.50002 5.32762 5.32436 1.51543 10 1.5Z" fill="#5A443E" stroke="#A9827C"/>
<path d="M12.625 6.5C12.6524 6.5 12.6797 6.50025 12.7069 6.50073C11.9165 6.02417 10.9903 5.75 10 5.75C7.1005 5.75 4.75 8.1005 4.75 11C4.75 13.8995 7.1005 16.25 10 16.25C10.9903 16.25 11.9165 15.9758 12.7069 15.4993C12.6797 15.4998 12.6524 15.5 12.625 15.5C10.1397 15.5 8.125 13.4853 8.125 11C8.125 8.51472 10.1397 6.5 12.625 6.5Z" fill="#D6D6D6"/>
<path d="M13.4927 10.3505L13.5152 8.375L12.3923 10.0141L10.6008 9.46179L11.6984 11.1092L10.5625 12.7296L12.3936 11.9776L13.4912 13.625L13.4556 11.6464L15.2867 10.8944L13.4927 10.3505Z" fill="#D6D6D6"/>
</svg>
