<svg width="20" height="20" viewBox="0 0 20 20" fill="none" xmlns="http://www.w3.org/2000/svg">
<path d="M3.47707 14.6636L6.95222 4.93322C7.27924 4.01757 8.58838 4.05995 8.85549 4.99484L9.7982 8.29434L8.17722 12.7386C7.9537 13.3514 8.40747 14 9.0598 14C9.45451 14 9.80713 13.7532 9.94238 13.3824L12.0589 7.5796C12.3788 6.70268 13.6192 6.70329 13.9382 7.58051L16.5119 14.6582C16.749 15.3104 16.266 16 15.5721 16L4.41881 16C3.72728 16 3.24449 15.3149 3.47707 14.6636Z" stroke="#232323" stroke-width="4"/>
<path d="M3.47707 14.6636L6.95222 4.93322C7.27924 4.01757 8.58838 4.05995 8.85549 4.99484L9.7982 8.29434L8.17722 12.7386C7.9537 13.3514 8.40747 14 9.0598 14C9.45451 14 9.80713 13.7532 9.94238 13.3824L12.0589 7.5796C12.3788 6.70268 13.6192 6.70329 13.9382 7.58051L16.5119 14.6582C16.749 15.3104 16.266 16 15.5721 16L4.41881 16C3.72728 16 3.24449 15.3149 3.47707 14.6636Z" fill="#7D736F"/>
</svg>
