<svg width="20" height="26" viewBox="0 0 20 26" fill="none" xmlns="http://www.w3.org/2000/svg">
<path d="M10 1.5C14.6756 1.51543 18.4999 5.32767 18.5 10.1357C18.5 11.4064 18.4904 12.7501 17.9199 14.3682C17.349 15.9874 16.2014 17.919 13.8652 20.3047L13.8643 20.3057L10 24.2822L6.13574 20.3057L6.13477 20.3037C3.79877 17.9181 2.65104 15.9874 2.08008 14.3682C1.50959 12.7501 1.5 11.4064 1.5 10.1357C1.50002 5.32762 5.32436 1.51543 10 1.5Z" fill="#195657" stroke="#499D9E"/>
<path d="M9.00001 7H7.00001V6H9.00001V7ZM5.00001 16H8.00001V15H5.00001V16ZM12 16H15V15H12V16ZM13 6H11V7H13V6ZM15 11.255V14.5H12V12H8.00001V14.5H5.00001V11.255C4.99873 10.9232 5.08128 10.5964 5.24001 10.305L6.75001 7.5H9.00001V8H11V7.5H13.24L14.74 10.305C14.9057 10.5945 14.9952 10.9214 15 11.255ZM10.5 9H9.50001V11H10.5V9Z" fill="#D6D6D6"/>
</svg>
