<svg width="20" height="26" viewBox="0 0 20 26" fill="none" xmlns="http://www.w3.org/2000/svg">
<path d="M10 1.5C14.6756 1.51543 18.4999 5.32767 18.5 10.1357C18.5 11.4064 18.4904 12.7501 17.9199 14.3682C17.349 15.9874 16.2014 17.919 13.8652 20.3047L13.8643 20.3057L10 24.2822L6.13574 20.3057L6.13477 20.3037C3.79877 17.9181 2.65104 15.9874 2.08008 14.3682C1.50959 12.7501 1.5 11.4064 1.5 10.1357C1.50002 5.32762 5.32436 1.51543 10 1.5Z" fill="#195657" stroke="#499D9E"/>
<path fill-rule="evenodd" clip-rule="evenodd" d="M12.6846 5.75H10.375V6.875H11.8154L12.1089 8H10.3537L9.42605 8.75H7.4835L6.98613 8H4.75V9.125H6.38229L7.18468 10.335C7.00793 10.2797 6.81994 10.25 6.625 10.25C5.58947 10.25 4.75 11.0895 4.75 12.125C4.75 13.1605 5.58947 14 6.625 14C7.59966 14 8.40063 13.2563 8.49143 12.3054L8.86913 12.875H10.375C10.375 12.875 10.2609 11.5996 10.75 10.625C11.2391 9.6504 12.2467 9.125 12.2467 9.125H12.4024L12.726 10.3654C12.0103 10.6294 11.5 11.3176 11.5 12.125C11.5 13.1605 12.3395 14 13.375 14C14.4105 14 15.25 13.1605 15.25 12.125C15.25 11.2631 14.6684 10.5369 13.8762 10.3177L13.5651 9.125H14.5V8H13.2716L12.6846 5.75ZM6.625 12.875C7.03921 12.875 7.375 12.5392 7.375 12.125C7.375 11.7108 7.03921 11.375 6.625 11.375C6.21079 11.375 5.875 11.7108 5.875 12.125C5.875 12.5392 6.21079 12.875 6.625 12.875ZM13.375 12.875C13.7892 12.875 14.125 12.5392 14.125 12.125C14.125 11.7108 13.7892 11.375 13.375 11.375C12.9608 11.375 12.625 11.7108 12.625 12.125C12.625 12.5392 12.9608 12.875 13.375 12.875Z" fill="#D6D6D6"/>
<path d="M4.75 15.5V16.25H15.25V15.5L13.375 14.9375L11.875 15.5L10 14.375L8.125 15.5L6.25 14.9375L4.75 15.5Z" fill="#D6D6D6"/>
</svg>
