<svg width="20" height="26" viewBox="0 0 20 26" fill="none" xmlns="http://www.w3.org/2000/svg">
<path d="M10 1.5C14.6756 1.51543 18.4999 5.32767 18.5 10.1357C18.5 11.4064 18.4904 12.7501 17.9199 14.3682C17.349 15.9874 16.2014 17.919 13.8652 20.3047L13.8643 20.3057L10 24.2822L6.13574 20.3057L6.13477 20.3037C3.79877 17.9181 2.65104 15.9874 2.08008 14.3682C1.50959 12.7501 1.5 11.4064 1.5 10.1357C1.50002 5.32762 5.32436 1.51543 10 1.5Z" fill="#5A443E" stroke="#A9827C"/>
<path d="M10 8C12.205 8 14 9.345 14 11C14 12.655 12.205 14 10 14C7.795 14 6 12.655 6 11C6 9.345 7.795 8 10 8ZM10 7C7.24 7 5 8.79 5 11C5 13.21 7.24 15 10 15C12.76 15 15 13.21 15 11C15 8.79 12.76 7 10 7ZM10 10C11.22 10 12 10.59 12 11C12 11.41 11.22 12 10 12C8.78 12 8 11.41 8 11C8 10.59 8.78 10 10 10ZM10 9C8.345 9 7 9.895 7 11C7 12.105 8.345 13 10 13C11.655 13 13 12.105 13 11C13 9.895 11.655 9 10 9Z" fill="#D6D6D6"/>
</svg>
