<svg width="20" height="26" viewBox="0 0 20 26" fill="none" xmlns="http://www.w3.org/2000/svg">
<path d="M10 1.5C14.6756 1.51543 18.4999 5.32767 18.5 10.1357C18.5 11.4064 18.4904 12.7501 17.9199 14.3682C17.349 15.9874 16.2014 17.919 13.8652 20.3047L13.8643 20.3057L10 24.2822L6.13574 20.3057L6.13477 20.3037C3.79877 17.9181 2.65104 15.9874 2.08008 14.3682C1.50959 12.7501 1.5 11.4064 1.5 10.1357C1.50002 5.32762 5.32436 1.51543 10 1.5Z" fill="#5A443E" stroke="#A9827C"/>
<path d="M13.75 7.25C13.75 7.25 13 8 12.25 8V8.75H7.75V8C7 8 6.25 7.25 6.25 7.25C6.25 7.25 8.5 7.25 10 5.75C11.5 7.25 13.75 7.25 13.75 7.25Z" fill="#D6D6D6"/>
<path d="M14.5 10.25C14.5 10.25 13.75 11 13 11V11.75H7V11C6.25 11 5.5 10.25 5.5 10.25C5.5 10.25 7.375 10.25 7.75 9.5L12.25 9.5C12.625 10.25 14.5 10.25 14.5 10.25Z" fill="#D6D6D6"/>
<path fill-rule="evenodd" clip-rule="evenodd" d="M4.75 13.25C4.75 13.25 5.48856 14.4237 6.25 14.75V16.25L13.75 16.2501V14.75C14.5114 14.4237 15.25 13.25 15.25 13.25C15.25 13.25 13.75 13.25 13 12.5H7C6.25002 13.25 4.75 13.25 4.75 13.25ZM10 13.625C10.6213 13.625 11.125 14.1287 11.125 14.75V16.25H8.875V14.75C8.875 14.1287 9.37868 13.625 10 13.625Z" fill="#D6D6D6"/>
</svg>
