<svg width="20" height="26" viewBox="0 0 20 26" fill="none" xmlns="http://www.w3.org/2000/svg">
<path d="M10 1.5C14.6756 1.51543 18.4999 5.32767 18.5 10.1357C18.5 11.4064 18.4904 12.7501 17.9199 14.3682C17.349 15.9874 16.2014 17.919 13.8652 20.3047L13.8643 20.3057L10 24.2822L6.13574 20.3057L6.13477 20.3037C3.79877 17.9181 2.65104 15.9874 2.08008 14.3682C1.50959 12.7501 1.5 11.4064 1.5 10.1357C1.50002 5.32762 5.32436 1.51543 10 1.5Z" fill="#255978" stroke="#4687B0"/>
<path fill-rule="evenodd" clip-rule="evenodd" d="M10.75 10.25H11.9125L12.175 11H10.375L9.625 11.75H7.75L7.1875 10.8125H4.75V11.75H6.625L7.18468 12.585C7.00793 12.5298 6.81994 12.5 6.625 12.5C5.58947 12.5 4.75 13.3395 4.75 14.375C4.75 15.4105 5.58947 16.25 6.625 16.25C7.59966 16.25 8.40063 15.5063 8.49143 14.5555L8.86913 15.125H10.375C10.375 15.125 10 14 10.75 12.875C11.5 11.75 12.4375 11.75 12.4375 11.75L12.726 12.6154C12.0103 12.8794 11.5 13.5676 11.5 14.375C11.5 15.4105 12.3395 16.25 13.375 16.25C14.4105 16.25 15.25 15.4105 15.25 14.375C15.25 13.5131 14.6684 12.787 13.8762 12.5677L13.5651 11.75H14.5V11H13.3375L12.775 9.5H10.75V10.25ZM6.625 15.125C7.03921 15.125 7.375 14.7892 7.375 14.375C7.375 13.9608 7.03921 13.625 6.625 13.625C6.21079 13.625 5.875 13.9608 5.875 14.375C5.875 14.7892 6.21079 15.125 6.625 15.125ZM13.375 15.125C13.7892 15.125 14.125 14.7892 14.125 14.375C14.125 13.9608 13.7892 13.625 13.375 13.625C12.9608 13.625 12.625 13.9608 12.625 14.375C12.625 14.7892 12.9608 15.125 13.375 15.125Z" fill="#D6D6D6"/>
<path fill-rule="evenodd" clip-rule="evenodd" d="M9.75 8.5H10.25C10.5815 8.5 10.8995 8.3683 11.1339 8.13388C11.3683 7.89946 11.5 7.58152 11.5 7.25C11.5 6.91848 11.3683 6.60054 11.1339 6.36612C10.8995 6.1317 10.5815 6 10.25 6H9V9.5H9.75V8.5ZM9.75 6.75H10.25C10.3826 6.75 10.5098 6.80268 10.6036 6.89645C10.6973 6.99021 10.75 7.11739 10.75 7.25C10.75 7.38261 10.6973 7.50978 10.6036 7.60355C10.5098 7.69732 10.3826 7.75 10.25 7.75H9.75V6.75Z" fill="#D6D6D6"/>
</svg>
