<svg width="20" height="26" viewBox="0 0 20 26" fill="none" xmlns="http://www.w3.org/2000/svg">
<path d="M10 1.5C14.6756 1.51543 18.4999 5.32767 18.5 10.1357C18.5 11.4064 18.4904 12.7501 17.9199 14.3682C17.349 15.9874 16.2014 17.919 13.8652 20.3047L13.8643 20.3057L10 24.2822L6.13574 20.3057L6.13477 20.3037C3.79877 17.9181 2.65104 15.9874 2.08008 14.3682C1.50959 12.7501 1.5 11.4064 1.5 10.1357C1.50002 5.32762 5.32436 1.51543 10 1.5Z" fill="#255978" stroke="#4687B0"/>
<path d="M15.25 8.75L10 7.25L4.75 8.75V7.25L10 5.75L15.25 7.18749V8.75Z" fill="#D6D6D6"/>
<path fill-rule="evenodd" clip-rule="evenodd" d="M10.025 14.1875C11.875 14.1875 13 13.375 13 11.75C13 10.215 11.83 9.5 10.025 9.5H7.75004V16.25H9.25004V14.1875H10.025ZM10.375 10.8125C10.9863 10.8113 11.5 11.1387 11.5 11.75C11.5236 12.4183 11.0368 12.875 10.375 12.875H9.25004V10.8125H10.375Z" fill="#D6D6D6"/>
</svg>
