<svg width="20" height="26" viewBox="0 0 20 26" fill="none" xmlns="http://www.w3.org/2000/svg">
<path d="M10 1.5C14.6756 1.51543 18.4999 5.32767 18.5 10.1357C18.5 11.4064 18.4904 12.7501 17.9199 14.3682C17.349 15.9874 16.2014 17.919 13.8652 20.3047L13.8643 20.3057L10 24.2822L6.13574 20.3057L6.13477 20.3037C3.79877 17.9181 2.65104 15.9874 2.08008 14.3682C1.50959 12.7501 1.5 11.4064 1.5 10.1357C1.50002 5.32762 5.32436 1.51543 10 1.5Z" fill="#5F3068" stroke="#B378BC"/>
<path d="M10 8.5C10.4945 8.5 10.9778 8.64662 11.3889 8.92133C11.8 9.19603 12.1205 9.58648 12.3097 10.0433C12.4989 10.5001 12.5484 11.0028 12.452 11.4877C12.3555 11.9727 12.1174 12.4181 11.7678 12.7678C11.4181 13.1174 10.9727 13.3555 10.4877 13.452C10.0028 13.5484 9.50011 13.4989 9.04329 13.3097C8.58648 13.1205 8.19603 12.8 7.92133 12.3889C7.64662 11.9778 7.5 11.4945 7.5 11C7.5 10.337 7.76339 9.70107 8.23223 9.23223C8.70107 8.76339 9.33696 8.5 10 8.5Z" fill="#D6D6D6"/>
</svg>
