<svg width="20" height="26" viewBox="0 0 20 26" fill="none" xmlns="http://www.w3.org/2000/svg">
<path d="M10 1.5C14.6756 1.51543 18.4999 5.32767 18.5 10.1357C18.5 11.4064 18.4904 12.7501 17.9199 14.3682C17.349 15.9874 16.2014 17.919 13.8652 20.3047L13.8643 20.3057L10 24.2822L6.13574 20.3057L6.13477 20.3037C3.79877 17.9181 2.65104 15.9874 2.08008 14.3682C1.50959 12.7501 1.5 11.4064 1.5 10.1357C1.50002 5.32762 5.32436 1.51543 10 1.5Z" fill="#4E596F" stroke="#717C95"/>
<path d="M5.00003 8.5V8H15V8.5C14.9982 8.58196 14.9763 8.66222 14.9362 8.73372C14.8961 8.80521 14.839 8.86575 14.77 8.91L10.27 11.72C10.194 11.7639 10.1078 11.787 10.02 11.787C9.93226 11.787 9.84604 11.7639 9.77003 11.72L5.27003 8.91C5.19357 8.87065 5.12854 8.81224 5.08125 8.74042C5.03395 8.6686 5.00598 8.58579 5.00003 8.5ZM15 9.75L10.545 12.645C10.3828 12.7504 10.1935 12.8066 10 12.8066C9.80656 12.8066 9.61724 12.7504 9.45503 12.645L5.00003 9.75V14.07C4.99936 14.1267 5.01002 14.1829 5.0314 14.2353C5.05277 14.2878 5.08442 14.3355 5.12448 14.3755C5.16454 14.4156 5.21221 14.4473 5.26469 14.4686C5.31716 14.49 5.37338 14.5007 5.43003 14.5H14.57C14.6267 14.5007 14.6829 14.49 14.7354 14.4686C14.7878 14.4473 14.8355 14.4156 14.8756 14.3755C14.9156 14.3355 14.9473 14.2878 14.9687 14.2353C14.99 14.1829 15.0007 14.1267 15 14.07V9.75Z" fill="#D6D6D6"/>
</svg>
