<svg width="20" height="26" viewBox="0 0 20 26" fill="none" xmlns="http://www.w3.org/2000/svg">
<path d="M10 1.5C14.6756 1.51543 18.4999 5.32767 18.5 10.1357C18.5 11.4064 18.4904 12.7501 17.9199 14.3682C17.349 15.9874 16.2014 17.919 13.8652 20.3047L13.8643 20.3057L10 24.2822L6.13574 20.3057L6.13477 20.3037C3.79877 17.9181 2.65104 15.9874 2.08008 14.3682C1.50959 12.7501 1.5 11.4064 1.5 10.1357C1.50002 5.32762 5.32436 1.51543 10 1.5Z" fill="#5A443E" stroke="#A9827C"/>
<path d="M6.625 6.5C6.625 6.08579 6.96079 5.75 7.375 5.75C7.78921 5.75 8.125 6.08579 8.125 6.5V7.25C8.125 7.66421 7.78921 8 7.375 8C6.96079 8 6.625 7.66421 6.625 7.25V6.5Z" fill="#D6D6D6"/>
<path d="M8.5 14H10L8.80906 9.83171C8.62612 9.19143 8.0409 8.75 7.375 8.75C6.7091 8.75 6.12388 9.19143 5.94094 9.83171L4.75 14H6.25001V15.875C6.25001 16.0821 6.4179 16.25 6.62501 16.25H8.125C8.33211 16.25 8.5 16.0821 8.5 15.875V14Z" fill="#D6D6D6"/>
<path d="M12.25 6.5C12.25 6.08579 12.5858 5.75 13 5.75C13.4142 5.75 13.75 6.08579 13.75 6.5V7.25C13.75 7.66421 13.4142 8 13 8C12.5858 8 12.25 7.66421 12.25 7.25V6.5Z" fill="#D6D6D6"/>
<path d="M11.875 15.875C11.875 16.0821 12.0429 16.25 12.25 16.25H13.75C13.9571 16.25 14.125 16.0821 14.125 15.875V13.25H15.25V9.5C15.25 9.08579 14.9142 8.75 14.5 8.75H11.5C11.0858 8.75 10.75 9.08579 10.75 9.5V13.25H11.875V15.875Z" fill="#D6D6D6"/>
</svg>
