<svg width="20" height="26" viewBox="0 0 20 26" fill="none" xmlns="http://www.w3.org/2000/svg">
<path d="M10 1.5C14.6756 1.51543 18.4999 5.32767 18.5 10.1357C18.5 11.4064 18.4904 12.7501 17.9199 14.3682C17.349 15.9874 16.2014 17.919 13.8652 20.3047L13.8643 20.3057L10 24.2822L6.13574 20.3057L6.13477 20.3037C3.79877 17.9181 2.65104 15.9874 2.08008 14.3682C1.50959 12.7501 1.5 11.4064 1.5 10.1357C1.50002 5.32762 5.32436 1.51543 10 1.5Z" fill="#476F90" stroke="#60A9D9"/>
<path d="M8.04255 13.25H7.18748V14.9376H10.375V13.25H9.62497V11.375C9.62497 10.9608 9.96076 10.625 10.375 10.625H11.875C12.2892 10.625 12.625 10.9608 12.625 11.375V13.25H11.875V14.9376H13.5625V8.34775L11.125 7.129L8.64841 8.36729L8.41972 7.22384L11.125 5.87122L14.6875 7.65247V16.0626H6.06248V13.25H5.2074C4.97076 13.25 4.79328 13.0335 4.83969 12.8015L6.17643 6.11772C6.21919 5.90391 6.40693 5.75 6.62498 5.75C6.84302 5.75 7.03076 5.90391 7.07352 6.11772L8.41027 12.8015C8.45668 13.0335 8.27919 13.25 8.04255 13.25Z" fill="#BFBFBF"/>
<path d="M11.125 8.1875C10.8143 8.1875 10.5625 8.43934 10.5625 8.75V9.3125C10.5625 9.62316 10.8143 9.875 11.125 9.875C11.4356 9.875 11.6875 9.62316 11.6875 9.3125V8.75C11.6875 8.43934 11.4356 8.1875 11.125 8.1875Z" fill="#BFBFBF"/>
</svg>
