<svg width="20" height="26" viewBox="0 0 20 26" fill="none" xmlns="http://www.w3.org/2000/svg">
<path d="M10 1.5C14.6756 1.51543 18.4999 5.32767 18.5 10.1357C18.5 11.4064 18.4904 12.7501 17.9199 14.3682C17.349 15.9874 16.2014 17.919 13.8652 20.3047L13.8643 20.3057L10 24.2822L6.13574 20.3057L6.13477 20.3037C3.79877 17.9181 2.65104 15.9874 2.08008 14.3682C1.50959 12.7501 1.5 11.4064 1.5 10.1357C1.50002 5.32762 5.32436 1.51543 10 1.5Z" fill="#8C2B72" stroke="#DD70BB"/>
<path fill-rule="evenodd" clip-rule="evenodd" d="M4.75 13.6252V9.17496C4.75 8.94939 4.9477 8.77487 5.17152 8.80285L6.28632 8.94222C7.06352 9.03938 7.75 8.43338 7.75 7.65013C7.75 7.14405 8.30209 6.83146 8.73605 7.09184L10.0653 7.8894L8.85225 9.10247C8.63259 9.32214 8.63259 9.6783 8.85225 9.89797C9.07193 10.1176 9.42808 10.1176 9.64775 9.89797L11.0597 8.48602L11.9403 9.01439L11.1023 9.85246C10.8826 10.0721 10.8826 10.4283 11.1023 10.648C11.3219 10.8676 11.6781 10.8676 11.8977 10.648L12.9347 9.61101L14.1576 10.3448C14.8353 10.7514 15.25 11.4838 15.25 12.2741V13.6252C15.25 14.2466 14.7463 14.7502 14.125 14.7502L5.87499 14.7502C5.25368 14.7502 4.75 14.2465 4.75 13.6252ZM5.5 11.7502H8.32295C8.89111 11.7502 9.4105 12.0712 9.66459 12.5794L10 13.2502H5.5V11.7502Z" fill="#D6D6D6"/>
</svg>
