<svg width="20" height="26" viewBox="0 0 20 26" fill="none" xmlns="http://www.w3.org/2000/svg">
<path d="M10 1.5C14.6756 1.51543 18.4999 5.32767 18.5 10.1357C18.5 11.4064 18.4904 12.7501 17.9199 14.3682C17.349 15.9874 16.2014 17.919 13.8652 20.3047L13.8643 20.3057L10 24.2822L6.13574 20.3057L6.13477 20.3037C3.79877 17.9181 2.65104 15.9874 2.08008 14.3682C1.50959 12.7501 1.5 11.4064 1.5 10.1357C1.50002 5.32762 5.32436 1.51543 10 1.5Z" fill="#8C2B72" stroke="#DD70BB"/>
<path d="M12.5 9L12.35 8C12.3131 7.59486 12.1278 7.21764 11.8297 6.94078C11.5317 6.66393 11.1418 6.50695 10.735 6.5H9.26504C8.85828 6.50695 8.46842 6.66393 8.17034 6.94078C7.87226 7.21764 7.68696 7.59486 7.65004 8L7.52504 9H5.66504L5.95004 14.55C5.96288 14.8065 6.07388 15.0481 6.26004 15.225C6.4462 15.4019 6.69326 15.5003 6.95004 15.5H13.05C13.3068 15.5003 13.5539 15.4019 13.74 15.225C13.9262 15.0481 14.0372 14.8065 14.05 14.55L14.335 9H12.5ZM8.64004 8.1C8.65329 7.94104 8.72409 7.79237 8.83917 7.6819C8.95424 7.57143 9.10567 7.50675 9.26504 7.5H10.735C10.8944 7.50675 11.0458 7.57143 11.1609 7.6819C11.276 7.79237 11.3468 7.94104 11.36 8.1L11.445 8.95C11.452 9.01974 11.4443 9.09017 11.4223 9.15673C11.4004 9.22328 11.3647 9.28448 11.3175 9.33634C11.2704 9.3882 11.2128 9.42957 11.1487 9.45777C11.0845 9.48596 11.0151 9.50035 10.945 9.5H9.05504C8.98495 9.50035 8.91557 9.48596 8.8514 9.45777C8.78723 9.42957 8.72971 9.3882 8.68256 9.33634C8.63541 9.28448 8.5997 9.22328 8.57773 9.15673C8.55576 9.09017 8.54803 9.01974 8.55504 8.95L8.64004 8.1Z" fill="#D6D6D6"/>
</svg>
