<svg width="20" height="26" viewBox="0 0 20 26" fill="none" xmlns="http://www.w3.org/2000/svg">
<path d="M10 1.5C14.6756 1.51543 18.4999 5.32767 18.5 10.1357C18.5 11.4064 18.4904 12.7501 17.9199 14.3682C17.349 15.9874 16.2014 17.919 13.8652 20.3047L13.8643 20.3057L10 24.2822L6.13574 20.3057L6.13477 20.3037C3.79877 17.9181 2.65104 15.9874 2.08008 14.3682C1.50959 12.7501 1.5 11.4064 1.5 10.1357C1.50002 5.32762 5.32436 1.51543 10 1.5Z" fill="#8C2B72" stroke="#DD70BB"/>
<path d="M10.7499 6.25552C10.7499 5.97633 10.9762 5.75 11.2554 5.75H13.2443C13.5235 5.75 13.7499 5.97633 13.7499 6.25552C13.7499 6.53471 13.5235 6.76105 13.2443 6.76105H11.2554C10.9762 6.76105 10.7499 6.53471 10.7499 6.25552Z" fill="#D6D6D6"/>
<path fill-rule="evenodd" clip-rule="evenodd" d="M14.5001 11L14.5001 10.625C14.5 9.40792 14.1053 8.22368 13.375 7.25001H11.125C10.3947 8.22368 10 9.40793 10 10.625V11L8.68746 11L8.6875 10.7431C8.6875 9.76588 8.95728 8.81388 9.45873 7.98859C9.06787 7.75757 8.61192 7.625 8.125 7.625C7.79194 7.625 7.47337 7.68703 7.18021 7.80016C7.14669 7.56367 7.07164 7.29936 6.92163 7.03955C6.47493 6.26583 5.66131 6.04782 5.66131 6.04782C5.66131 6.04782 5.4433 6.86144 5.89001 7.63516C5.99881 7.82361 6.12938 7.9791 6.26466 8.10649C6.12617 8.05543 5.96373 8.01871 5.78293 8.01871C5.18943 8.01871 4.79376 8.41437 4.79376 8.41437C4.79376 8.41437 5.18943 8.81004 5.78293 8.81004C5.83542 8.81004 5.88636 8.80695 5.93561 8.8013C5.66033 9.2165 5.5 9.71452 5.5 10.25C5.5 10.5106 5.53798 10.7624 5.6087 11L4.75 11L5.74794 15.6571C5.82204 16.003 6.12764 16.25 6.4813 16.25H13.5056C13.8652 16.25 14.1741 15.9949 14.2421 15.6418L15.136 11L14.5001 11ZM6.11946 12.0919H7.13051L7.75002 15.125H6.73897L6.11946 12.0919ZM9.4375 12.125H8.3125L8.6875 15.125H9.625L9.4375 12.125ZM11.6875 12.125H10.5625L10.375 15.125L11.3125 15.125L11.6875 12.125ZM12.7389 12.125H13.8639L13.261 15.125H12.25L12.7389 12.125Z" fill="#D6D6D6"/>
</svg>
