<svg width="20" height="26" viewBox="0 0 20 26" fill="none" xmlns="http://www.w3.org/2000/svg">
<path d="M10 1.5C14.6756 1.51543 18.4999 5.32767 18.5 10.1357C18.5 11.4064 18.4904 12.7501 17.9199 14.3682C17.349 15.9874 16.2014 17.919 13.8652 20.3047L13.8643 20.3057L10 24.2822L6.13574 20.3057L6.13477 20.3037C3.79877 17.9181 2.65104 15.9874 2.08008 14.3682C1.50959 12.7501 1.5 11.4064 1.5 10.1357C1.50002 5.32762 5.32436 1.51543 10 1.5Z" fill="#97396B" stroke="#EA7CB2"/>
<path d="M5.5 6V11.72C5.5 12.9135 5.97411 14.0581 6.81802 14.902C7.66193 15.7459 8.80652 16.22 10 16.22C11.1935 16.22 12.3381 15.7459 13.182 14.902C14.0259 14.0581 14.5 12.9135 14.5 11.72V6H5.5ZM7 9.375C7 9.04348 7.1317 8.72554 7.36612 8.49112C7.60054 8.2567 7.91848 8.125 8.25 8.125C8.58152 8.125 8.89946 8.2567 9.13388 8.49112C9.3683 8.72554 9.5 9.04348 9.5 9.375C9.5 10.065 8.94 10 8.25 10C7.56 10 7 10.065 7 9.375ZM12.34 12.875C12.161 13.351 11.8411 13.761 11.423 14.0505C11.0049 14.3399 10.5085 14.495 10 14.495C9.49149 14.495 8.99507 14.3399 8.57697 14.0505C8.15888 13.761 7.839 13.351 7.66 12.875C7.629 12.7917 7.62077 12.7016 7.63616 12.6141C7.65155 12.5265 7.69001 12.4446 7.74757 12.3769C7.80513 12.3091 7.87971 12.258 7.96363 12.2286C8.04755 12.1993 8.13777 12.1929 8.225 12.21C9.39988 12.41 10.6001 12.41 11.775 12.21C11.864 12.1913 11.9564 12.1972 12.0423 12.2272C12.1282 12.2571 12.2042 12.3098 12.2624 12.3798C12.3205 12.4497 12.3584 12.5342 12.3721 12.6241C12.3858 12.714 12.3747 12.8059 12.34 12.89V12.875ZM11.75 10C11.06 10 10.5 10.065 10.5 9.375C10.5 9.04348 10.6317 8.72554 10.8661 8.49112C11.1005 8.2567 11.4185 8.125 11.75 8.125C12.0815 8.125 12.3995 8.2567 12.6339 8.49112C12.8683 8.72554 13 9.04348 13 9.375C13 10.065 12.44 10 11.75 10Z" fill="#D6D6D6"/>
</svg>
