<svg width="20" height="26" viewBox="0 0 20 26" fill="none" xmlns="http://www.w3.org/2000/svg">
<path d="M10 1.5C14.6756 1.51543 18.4999 5.32767 18.5 10.1357C18.5 11.4064 18.4904 12.7501 17.9199 14.3682C17.349 15.9874 16.2014 17.919 13.8652 20.3047L13.8643 20.3057L10 24.2822L6.13574 20.3057L6.13477 20.3037C3.79877 17.9181 2.65104 15.9874 2.08008 14.3682C1.50959 12.7501 1.5 11.4064 1.5 10.1357C1.50002 5.32762 5.32436 1.51543 10 1.5Z" fill="#4E596F" stroke="#717C95"/>
<path d="M11 14.0004V9.50039H7.5V11.5004H9V14.0004H7V16.0004H12.5V14.0004H11ZM11.35 7.50039C11.35 7.7674 11.2708 8.0284 11.1225 8.25041C10.9741 8.47242 10.7633 8.64545 10.5166 8.74763C10.2699 8.84981 9.9985 8.87654 9.73663 8.82445C9.47475 8.77236 9.23421 8.64379 9.04541 8.45498C8.8566 8.26618 8.72803 8.02564 8.67594 7.76376C8.62385 7.50189 8.65058 7.23045 8.75276 6.98377C8.85494 6.73709 9.02797 6.52625 9.24998 6.37791C9.47199 6.22957 9.73299 6.15039 10 6.15039C10.358 6.15039 10.7014 6.29262 10.9546 6.5458C11.2078 6.79897 11.35 7.14235 11.35 7.50039Z" fill="#D6D6D6"/>
</svg>
