<svg width="20" height="26" viewBox="0 0 20 26" fill="none" xmlns="http://www.w3.org/2000/svg">
<path d="M10 1.5C14.6756 1.51543 18.4999 5.32767 18.5 10.1357C18.5 11.4064 18.4904 12.7501 17.9199 14.3682C17.349 15.9874 16.2014 17.919 13.8652 20.3047L13.8643 20.3057L10 24.2822L6.13574 20.3057L6.13477 20.3037C3.79877 17.9181 2.65104 15.9874 2.08008 14.3682C1.50959 12.7501 1.5 11.4064 1.5 10.1357C1.50002 5.32762 5.32436 1.51543 10 1.5Z" fill="#3E495A" stroke="#8D9FB5"/>
<path fill-rule="evenodd" clip-rule="evenodd" d="M5.5 7.4375V12.5H10.5625V7.4375H10.75C11.2678 7.4375 11.6875 7.85723 11.6875 8.375V8.75H12.7988C13.3935 8.75 13.9138 9.14977 14.067 9.72432L14.5269 11.4489C14.9497 11.6107 15.25 12.0203 15.25 12.5V12.6788L15.25 12.6875L15.25 14.375H14.5C14.5 14.9963 13.9963 15.5 13.375 15.5C12.7537 15.5 12.25 14.9963 12.25 14.375H10.375C10.375 14.9963 9.87132 15.5 9.25 15.5C8.62868 15.5 8.125 14.9963 8.125 14.375H7.75C7.75 14.9963 7.24632 15.5 6.625 15.5C6.00368 15.5 5.5 14.9963 5.5 14.375L4.75 14.375V8.1875C4.75 7.77329 5.08579 7.4375 5.5 7.4375ZM12.98 10.0142L13.3429 11.375H11.6875V9.875H12.7988C12.8838 9.875 12.9581 9.93211 12.98 10.0142Z" fill="#D6D6D6"/>
<path fill-rule="evenodd" clip-rule="evenodd" d="M7.5625 8.75H9.25052C9.45762 8.75 9.625 8.58211 9.625 8.375V6.125C9.625 5.91789 9.45802 5.75 9.25092 5.75H6.625L6.62507 10.25H7.5625V8.75ZM7.5625 6.6875H8.6875V7.8125H7.5625V6.6875Z" fill="#D6D6D6"/>
</svg>
