<svg width="20" height="26" viewBox="0 0 20 26" fill="none" xmlns="http://www.w3.org/2000/svg">
<path d="M10 1.5C14.6756 1.51543 18.4999 5.32767 18.5 10.1357C18.5 11.4064 18.4904 12.7501 17.9199 14.3682C17.349 15.9874 16.2014 17.919 13.8652 20.3047L13.8643 20.3057L10 24.2822L6.13574 20.3057L6.13477 20.3037C3.79877 17.9181 2.65104 15.9874 2.08008 14.3682C1.50959 12.7501 1.5 11.4064 1.5 10.1357C1.50002 5.32762 5.32436 1.51543 10 1.5Z" fill="#3E495A" stroke="#8D9FB5"/>
<path fill-rule="evenodd" clip-rule="evenodd" d="M5.6875 5.75C5.16973 5.75 4.75 6.16973 4.75 6.6875V11.375H5.5C5.5 11.9963 6.00368 12.5 6.625 12.5C7.24632 12.5 7.75 11.9963 7.75 11.375H8.125C8.125 11.9963 8.62868 12.5 9.25 12.5C9.87132 12.5 10.375 11.9963 10.375 11.375H12.25C12.25 11.9963 12.7537 12.5 13.375 12.5C13.9963 12.5 14.5 11.9963 14.5 11.375H15.25V9.6875C15.25 9.2162 14.9602 8.81259 14.549 8.64516L14.0832 7.36396C13.8945 6.84528 13.4016 6.5 12.8497 6.5H11.6687C11.5819 6.07208 11.2036 5.75 10.75 5.75H5.6875ZM5.5 9.875V6.875H10.5625V9.875H5.5ZM13.5265 9.125H11.6875V7.625H12.8497C12.9285 7.625 12.9989 7.67432 13.0259 7.74842L13.5265 9.125Z" fill="#D6D6D6"/>
<path d="M15.25 13.25H4.75V14H6.8125V14.75H5.5L7.375 16.25L9.25 14.75H7.9375V14H12.0625V14.75H10.75L12.625 16.25L14.5 14.75H13.1875V14H15.25V13.25Z" fill="#D6D6D6"/>
</svg>
