<svg width="32" height="34" viewBox="0 0 32 34" fill="none" xmlns="http://www.w3.org/2000/svg">
<path d="M11.542 3.2998C14.0026 0.900345 17.9974 0.900345 20.458 3.2998L28.6602 11.2979C31.1134 13.6905 31.1136 17.5645 28.6602 19.957L16 32.3008L3.33984 19.957C0.886356 17.5645 0.886574 13.6905 3.33984 11.2979L11.542 3.2998Z" fill="#3D4551" stroke="#E1E0E0"/>
<path d="M14 11C14 11.5523 13.5523 12 13 12C12.4477 12 12 11.5523 12 11C12 10.4477 12.4477 10 13 10C13.5523 10 14 10.4477 14 11Z" fill="#D5D5D5"/>
<path d="M12 13C11.4477 13 11 13.4477 11 14V18H12V22H14V19H13V13L12 13Z" fill="#D5D5D5"/>
<path d="M14 14C14 13.4477 14.4477 13 15 13H17C17.5523 13 18 13.4477 18 14V18H17V22H15V18H14V14Z" fill="#D5D5D5"/>
<path d="M19 12C18.4477 12 18 11.5523 18 11C18 10.4477 18.4477 10 19 10C19.5523 10 20 10.4477 20 11C20 11.5523 19.5523 12 19 12Z" fill="#D5D5D5"/>
<path d="M21 14C21 13.4477 20.5523 13 20 13L19 13V19H18V22H20V18H21V14Z" fill="#D5D5D5"/>
<path d="M16 12C16.5523 12 17 11.5523 17 11C17 10.4477 16.5523 10 16 10C15.4477 10 15 10.4477 15 11C15 11.5523 15.4477 12 16 12Z" fill="#D5D5D5"/>
</svg>
