<svg width="32" height="34" viewBox="0 0 32 34" fill="none" xmlns="http://www.w3.org/2000/svg">
<path d="M11.542 3.2998C14.0026 0.900345 17.9974 0.900345 20.458 3.2998L28.6602 11.2979C31.1134 13.6905 31.1136 17.5645 28.6602 19.957L16 32.3008L3.33984 19.957C0.886356 17.5645 0.886574 13.6905 3.33984 11.2979L11.542 3.2998Z" fill="#3D4551" stroke="#E1E0E0"/>
<path fill-rule="evenodd" clip-rule="evenodd" d="M23 16C23 19.866 19.866 23 16 23C12.134 23 9 19.866 9 16C9 12.134 12.134 9 16 9C19.866 9 23 12.134 23 16ZM15 11V16.7321L18.8971 18.9821L19.8971 17.25L17 15.5774V11H15Z" fill="#D5D5D5"/>
</svg>
