<svg width="32" height="34" viewBox="0 0 32 34" fill="none" xmlns="http://www.w3.org/2000/svg">
<path d="M11.542 3.2998C14.0026 0.900345 17.9974 0.900345 20.458 3.2998L28.6602 11.2979C31.1134 13.6905 31.1136 17.5645 28.6602 19.957L16 32.3008L3.33984 19.957C0.886356 17.5645 0.886574 13.6905 3.33984 11.2979L11.542 3.2998Z" fill="#3D4551" stroke="#E1E0E0"/>
<path d="M20.0999 21.0003L22.0999 18.0003V21.0003H20.0999ZM21.0999 16.6003L19.4999 17.7003L18.4999 22.1003H12.7999L12.1999 23.1003L10.9999 22.2003L11.5999 21.2003L9.59995 19.9003C8.99995 19.5003 8.89995 18.8003 9.19995 18.3003L10.5999 16.1003L12.1999 16.9003L14.7999 12.9003L13.4999 11.8003L14.8999 9.60029C15.2999 9.00029 15.9999 8.80029 16.4999 9.20029L18.4999 10.5003L19.0999 9.50029L20.2999 10.3003L19.6999 11.3003L21.4999 14.5003C21.9999 15.2003 21.7999 16.1003 21.0999 16.6003ZM15.5999 12.7003C15.6999 13.2003 16.2999 13.6003 16.7999 13.5003C17.2999 13.4003 17.6999 12.8003 17.5999 12.3003C17.4999 11.8003 16.8999 11.4003 16.3999 11.5003C15.7999 11.6003 15.4999 12.2003 15.5999 12.7003ZM13.5999 18.4003C13.4999 17.9003 12.8999 17.5003 12.3999 17.6003C11.8999 17.7003 11.4999 18.3003 11.5999 18.8003C11.6999 19.3003 12.2999 19.7003 12.7999 19.6003C13.3999 19.4003 13.7999 18.9003 13.5999 18.4003ZM20.2999 15.2003L18.8999 12.7003H18.7999L14.3999 19.6003L13.8999 20.4003H17.3999L18.0999 17.2003L18.1999 16.6003L18.6999 16.3003L20.2999 15.2003C20.2999 15.3003 20.2999 15.3003 20.2999 15.2003Z" fill="#D5D5D5"/>
</svg>
