<svg width="32" height="34" viewBox="0 0 32 34" fill="none" xmlns="http://www.w3.org/2000/svg">
<path d="M11.542 3.2998C14.0026 0.900345 17.9974 0.900345 20.458 3.2998L28.6602 11.2979C31.1134 13.6905 31.1136 17.5645 28.6602 19.957L16 32.3008L3.33984 19.957C0.886356 17.5645 0.886574 13.6905 3.33984 11.2979L11.542 3.2998Z" fill="#3D4551" stroke="#E1E0E0"/>
<path d="M17 10.5C17 9.7 17.7 9 18.5 9C19.3 9 20 9.7 20 10.5C20 11.3 19.3 12 18.5 12C17.7 12 17 11.3 17 10.5ZM14.2 16.8L13.9 16.4L11.5 14L11.3 14.1C10.8 14.7 10.5 15.3 10.5 16.1V19C10.5 19.1 10.5 19.2 10.5 19.3L9.59998 21L10.6 22L11.9 19.6C12 19.4 12 19.2 12 19V16.6L13.1 17.8C13.3 18 13.4 18.3 13.4 18.7V22H15V18.7C15 17.9 14.7 17.3 14.2 16.8ZM23 20L21 22H15L18 19L10.5 11.5L9.99998 11L12.4 9.6C12.7 9.4 13.1 9.3 13.4 9.3C13.9 9.3 14.4 9.5 14.8 9.9L17.4 12.5C17.8 12.8 18 13.3 18 13.8V17.6L18.7 18.3L20 17L23 20ZM14.8 12L13.8 10.9C13.7 10.8 13.6 10.8 13.4 10.8C13.3 10.8 13.2 10.8 13.1 10.9L12 11.6L13.3 12.9L14.8 12ZM16.5 13.9L15.1 14.7L16.5 16.1V13.9Z" fill="#D5D5D5"/>
</svg>
