<svg width="30" height="30" viewBox="0 0 30 30" fill="none" xmlns="http://www.w3.org/2000/svg">
<path d="M14.9996 1L29 15.0004L15.0004 29L1 14.9996L14.9996 1Z" fill="#333A48"/>
<path d="M27.5 15L15 27.5L2.5 15L15 2.5L27.5 15Z" fill="#5E5E31"/>
<path d="M25 19H6H5V27H25V19Z" fill="#333A48"/>
<path d="M24 20H6V26H24V20Z" fill="#5E5E31"/>
<path d="M24 11.5L27.5 14.997L24 18.5" fill="#333A48"/>
<path d="M6 18.5L2.5 14.997L6 11.5" fill="#333A48"/>
<path d="M8.84961 25H8V21H8.84961V25ZM9.78613 22.8037L11.2256 25H10.2314L8.88477 22.8672L10.2139 21H11.1211L9.78613 22.8037ZM12.8877 21C13.4077 21 13.8106 21.1076 14.0957 21.3232C14.3847 21.539 14.5293 21.8613 14.5293 22.2891C14.5293 22.7361 14.3867 23.0734 14.1016 23.3008C13.8164 23.5242 13.4348 23.6357 12.957 23.6357H12.5V25H11.6504V21H12.8877ZM16.5693 21C17.1048 21 17.5076 21.1005 17.7773 21.3008C18.047 21.4973 18.1826 21.7956 18.1826 22.1963C18.1826 22.4582 18.1172 22.6742 17.9863 22.8438C17.8592 23.0133 17.6603 23.1579 17.3906 23.2773L18.4248 25H17.46L16.6045 23.4336H16.1709V25H15.3213V21H16.5693ZM21.999 25H21.0977L20.8721 24.1045H19.6172L19.3926 25H18.5078L19.7393 21H20.7734L21.999 25ZM19.7793 23.4736H20.71L20.2422 21.6299L19.7793 23.4736ZM12.5 23.0117H12.8877C13.1343 23.0117 13.3231 22.9555 13.4541 22.8438C13.5851 22.732 13.6504 22.5472 13.6504 22.2891C13.6504 21.8382 13.3924 21.6123 12.876 21.6123H12.5V23.0117ZM16.1709 22.832H16.6162C16.8434 22.832 17.0153 22.7818 17.1309 22.6816C17.2462 22.5776 17.3037 22.4156 17.3037 22.1963C17.3037 21.9922 17.2424 21.8434 17.1191 21.751C16.9997 21.6547 16.8107 21.6075 16.5527 21.6074H16.1709V22.832Z" fill="#333A48"/>
</svg>
