<svg width="19" height="18" viewBox="0 0 19 18" fill="none" xmlns="http://www.w3.org/2000/svg">
<g id="night / usa_a_ri_01">
<g id="usa_a_base">
<g id="stretchable-items">
<rect id="shape01" x="1.5" y="1.5" width="16" height="15" fill="#C4C9D4" stroke="#4E545C" stroke-linejoin="round"/>
</g>
<g id="non-stretchable-items">
<g id="RI">
<g id="shape01_2">
<path d="M8.7765 5.10109H8.4015V6.45609H7.6665V2.99609H8.7465C9.20984 2.99609 9.55817 3.08276 9.7915 3.25609C10.0248 3.42609 10.1415 3.68443 10.1415 4.03109C10.1415 4.25776 10.0848 4.44443 9.9715 4.59109C9.8615 4.73776 9.68984 4.86276 9.4565 4.96609L10.3515 6.45609H9.5165L8.7765 5.10109ZM8.4015 4.58109H8.7865C8.98317 4.58109 9.1315 4.53776 9.2315 4.45109C9.3315 4.36109 9.3815 4.22109 9.3815 4.03109C9.3815 3.85443 9.32817 3.72609 9.2215 3.64609C9.11817 3.56276 8.95484 3.52109 8.7315 3.52109H8.4015V4.58109Z" fill="#4E545C"/>
<path d="M11.4728 6.45609H10.7378V2.99609H11.4728V6.45609Z" fill="#4E545C"/>
</g>
</g>
</g>
</g>
</g>
</svg>
