# Blender 4.2.0
# www.blender.org

v 0.249433 -0.511253 0.000000
v -0.511253 -0.249433 0.000000
v -0.249433 0.511253 -0.000000
v 0.511253 0.249433 -0.000000
v 1.385998 -0.551988 8.121228
v 1.229581 -0.671922 8.121228
v 1.127101 -0.538268 8.223624
v 1.283518 -0.418333 8.223624
v 0.302566 -0.303142 2.956013
v -0.301187 -0.301763 3.006027
v -0.302566 0.303141 2.972706
v 0.301187 0.301762 2.922692
v -1.063505 3.517913 10.190876
v -0.885769 3.603122 10.190876
v -0.821500 3.469064 10.320293
v -0.999236 3.383855 10.320293
v 0.102857 0.817905 6.636167
v 0.469647 1.013210 6.663306
v 0.618790 0.721195 6.963577
v 0.238803 0.573645 6.975466
v 0.950840 0.163768 6.607702
v 0.657473 -0.091004 6.622525
v 0.462304 0.164138 6.821996
v 0.775473 0.394259 6.868505
v 0.723326 0.098884 5.880381
v 0.272501 0.117348 6.009027
v 0.247672 0.565605 5.906267
v 0.709225 0.551549 5.867999
v 1.038547 -5.745598 10.755122
v 3.755553 -3.193020 12.930257
v -0.390755 -3.190302 14.276624
v -3.283835 -2.838896 10.755122
v -0.391433 -3.187895 7.229830
v 3.755342 -3.190945 8.576657
v 1.795903 0.338968 13.726715
v -2.243918 0.516071 12.930322
v -2.387148 0.656821 8.540724
v 1.898247 0.518590 7.227871
v 4.463413 0.513295 10.751791
v 0.746901 2.812684 10.746557
v -1.522048 -1.819756 10.106527
v 1.174542 -0.202656 11.623392
v -2.293806 -0.087060 13.100003
v -4.521776 -0.031255 10.107890
v -2.469247 0.086181 7.067069
v 1.232038 -0.086731 8.255355
v -0.340424 3.022785 13.035414
v -3.866986 3.064665 11.960360
v -3.867534 3.065397 8.255907
v -0.518614 3.234653 7.067069
v 1.834182 3.062362 10.103764
v -1.317633 5.012660 10.107828
vn -0.6953 -0.6898 0.2020
vn -0.9823 -0.0918 -0.1632
vn 0.1001 -0.2714 0.9572
vn 0.2569 -0.9415 -0.2181
vn 0.9536 0.0215 -0.3002
vn 0.8916 0.3404 0.2986
vn -0.1961 0.8682 -0.4558
vn -0.2838 0.5921 0.7542
vn -0.8829 -0.4357 0.1749
vn 0.8700 0.4931 -0.0045
vn 0.3161 -0.4123 0.8545
vn -0.0000 -0.0000 -1.0000
vn -0.3275 0.6974 -0.6375
vn 0.8905 0.4550 0.0089
vn 0.2957 -0.6739 0.6771
vn -0.8999 -0.4347 0.0336
vn 0.5527 -0.6823 -0.4785
vn -0.7737 -0.6315 0.0505
vn -0.5265 0.6304 0.5704
vn 0.8138 0.5797 0.0413
vn 0.0045 -0.9906 0.1365
vn -0.9825 -0.0004 0.1861
vn 0.0071 0.9961 -0.0880
vn 0.9900 0.0084 -0.1407
vn -0.1881 -0.9816 0.0340
vn -0.9816 0.1880 0.0340
vn 0.1905 0.9811 0.0344
vn 0.9819 -0.1864 0.0345
vn 0.2033 -0.7514 0.6278
vn 0.6849 -0.7287 -0.0004
vn -0.5224 -0.7768 0.3517
vn -0.5224 -0.7768 -0.3517
vn 0.2033 -0.7515 -0.6277
vn 0.9822 -0.1877 -0.0001
vn 0.3085 -0.0431 0.9502
vn -0.7704 -0.1611 0.6168
vn -0.7681 -0.1903 -0.6114
vn 0.3033 -0.1878 -0.9342
vn 0.7139 0.2485 0.6547
vn -0.1760 0.2571 0.9502
vn -0.9615 0.2720 0.0401
vn -0.2833 0.1745 -0.9430
vn 0.7943 0.1875 -0.5779
vn 0.4661 0.7544 0.4622
vn -0.0964 0.7489 0.6556
vn -0.5875 0.8080 0.0451
vn -0.1499 0.8051 -0.5739
vn 0.4919 0.7942 -0.3568
vn 0.1976 -0.8255 0.5287
vn 0.5226 -0.8523 -0.0204
vn -0.4809 -0.8069 0.3430
vn -0.4790 -0.8031 -0.3543
vn 0.1406 -0.8185 -0.5571
vn 0.9810 -0.1935 0.0101
vn 0.3762 -0.2176 0.9006
vn -0.7902 -0.1829 0.5850
vn -0.8152 -0.1606 -0.5565
vn 0.2929 -0.1815 -0.9388
vn 0.7971 0.1149 0.5928
vn -0.2837 0.1977 0.9383
vn -0.9784 0.2068 0.0002
vn -0.3365 0.2085 -0.9183
vn 0.7801 0.1990 -0.5931
vn 0.4886 0.7888 0.3730
vn -0.1712 0.7873 0.5923
vn -0.6070 0.7947 0.0002
vn -0.2312 0.8122 -0.5357
vn 0.4949 0.8005 -0.3380
vt 0.265625 0.789062
vt 0.273438 0.244004
vt 0.773438 0.798691
s 0
f 23/1/1 26/1/1 22/1/1
f 17/1/2 27/1/2 26/1/2
f 19/1/3 20/1/3 23/1/3 24/1/3
f 25/1/4 21/1/4 22/1/4 26/1/4
f 28/1/5 21/1/5 25/1/5
f 19/1/6 24/1/6 21/1/6
f 18/1/7 28/1/7 27/1/7 17/1/7
f 16/1/8 15/1/8 14/1/8 13/1/8
f 20/1/9 17/1/9 26/1/9 23/1/9
f 18/1/10 19/1/10 21/1/10 28/1/10
f 8/1/11 7/1/11 6/1/11 5/1/11
f 1/1/12 2/1/12 3/1/12 4/1/12
f 18/1/13 17/1/13 13/1/13 14/1/13
f 19/1/14 18/1/14 14/1/14 15/1/14
f 20/1/15 19/1/15 15/1/15 16/1/15
f 17/1/16 20/1/16 16/1/16 13/1/16
f 22/1/17 21/1/17 5/1/17 6/1/17
f 23/1/18 22/1/18 6/1/18 7/1/18
f 24/1/19 23/1/19 7/1/19 8/1/19
f 21/1/20 24/1/20 8/1/20 5/1/20
f 10/1/21 9/1/21 25/1/21 26/1/21
f 11/1/22 10/1/22 26/1/22 27/1/22
f 12/1/23 11/1/23 27/1/23 28/1/23
f 9/1/24 12/1/24 28/1/24 25/1/24
f 2/1/25 1/1/25 9/1/25 10/1/25
f 3/1/26 2/1/26 10/1/26 11/1/26
f 4/1/27 3/1/27 11/1/27 12/1/27
f 1/1/28 4/1/28 12/1/28 9/1/28
f 29/2/29 30/2/29 31/2/29
f 30/2/30 29/2/30 34/2/30
f 29/2/31 31/2/31 32/2/31
f 29/2/32 32/2/32 33/2/32
f 29/2/33 33/2/33 34/2/33
f 30/2/34 34/2/34 39/2/34
f 31/2/35 30/2/35 35/2/35
f 32/2/36 31/2/36 36/2/36
f 33/2/37 32/2/37 37/2/37
f 34/2/38 33/2/38 38/2/38
f 30/2/39 39/2/39 35/2/39
f 31/2/40 35/2/40 36/2/40
f 32/2/41 36/2/41 37/2/41
f 33/2/42 37/2/42 38/2/42
f 34/2/43 38/2/43 39/2/43
f 35/2/44 39/2/44 40/2/44
f 36/2/45 35/2/45 40/2/45
f 37/2/46 36/2/46 40/2/46
f 38/2/47 37/2/47 40/2/47
f 39/2/48 38/2/48 40/2/48
f 41/3/49 42/3/49 43/3/49
f 42/3/50 41/3/50 46/3/50
f 41/3/51 43/3/51 44/3/51
f 41/3/52 44/3/52 45/3/52
f 41/3/53 45/3/53 46/3/53
f 42/3/54 46/3/54 51/3/54
f 43/3/55 42/3/55 47/3/55
f 44/3/56 43/3/56 48/3/56
f 45/3/57 44/3/57 49/3/57
f 46/3/58 45/3/58 50/3/58
f 42/3/59 51/3/59 47/3/59
f 43/3/60 47/3/60 48/3/60
f 44/3/61 48/3/61 49/3/61
f 45/3/62 49/3/62 50/3/62
f 46/3/63 50/3/63 51/3/63
f 47/3/64 51/3/64 52/3/64
f 48/3/65 47/3/65 52/3/65
f 49/3/66 48/3/66 52/3/66
f 50/3/67 49/3/67 52/3/67
f 51/3/68 50/3/68 52/3/68
