# Blender 4.2.0
# www.blender.org

v 0.381338 -7.608355 11.504354
v 3.951576 -3.804712 13.526523
v -0.434592 -4.886325 16.182552
v -2.503519 -4.474064 11.145172
v -0.437495 -3.684930 8.118389
v 3.289963 -4.529366 9.370906
v 1.586410 -0.970001 15.100123
v -1.868968 -0.683940 13.420197
v -3.127863 -0.116429 9.058643
v 2.249386 0.110469 7.215768
v 5.544975 0.007455 11.423203
v 0.406468 1.445099 11.993296
v 0.192546 -5.692709 13.306061
v 2.773786 -6.703365 13.746886
v 2.652906 -5.132598 15.744832
v 5.225349 -5.376259 11.924495
v 2.836681 -7.042132 9.953696
v -0.948909 -5.677089 11.493318
v -2.982678 -4.787205 14.258772
v 0.077434 -5.514444 9.732884
v -2.432540 -5.130195 8.658321
v 1.426050 -4.550138 8.502680
v 4.351604 -2.198494 13.151339
v 4.381786 -2.371980 10.598186
v 0.808362 -2.554978 16.966148
v 3.315504 -2.222423 14.508859
v -4.247746 -2.433008 13.003104
v -2.376311 -1.961532 15.606936
v -2.202888 -3.032157 7.594487
v -2.620579 -2.314918 10.443945
v 2.903235 -2.434053 8.584729
v 0.341013 -2.172416 6.562796
v 3.335142 -0.087175 13.342018
v -0.253833 -0.413768 14.527690
v -2.768983 -0.888529 11.613929
v -0.528099 0.519935 7.477279
v 3.165076 -0.227103 9.616766
v 1.384088 1.716445 14.625813
v 3.854549 1.761334 12.025016
v -0.885287 0.568084 12.970512
v -1.072275 0.548440 10.235083
v 2.119621 1.988292 9.213178
v -5.707008 -6.546733 8.698776
v -2.657293 -3.348162 10.452978
v -6.429710 -4.221267 12.672314
v -8.243088 -3.888496 8.408834
v -6.432055 -3.251468 5.768372
v -3.191366 -3.933121 6.854746
v -4.670179 -0.852587 11.798543
v -7.691237 -0.621670 10.367150
v -8.707454 -0.163562 6.602675
v -4.135006 0.019595 5.039744
v -1.331431 -0.063544 8.633268
v -5.686722 1.225112 9.093464
v 0.864128 1.628323 11.042472
v 3.162148 2.548957 13.601841
v 0.625857 2.834741 13.645485
v -1.231103 2.562265 11.673741
v -0.147070 2.229453 8.408310
v 3.613845 2.771291 9.475794
v 1.443390 5.814630 14.397489
v -1.648655 5.893419 13.252643
v -1.485167 5.518920 9.176511
v 1.191446 5.242921 9.250637
v 2.914462 5.433101 11.599970
v 0.476225 7.550536 11.612383
v -0.713333 -0.471716 -0.047101
v -0.469550 0.714760 -0.047100
v 0.713333 0.471716 0.047101
v 0.469550 -0.714760 0.047100
v 0.225875 1.318318 5.237422
v 0.873522 0.761009 5.225293
v 0.361985 0.159445 5.551846
v -0.285662 0.716754 5.563976
v -0.138440 2.852524 10.409202
v 0.058361 2.946645 10.409202
v 0.138440 2.779207 10.523839
v -0.058361 2.685086 10.523839
v 0.080951 -1.490977 10.527040
v -0.127967 -1.428183 10.527040
v -0.080951 -1.271760 10.671648
v 0.127967 -1.334555 10.671648
v -3.014537 -1.874104 6.073228
v -3.134679 -1.692018 6.073228
v -3.025785 -1.620168 6.248070
v -2.905643 -1.802255 6.248070
v 0.812623 0.535913 7.919753
v 0.379098 0.666218 7.919753
v 0.476660 0.990810 8.219828
v 0.910185 0.860505 8.219828
v 0.343372 1.580968 7.998560
v 0.745783 1.773425 7.998560
v 0.909525 1.431055 8.232965
v 0.507113 1.238598 8.232965
v 0.638658 1.498639 7.042962
v 1.070277 1.123230 7.026386
v 0.714691 0.707035 7.193244
v 0.283072 1.082444 7.209820
v -0.172773 0.849313 4.074059
v 0.478652 0.296293 4.074059
v -0.009710 -0.278969 4.475010
v -0.661135 0.274051 4.475010
v -0.771023 -0.317375 2.870178
v -0.583422 0.595670 2.870178
v 0.326858 0.408636 2.942669
v 0.139256 -0.504408 2.942669
v -1.008149 -0.828118 4.104424
v -1.383733 -0.258886 4.104424
v -1.043313 -0.034275 4.651005
v -0.667729 -0.603506 4.651005
vn -0.3692 -0.6558 0.6585
vn 0.6541 -0.2105 0.7266
vn -0.7335 -0.5026 0.4575
vn -0.7258 -0.5026 -0.4696
vn -0.2985 -0.6413 -0.7068
vn 0.7630 -0.0393 0.6452
vn 0.1020 -0.3654 0.9252
vn -0.8229 -0.5386 -0.1808
vn 0.0928 -0.4584 -0.8839
vn 0.4108 -0.2528 -0.8759
vn 0.7941 -0.0564 0.6051
vn -0.4051 -0.0899 0.9099
vn -0.8192 -0.2168 -0.5309
vn -0.0497 -0.7035 -0.7089
vn 0.8050 -0.0724 -0.5889
vn 0.6510 0.1793 0.7376
vn -0.5126 0.6171 0.5970
vn -0.4507 0.8350 0.3156
vn 0.0432 0.7293 -0.6828
vn 0.4273 0.6333 -0.6452
vn -0.0917 0.9864 0.1362
vn 0.8225 0.3001 -0.4832
vn 0.8856 0.3657 -0.2863
vn -0.4338 0.8963 -0.0922
vn -0.4344 0.8957 -0.0950
vn -0.2738 0.9597 -0.0639
vn -0.5451 0.8378 0.0312
vn -0.6280 0.7773 0.0373
vn -0.7047 0.6532 0.2771
vn -0.5062 0.8566 0.0997
vn -0.6623 0.4828 0.5730
vn -0.2521 0.1498 0.9560
vn -0.0905 0.9935 -0.0688
vn 0.6940 0.2781 0.6641
vn 0.6082 0.3401 0.7172
vn 0.6057 -0.0203 -0.7954
vn 0.7902 0.1802 -0.5858
vn 0.9355 0.0524 -0.3494
vn -0.0440 0.3085 -0.9502
vn -0.4187 0.1680 -0.8925
vn -0.5463 0.2310 -0.8051
vn -0.9813 -0.1724 0.0857
vn -0.8051 0.3239 -0.4969
vn -0.6028 0.7689 0.2132
vn -0.4053 0.8272 0.3893
vn -0.1632 0.7050 0.6902
vn 0.0255 0.7567 0.6533
vn 0.5420 0.3991 0.7395
vn 0.7531 0.3102 0.5802
vn 0.6311 0.2371 0.7385
vn 0.5805 -0.2650 -0.7699
vn 0.5554 -0.3586 -0.7503
vn -0.1594 -0.6667 -0.7280
vn -0.9606 -0.2679 -0.0734
vn -0.9878 0.0308 -0.1525
vn -0.9982 -0.0584 -0.0131
vn -0.5990 0.7441 0.2958
vn -0.7972 -0.1120 0.5932
vn -0.5908 -0.2406 0.7701
vn 0.5772 0.4877 0.6549
vn 0.6820 0.1488 0.7160
vn 0.8564 0.0241 0.5158
vn 0.8919 -0.4503 0.0411
vn 0.9635 0.2675 -0.0068
vn 0.7880 -0.0497 -0.6137
vn 0.4084 -0.2755 -0.8702
vn -0.2679 -0.5935 -0.7589
vn -0.1675 -0.6784 -0.7153
vn 0.2330 -0.6058 -0.7608
vn -0.0896 -0.9856 -0.1433
vn -0.6269 -0.7575 0.1820
vn -0.5792 -0.7974 -0.1693
vn -0.2330 -0.9626 0.1384
vn -0.2051 -0.9531 0.2225
vn 0.7191 -0.2775 -0.6371
vn 0.5222 -0.8486 0.0845
vn 0.2774 -0.9565 0.0900
vn -0.0398 -0.9643 0.2617
vn -0.3836 -0.7371 0.5563
vn 0.8866 -0.3361 0.3179
vn 0.4666 -0.7237 0.5084
vn 0.7223 -0.6916 0.0052
vn -0.7137 -0.6533 0.2526
vn -0.5772 -0.6099 -0.5430
vn 0.1173 -0.6454 -0.7548
vn 0.9112 -0.4062 -0.0692
vn 0.5145 -0.0467 0.8562
vn -0.9197 -0.0756 0.3853
vn -0.7207 -0.3732 -0.5843
vn 0.2273 -0.3610 -0.9044
vn 0.6638 0.1392 0.7349
vn -0.3653 0.4079 0.8368
vn -0.9652 0.0064 0.2613
vn -0.3240 0.0168 -0.9459
vn 0.7838 -0.0947 -0.6137
vn 0.2931 0.8083 0.5107
vn -0.2517 0.7195 0.6472
vn -0.5662 0.7859 0.2485
vn -0.1516 0.9301 -0.3346
vn 0.2613 0.9480 -0.1819
vn -0.0951 -0.9065 0.4114
vn 0.3798 -0.9250 -0.0083
vn -0.2774 -0.8811 0.3830
vn -0.4183 -0.9071 -0.0464
vn 0.2180 -0.9300 -0.2959
vn 0.9795 0.1647 0.1161
vn -0.0106 -0.2419 0.9702
vn -0.6418 -0.3927 0.6587
vn -0.9120 -0.3076 -0.2714
vn 0.2487 0.1567 -0.9558
vn 0.8481 0.3493 0.3983
vn -0.3470 -0.1389 0.9275
vn -0.9934 -0.1104 -0.0297
vn 0.0523 0.2472 -0.9675
vn 0.6359 0.5765 -0.5131
vn 0.6379 0.7332 0.2355
vn -0.1891 0.8025 0.5659
vn -0.6568 0.7481 -0.0951
vn 0.0937 0.7261 -0.6811
vn 0.5753 0.6653 -0.4758
vn -0.9816 -0.0541 0.1832
vn 0.3902 -0.9113 0.1315
vn -0.7737 0.0617 0.6305
vn -0.1533 -0.9023 -0.4029
vn 0.2085 0.1908 0.9592
vn 0.6829 -0.6851 -0.2534
vn 0.7827 0.6056 -0.1438
vn -0.6690 -0.4414 0.5980
vn -0.1908 -0.6348 0.7487
vn 0.2144 0.9384 -0.2708
vn 0.9847 -0.1419 0.1009
vn 0.9685 -0.1990 -0.1497
vn 0.8051 -0.5705 0.1622
vn 0.4725 -0.8642 0.1731
vn -0.2267 0.4741 0.8508
vn 0.0762 -0.0157 -0.9970
vn -0.2258 0.6787 0.6988
vn -0.8921 -0.1131 -0.4375
vn 0.6471 0.7623 -0.0111
vn -0.6714 0.7360 0.0870
vn -0.6387 0.7242 -0.2598
vn -0.4894 -0.8283 -0.2726
vn 0.0024 -0.0322 0.9995
vn -0.2220 -0.7386 -0.6365
vn -0.9637 0.2657 0.0260
vn 0.2088 0.6946 0.6885
vn 0.9505 -0.3097 0.0260
vn -0.3761 0.7864 -0.4900
vn 0.8920 0.4506 0.0351
vn 0.3574 -0.7473 0.5601
vn -0.9107 -0.4116 0.0351
vn 0.6347 0.7412 -0.2188
vn 0.7710 -0.6352 0.0448
vn -0.6029 -0.7089 0.3660
vn -0.7323 0.6733 0.1018
vn 0.5717 0.6740 -0.4679
vn 0.7621 -0.6474 0.0002
vn -0.5707 -0.6729 0.4706
vn -0.7621 0.6474 -0.0001
vn -0.9791 0.2012 -0.0300
vn 0.1974 0.9792 0.0477
vn 0.9718 -0.1997 0.1254
vn -0.2047 -0.9777 0.0477
vn -0.5495 -0.3626 -0.7527
vn -0.6010 0.7979 0.0464
vn 0.4458 0.2941 0.8454
vn 0.4972 -0.8664 0.0464
vt 0.312980 0.268181
vt 0.743618 0.273103
vt 0.210938 0.749647
vt 0.210938 0.749647
vt 0.210938 0.749647
s 0
f 1/1/1 14/1/1 13/1/1
f 2/1/2 14/1/2 16/1/2
f 1/1/3 13/1/3 18/1/3
f 1/1/4 18/1/4 20/1/4
f 1/1/5 20/1/5 17/1/5
f 2/1/6 16/1/6 23/1/6
f 3/1/7 15/1/7 25/1/7
f 4/1/8 19/1/8 27/1/8
f 5/1/9 21/1/9 29/1/9
f 6/1/10 22/1/10 31/1/10
f 2/1/11 23/1/11 26/1/11
f 3/1/12 25/1/12 28/1/12
f 4/1/13 27/1/13 30/1/13
f 5/1/14 29/1/14 32/1/14
f 6/1/15 31/1/15 24/1/15
f 7/1/16 33/1/16 38/1/16
f 8/1/17 34/1/17 40/1/17
f 9/1/18 35/1/18 41/1/18
f 10/1/19 36/1/19 42/1/19
f 11/1/20 37/1/20 39/1/20
f 39/1/21 42/1/21 12/1/21
f 39/1/22 37/1/22 42/1/22
f 37/1/23 10/1/23 42/1/23
f 42/1/24 41/1/24 12/1/24
f 42/1/25 36/1/25 41/1/25
f 36/1/26 9/1/26 41/1/26
f 41/1/27 40/1/27 12/1/27
f 41/1/28 35/1/28 40/1/28
f 35/1/29 8/1/29 40/1/29
f 40/1/30 38/1/30 12/1/30
f 40/1/31 34/1/31 38/1/31
f 34/1/32 7/1/32 38/1/32
f 38/1/33 39/1/33 12/1/33
f 38/1/34 33/1/34 39/1/34
f 33/1/35 11/1/35 39/1/35
f 24/1/36 37/1/36 11/1/36
f 24/1/37 31/1/37 37/1/37
f 31/1/38 10/1/38 37/1/38
f 32/1/39 36/1/39 10/1/39
f 32/1/40 29/1/40 36/1/40
f 29/1/41 9/1/41 36/1/41
f 30/1/42 35/1/42 9/1/42
f 30/1/43 27/1/43 35/1/43
f 27/1/44 8/1/44 35/1/44
f 28/1/45 34/1/45 8/1/45
f 28/1/46 25/1/46 34/1/46
f 25/1/47 7/1/47 34/1/47
f 26/1/48 33/1/48 7/1/48
f 26/1/49 23/1/49 33/1/49
f 23/1/50 11/1/50 33/1/50
f 31/1/51 32/1/51 10/1/51
f 31/1/52 22/1/52 32/1/52
f 22/1/53 5/1/53 32/1/53
f 29/1/54 30/1/54 9/1/54
f 29/1/55 21/1/55 30/1/55
f 21/1/56 4/1/56 30/1/56
f 27/1/57 28/1/57 8/1/57
f 27/1/58 19/1/58 28/1/58
f 19/1/59 3/1/59 28/1/59
f 25/1/60 26/1/60 7/1/60
f 25/1/61 15/1/61 26/1/61
f 15/1/62 2/1/62 26/1/62
f 23/1/63 24/1/63 11/1/63
f 23/1/64 16/1/64 24/1/64
f 16/1/65 6/1/65 24/1/65
f 17/1/66 22/1/66 6/1/66
f 17/1/67 20/1/67 22/1/67
f 20/1/68 5/1/68 22/1/68
f 20/1/69 21/1/69 5/1/69
f 20/1/70 18/1/70 21/1/70
f 18/1/71 4/1/71 21/1/71
f 18/1/72 19/1/72 4/1/72
f 18/1/73 13/1/73 19/1/73
f 13/1/74 3/1/74 19/1/74
f 16/1/75 17/1/75 6/1/75
f 16/1/76 14/1/76 17/1/76
f 14/1/77 1/1/77 17/1/77
f 13/1/78 15/1/78 3/1/78
f 13/1/79 14/1/79 15/1/79
f 14/1/80 2/1/80 15/1/80
f 43/1/81 44/1/81 45/1/81
f 44/1/82 43/1/82 48/1/82
f 43/1/83 45/1/83 46/1/83
f 43/1/84 46/1/84 47/1/84
f 43/1/85 47/1/85 48/1/85
f 44/1/86 48/1/86 53/1/86
f 45/1/87 44/1/87 49/1/87
f 46/1/88 45/1/88 50/1/88
f 47/1/89 46/1/89 51/1/89
f 48/1/90 47/1/90 52/1/90
f 44/1/91 53/1/91 49/1/91
f 45/1/92 49/1/92 50/1/92
f 46/1/93 50/1/93 51/1/93
f 47/1/94 51/1/94 52/1/94
f 48/1/95 52/1/95 53/1/95
f 49/1/96 53/1/96 54/1/96
f 50/1/97 49/1/97 54/1/97
f 51/1/98 50/1/98 54/1/98
f 52/1/99 51/1/99 54/1/99
f 53/1/100 52/1/100 54/1/100
f 55/2/101 56/2/101 57/2/101
f 56/2/102 55/2/102 60/2/102
f 55/2/103 57/2/103 58/2/103
f 55/2/104 58/2/104 59/2/104
f 55/2/105 59/2/105 60/2/105
f 56/2/106 60/2/106 65/2/106
f 57/2/107 56/2/107 61/2/107
f 58/2/108 57/2/108 62/2/108
f 59/2/109 58/2/109 63/2/109
f 60/2/110 59/2/110 64/2/110
f 56/2/111 65/2/111 61/2/111
f 57/2/112 61/2/112 62/2/112
f 58/2/113 62/2/113 63/2/113
f 59/2/114 63/2/114 64/2/114
f 60/2/115 64/2/115 65/2/115
f 61/2/116 65/2/116 66/2/116
f 62/2/117 61/2/117 66/2/117
f 63/2/118 62/2/118 66/2/118
f 64/2/119 63/2/119 66/2/119
f 65/2/120 64/2/120 66/2/120
f 88/3/121 89/3/121 91/3/121 98/3/121
f 106/3/122 110/3/122 107/4/122
f 91/3/123 89/3/123 94/3/123
f 106/3/124 107/3/124 103/3/124
f 101/3/125 102/5/125 109/3/125 110/3/125
f 87/3/126 97/3/126 96/3/126
f 95/3/127 92/3/127 93/5/127 96/3/127
f 86/3/128 85/3/128 84/3/128 83/3/128
f 82/3/129 81/3/129 80/3/129 79/3/129
f 99/3/130 105/3/130 104/3/130
f 87/3/131 96/3/131 93/3/131 90/3/131
f 105/5/132 100/3/132 106/5/132
f 100/3/133 101/3/133 106/3/133
f 101/3/134 110/3/134 106/3/134
f 78/3/135 77/3/135 76/3/135 75/3/135
f 67/3/136 68/3/136 69/3/136 70/3/136
f 102/3/137 99/3/137 109/3/137
f 108/3/138 104/3/138 103/3/138 107/3/138
f 100/3/139 105/3/139 99/3/139
f 99/3/140 104/3/140 108/3/140 109/3/140
f 95/3/141 98/3/141 91/3/141 92/5/141
f 97/3/142 87/3/142 88/3/142 98/3/142
f 89/3/143 90/3/143 93/3/143 94/3/143
f 88/3/144 87/3/144 79/3/144 80/3/144
f 89/3/145 88/3/145 80/3/145 81/3/145
f 90/3/146 89/3/146 81/3/146 82/3/146
f 87/3/147 90/3/147 82/3/147 79/3/147
f 92/3/148 91/3/148 75/3/148 76/3/148
f 93/3/149 92/3/149 76/3/149 77/3/149
f 94/4/150 93/3/150 77/3/150 78/3/150
f 91/3/151 94/3/151 78/5/151 75/5/151
f 72/3/152 71/3/152 95/3/152 96/3/152
f 73/3/153 72/3/153 96/3/153 97/3/153
f 74/3/154 73/3/154 97/3/154 98/3/154
f 71/3/155 74/3/155 98/3/155 95/3/155
f 71/3/156 72/3/156 100/3/156 99/3/156
f 72/3/157 73/3/157 101/3/157 100/3/157
f 73/3/158 74/3/158 102/3/158 101/3/158
f 74/3/159 71/3/159 99/3/159 102/3/159
f 68/3/160 67/3/160 103/3/160 104/3/160
f 69/3/161 68/3/161 104/3/161 105/3/161
f 70/3/162 69/5/162 105/3/162 106/3/162
f 67/3/163 70/3/163 106/5/163 103/3/163
f 108/3/164 107/3/164 83/3/164 84/3/164
f 109/3/165 108/3/165 84/3/165 85/3/165
f 110/3/166 109/3/166 85/3/166 86/3/166
f 107/3/167 110/3/167 86/3/167 83/3/167
