# Blender 4.2.0
# www.blender.org

v 1.686852 -1.003967 11.467877
v 1.709675 -3.519218 8.650308
v -2.089092 -2.089707 10.235932
v -1.134771 -1.503474 14.074207
v 2.765076 -2.470089 14.742773
v 4.355169 -4.121253 11.682778
v -1.177349 -5.988550 9.589159
v -3.631906 -4.952037 13.153068
v -0.343645 -4.152262 15.531224
v 3.519190 -6.275359 14.135140
v 2.772109 -7.090494 10.100242
v -0.153959 -7.579188 12.879424
v -1.818869 1.297316 12.596704
v 2.375457 2.709673 13.471419
v 2.158993 1.645539 10.532024
v -1.575057 -1.221738 10.724954
v -2.415266 -1.440722 13.703339
v 0.204313 0.234923 16.201273
v 5.703631 0.764779 12.083438
v 3.064522 -1.690418 10.657182
v 0.925586 -3.209167 12.452714
v 1.177178 -2.206076 15.956450
v 3.471619 -0.126159 15.990229
v 5.136445 -1.949012 13.159163
v 0.478512 6.027096 7.960698
v 0.639439 2.220538 7.435798
v -3.011273 4.037321 7.522445
v -2.640765 6.925628 10.194357
v 0.960557 6.757039 11.824474
v 3.296103 4.099867 10.014713
v -2.813991 0.357207 9.315427
v -4.646952 3.591132 11.097718
v -1.562265 5.140157 13.730892
v 1.177337 3.206828 13.750807
v 0.775240 0.057117 11.057433
v -2.601349 1.113406 13.597516
v 0.974956 0.974445 -0.031547
v 0.974956 -0.974445 0.031547
v 0.606093 -4.488936 11.540547
v 0.405249 -4.483313 11.540547
v 0.408534 -4.365989 11.703626
v 0.609378 -4.371613 11.703626
v 2.030850 -0.254576 13.036405
v 2.062771 -0.452947 13.036405
v -1.598670 4.021316 9.840976
v -1.411100 4.093342 9.840976
v -1.352972 3.941966 9.959620
v -1.540541 3.869940 9.959620
v 1.064196 -0.254578 9.567227
v 1.144916 -0.756198 9.567227
v 0.667384 -0.833043 9.722779
v 0.586663 -0.331423 9.722779
v 0.847414 -1.423808 9.139016
v 0.335819 -1.409484 9.139016
v 0.344187 -1.110634 9.554412
v 0.855781 -1.124959 9.554412
v -0.393320 -0.717247 0.009111
v -0.393320 0.342634 -0.025201
v 0.680011 -0.042170 5.089018
v 0.069483 -0.561769 5.089018
v -0.439318 0.036073 5.251604
v 0.171210 0.555671 5.251604
v 0.167008 -0.643421 5.799726
v -0.314695 -0.077420 5.953653
v 0.263317 0.414506 5.953653
v 0.968007 -0.526489 8.237505
v 0.501525 -0.923495 8.237505
v 0.112769 -0.466706 8.361731
v 0.579251 -0.069700 8.361731
v -0.530218 0.642431 3.457545
v 0.530218 0.642431 3.457545
v 0.530218 -0.417451 3.491857
v -0.530218 -0.417451 3.491857
v -0.734157 1.035553 5.162137
v -0.055030 1.296338 5.162137
v 0.155432 0.748258 5.591712
v -0.523694 0.487473 5.591712
v 0.680011 -0.042170 5.089018
v 0.069483 -0.561769 5.089018
v -0.439318 0.036073 5.251604
vn 0.0028 0.7460 -0.6659
vn -0.2495 0.9646 -0.0853
vn 0.6807 0.5492 -0.4848
vn -0.3618 0.0696 -0.9296
vn -0.0333 0.4740 0.8799
vn 0.9054 0.1141 0.4089
vn 0.7482 -0.0461 -0.6619
vn 0.0163 -0.3720 -0.9281
vn -0.6013 -0.7765 -0.1883
vn -0.0520 -0.6130 0.7884
vn -0.2040 -0.9047 -0.3739
vn 0.2891 -0.9473 0.1378
vn -0.3678 0.8155 0.4468
vn 0.3644 0.8667 -0.3406
vn -0.5171 -0.8305 -0.2069
vn -0.5519 -0.2981 0.7788
vn 0.1221 0.6851 0.7182
vn -0.3650 -0.8878 0.2804
vn 0.0557 -0.0776 0.9954
vn 0.5831 0.6537 0.4822
vn 0.1667 0.9192 0.3566
vn 0.7576 0.6514 0.0422
vn 0.2385 -0.9380 0.2514
vn -0.8330 -0.1047 -0.5433
vn 0.2923 -0.0940 0.9517
vn 0.8964 -0.4364 -0.0778
vn -0.6065 0.2364 0.7591
vn 0.8665 0.0166 0.4989
vn -0.3806 -0.5790 0.7210
vn 0.5009 -0.5632 0.6572
vn 0.0454 0.1383 -0.9893
vn -0.2434 0.9176 -0.3143
vn -0.9593 0.1026 -0.2631
vn -0.7540 0.3806 0.5354
vn -0.4308 0.5110 -0.7438
vn 0.6544 0.7239 -0.2184
vn -0.0189 -0.0426 -0.9989
vn 0.6411 0.1314 -0.7561
vn 0.4161 0.0790 -0.9059
vn -0.0820 -0.7106 -0.6988
vn -0.8448 0.4177 -0.3344
vn 0.3223 -0.8765 -0.3575
vn 0.6903 -0.3867 -0.6116
vn -0.2957 0.6689 -0.6820
vn -0.6859 0.5437 0.4837
vn 0.7463 -0.5587 -0.3617
vn -0.8668 -0.2552 -0.4284
vn 0.1361 0.9702 -0.2003
vn -0.8274 -0.5446 0.1373
vn 0.3232 0.4665 0.8234
vn -0.6850 0.1532 0.7123
vn -0.0259 -0.0264 0.9993
vn -0.2374 -0.4357 -0.8682
vn 0.8284 -0.4214 0.3691
vn 0.1769 -0.8420 -0.5096
vn 0.7842 0.3323 0.5241
vn -0.1802 0.8549 0.4865
vn 0.3253 -0.6382 0.6978
vn -0.1682 -0.9693 0.1795
vn -0.8190 0.5616 0.1179
vn 0.7149 -0.5744 0.3988
vn -0.7160 -0.6661 0.2087
vn -0.4764 -0.5842 0.6571
vn -0.7449 -0.5204 -0.4175
vn 0.1393 -0.3627 0.9214
vn -0.0227 -0.8113 0.5842
vn 0.7220 0.6657 -0.1884
vn -0.0000 -0.9959 -0.0900
vn -0.4152 -0.0668 0.9073
vn -0.2117 0.5512 0.8070
vn -0.0000 -0.0000 1.0000
vn 0.9803 -0.1260 -0.1522
vn -0.9663 0.0954 0.2390
vn -0.6671 -0.6611 0.3434
vn 0.8731 0.4730 0.1183
vn 0.8675 0.4671 0.1709
vn 0.9327 -0.3606 -0.0027
vn -0.9899 -0.1416 0.0023
vn -0.9548 -0.2707 0.1224
vn -0.3471 0.9039 -0.2500
vn -0.0000 0.9337 -0.3582
vn -0.4188 0.8913 0.1737
vn 0.3046 -0.7784 -0.5489
vn 0.1669 -0.4096 0.8969
vn 0.9519 0.1532 -0.2652
vn 0.1716 -0.9843 0.0406
vn -0.9057 -0.1457 0.3981
vn -0.1854 -0.9796 0.0770
vn -0.0172 -0.6158 -0.7877
vn -0.9997 -0.0044 0.0233
vn 0.0154 0.5511 0.8343
vn 0.9979 -0.0603 0.0233
vn -0.9992 -0.0013 -0.0392
vn 0.6383 -0.7500 -0.1737
vn -0.7573 -0.6524 0.0290
vn -0.6305 0.7408 0.2317
vn 0.7651 0.6433 0.0290
vn -0.0000 0.9955 0.0947
vn 0.9919 0.0041 0.1268
vn -0.0000 -0.9873 0.1589
vn -0.4177 0.9037 -0.0942
vn -0.2989 0.7784 -0.5520
vn 0.9226 0.3839 0.0379
vn 0.2791 -0.7267 0.6277
vn -0.9424 -0.3322 0.0379
vn -0.1458 0.9885 0.0406
vt 0.716549 0.686514
vt 0.315441 0.292789
vt 0.248226 0.789062
s 0
f 2/1/1 3/1/1 1/1/1
f 3/1/2 4/1/2 1/1/2
f 6/1/3 2/1/3 1/1/3
f 7/1/4 3/1/4 2/1/4
f 9/1/5 5/1/5 4/1/5
f 10/1/6 6/1/6 5/1/6
f 11/1/7 2/1/7 6/1/7
f 11/1/8 7/1/8 2/1/8
f 12/1/9 8/1/9 7/1/9
f 12/1/10 10/1/10 9/1/10
f 11/1/11 12/1/11 7/1/11
f 12/1/12 11/1/12 10/1/12
f 18/2/13 14/2/13 13/2/13
f 19/2/14 15/2/14 14/2/14
f 21/2/15 17/2/15 16/2/15
f 22/2/16 18/2/16 17/2/16
f 23/2/17 14/2/17 18/2/17
f 21/2/18 22/2/18 17/2/18
f 22/2/19 23/2/19 18/2/19
f 23/2/20 19/2/20 14/2/20
f 4/1/21 5/1/21 1/1/21
f 5/1/22 6/1/22 1/1/22
f 24/2/23 22/2/23 21/2/23
f 7/1/24 8/1/24 3/1/24
f 9/1/25 10/1/25 5/1/25
f 10/1/26 11/1/26 6/1/26
f 8/1/27 9/1/27 4/1/27
f 23/2/28 24/2/28 19/2/28
f 12/1/29 9/1/29 8/1/29
f 24/2/30 23/2/30 22/2/30
f 26/1/31 27/1/31 25/1/31
f 14/2/32 15/2/32 13/2/32
f 16/2/33 17/2/33 13/2/33
f 17/2/34 18/2/34 13/2/34
f 15/2/35 16/2/35 13/2/35
f 29/1/36 30/1/36 25/1/36
f 20/2/37 16/2/37 15/2/37
f 30/1/38 26/1/38 25/1/38
f 19/2/39 20/2/39 15/2/39
f 20/2/40 21/2/40 16/2/40
f 32/1/41 28/1/41 27/1/41
f 24/2/42 21/2/42 20/2/42
f 24/2/43 20/2/43 19/2/43
f 27/1/44 28/1/44 25/1/44
f 32/1/45 33/1/45 28/1/45
f 35/1/46 26/1/46 30/1/46
f 31/1/47 32/1/47 27/1/47
f 28/1/48 29/1/48 25/1/48
f 36/1/49 32/1/49 31/1/49
f 33/1/50 34/1/50 29/1/50
f 36/1/51 33/1/51 32/1/51
f 36/1/52 34/1/52 33/1/52
f 31/1/53 27/1/53 26/1/53
f 34/1/54 35/1/54 30/1/54
f 35/1/55 31/1/55 26/1/55
f 34/1/56 30/1/56 29/1/56
f 33/1/57 29/1/57 28/1/57
f 36/1/58 35/1/58 34/1/58
f 35/1/59 36/1/59 31/1/59
f 8/1/60 4/1/60 3/1/60
f 50/3/61 56/3/61 53/3/61
f 61/3/62 73/3/62 60/3/62
f 77/3/63 61/3/63 60/3/63
f 68/3/64 67/3/64 54/3/64
f 76/3/65 77/3/65 60/3/65
f 42/3/66 41/3/66 40/3/66 39/3/66
f 69/3/67 49/3/67 66/3/67
f 73/3/68 72/3/68 60/3/68
f 51/3/69 52/3/69 55/3/69
f 48/3/70 47/3/70 46/3/70 45/3/70
f 59/3/71 78/3/71 79/3/71 60/3/71
f 49/3/72 50/3/72 53/3/72 66/3/72
f 52/3/73 68/3/73 54/3/73 55/3/73
f 76/3/74 62/3/74 78/3/74 59/3/74
f 71/3/75 75/3/75 59/3/75
f 75/3/76 76/3/76 59/3/76
f 71/3/77 59/3/77 60/3/77 72/3/77
f 74/3/78 70/3/78 73/3/78 61/3/78
f 74/3/79 61/3/79 77/3/79
f 74/3/80 75/3/80 70/3/80
f 75/3/81 71/3/81 70/3/81
f 52/3/82 49/3/82 69/3/82 68/3/82
f 67/3/83 66/3/83 53/3/83 54/3/83
f 51/3/84 55/3/84 56/3/84 50/3/84
f 50/3/85 49/3/85 43/3/85 44/3/85
f 51/3/86 50/3/86 44/3/86
f 52/3/87 51/3/87 44/3/87 43/3/87
f 57/3/88 38/3/88 73/3/88
f 54/3/89 53/3/89 39/3/89 40/3/89
f 55/3/90 54/3/90 40/3/90 41/3/90
f 56/3/91 55/3/91 41/3/91 42/3/91
f 53/3/92 56/3/92 42/3/92 39/3/92
f 70/3/93 58/3/93 57/3/93 73/3/93
f 63/3/94 79/3/94 78/3/94 66/3/94 67/3/94
f 64/3/95 63/3/95 67/3/95 68/3/95
f 65/3/96 64/3/96 68/3/96 69/3/96
f 78/3/97 62/3/97 65/3/97 69/3/97 66/3/97
f 37/3/98 70/3/98 71/3/98
f 38/3/99 37/3/99 71/3/99 72/3/99
f 38/3/100 72/3/100 73/3/100
f 37/3/101 58/3/101 70/3/101
f 75/3/102 74/3/102 45/3/102 46/3/102
f 76/3/103 75/3/103 46/3/103 47/3/103
f 77/3/104 76/3/104 47/3/104 48/3/104
f 74/3/105 77/3/105 48/3/105 45/3/105
f 49/3/106 52/3/106 43/3/106
f 61/3/95 79/3/95 63/3/95 64/3/95 80/3/95 60/3/95
f 80/3/96 64/3/96 65/3/96 62/3/96
