# Blender 4.2.0
# www.blender.org

v -3.339713 -4.301861 6.195878
v -1.061134 -2.110936 7.954140
v -3.999524 -2.276764 8.673985
v -6.310680 -2.668353 6.201549
v -4.149947 -2.496005 3.719572
v -1.079091 -2.442447 4.699615
v -2.375506 0.568146 9.046455
v -5.056074 0.270817 7.834573
v -5.816690 0.415013 4.414926
v -2.285665 0.487264 3.539917
v -0.462536 0.425263 6.514524
v -3.140865 1.718655 6.484293
v 1.144536 -0.147279 7.756260
v 0.726970 2.934350 6.123934
v 1.652521 2.671288 9.746333
v 0.228486 0.027833 11.172370
v -1.733117 -1.661458 8.744315
v -1.611308 0.211279 5.677920
v -0.814659 4.768559 8.993843
v -1.088829 3.169221 12.184436
v -3.190543 0.402283 11.538367
v -4.107789 0.652051 8.017797
v -2.749658 3.281704 6.555062
v -3.897996 3.620576 10.062432
v 3.165047 -5.145437 12.007576
v 3.218449 -2.291659 10.856827
v 3.627662 -2.742252 13.871727
v 1.583397 -5.166638 14.899681
v -0.053437 -5.928686 12.429278
v 1.042354 -4.336410 9.916295
v 1.859346 -0.423749 12.889030
v 0.772606 -2.247542 15.274060
v -1.464366 -4.231792 14.399989
v -1.771955 -3.827357 11.641205
v 0.148331 -1.192785 10.173615
v -1.243888 -1.527002 13.261652
v -2.893672 -1.146945 13.057614
v -3.709379 -1.070562 16.364841
v -4.472782 1.394503 14.623537
v -2.079971 2.122485 12.826862
v 0.814835 0.065055 13.415784
v -0.633890 -1.824258 15.591417
v -3.366217 2.258287 18.071964
v -2.388983 4.204612 15.898319
v 0.880010 3.709081 15.026588
v 1.709337 0.939910 16.639648
v -1.068430 0.286990 18.671997
v -0.226723 3.639410 18.542740
v -1.328404 1.179497 9.915768
v 0.893525 -1.588551 11.863534
v 0.898473 2.275742 12.789510
v 0.859169 4.601289 9.832567
v 0.795956 2.492270 6.666242
v 0.892706 -1.605992 8.121908
v 4.028555 0.099102 13.015697
v 3.848290 3.957136 11.485310
v 4.080862 4.330175 7.870793
v 4.051142 0.272400 6.896419
v 4.157097 -2.238525 9.990959
v 6.009022 1.511269 9.875514
v 0.071194 0.947231 -0.006442
v 0.947228 -0.071237 -0.006442
v -0.071194 -0.947231 0.006442
v -0.947228 0.071237 0.006442
v 0.068601 0.648104 2.891964
v 0.650924 -0.029277 2.860721
v -0.026733 -0.612092 2.866241
v -0.609056 0.065289 2.897484
v -1.093480 1.609680 15.167796
v -0.823017 2.004943 15.311381
v -0.553943 1.711091 15.613458
v -0.824407 1.315829 15.469872
v -3.073588 -1.247018 6.111185
v -3.121618 -1.104461 6.111185
v -3.074522 -1.088594 6.253169
v -3.026492 -1.231150 6.253169
v -1.130604 1.539246 8.242855
v -1.026484 1.647821 8.242855
v -1.070151 1.689696 8.380583
v -1.174271 1.581122 8.380583
v 2.794846 1.112446 9.876564
v 2.864471 0.979098 9.876564
v 2.834352 0.963372 10.023108
v 2.764726 1.096720 10.023108
v 0.999013 -2.775969 12.613507
v 0.849719 -2.794423 12.613507
v 0.843143 -2.741217 12.754060
v 0.992437 -2.722763 12.754060
v -1.518849 1.641624 15.650527
v -1.477696 1.765088 15.725974
v -1.418575 1.679147 15.834363
v -1.459728 1.555683 15.758916
v 0.064332 0.368851 11.847300
v 0.382562 0.761541 11.841264
v 0.718034 0.441350 12.060247
v 0.354860 0.098317 12.109068
v 0.298805 0.188304 9.824742
v 0.814905 0.327037 9.870029
v 0.975470 -0.149605 9.905425
v 0.447545 -0.289014 9.888247
v 0.250592 0.336730 11.030428
v 0.734240 0.501918 11.005239
v 0.896079 -0.003625 11.096296
v 0.418486 -0.145767 11.058045
v 0.512382 0.250281 5.687818
v 0.498670 -0.420516 5.651109
v -0.118674 -0.426754 5.831796
v -0.160546 0.220791 5.754048
v 0.870287 0.195098 8.834258
v 0.899766 -0.319226 8.878815
v 0.324609 -0.327274 8.938065
v 0.237444 0.170649 8.897614
v 0.095670 0.424223 4.494861
v 0.588852 -0.113328 4.392277
v 0.014956 -0.577341 4.442419
v -0.460635 -0.055502 4.426244
v -0.744261 -0.646645 5.025679
v -0.877678 -0.127754 5.063234
v -0.762741 -0.107242 5.599407
v -0.539994 -0.613294 5.562388
v 0.443894 0.463502 8.938873
v 0.315685 0.553222 9.334734
v 0.033470 0.230191 9.321309
v 1.190268 0.434723 9.311640
v 1.396088 0.065372 9.330158
v 1.327265 0.038227 9.756141
v 1.107977 0.408579 9.733843
v 0.852166 -0.447150 11.563058
v 0.404037 -0.447076 11.552898
v 0.392266 -0.321271 11.987095
v 0.834274 -0.275029 11.949660
vn 0.2009 -0.7317 0.6514
vn 0.6617 -0.7463 0.0724
vn -0.4145 -0.7556 0.5071
vn -0.4348 -0.7894 -0.4334
vn 0.2111 -0.7556 -0.6201
vn 0.9752 -0.2205 0.0171
vn 0.2436 -0.2613 0.9340
vn -0.7227 -0.0733 0.6872
vn -0.7197 -0.2581 -0.6445
vn 0.2988 -0.2423 -0.9230
vn 0.7931 0.1482 0.5908
vn -0.4201 0.1221 0.8992
vn -0.9354 0.2772 0.2197
vn -0.2413 0.0926 -0.9660
vn 0.8450 0.1442 -0.5149
vn 0.4168 0.8693 0.2658
vn -0.3022 0.8326 0.4641
vn -0.5255 0.8371 0.1522
vn -0.1207 0.9029 -0.4127
vn 0.4242 0.8727 -0.2418
vn 0.9689 0.0002 -0.2475
vn 0.5388 -0.3362 -0.7725
vn 0.9017 -0.3458 0.2595
vn 0.5055 -0.8441 0.1788
vn 0.2655 -0.8275 -0.4948
vn -0.0958 0.2404 -0.9659
vn 0.6636 0.7391 -0.1159
vn 0.6681 0.0408 0.7429
vn -0.0261 -0.8106 0.5851
vn -0.5478 -0.7041 -0.4518
vn 0.0187 0.8470 -0.5313
vn 0.5100 0.7506 0.4201
vn 0.0720 -0.2784 0.9578
vn -0.7124 -0.6883 0.1368
vn -0.6876 -0.0479 -0.7245
vn -0.4061 0.8873 -0.2187
vn -0.1812 0.8853 0.4282
vn -0.5602 0.2404 0.7927
vn -0.9645 -0.1000 0.2442
vn -0.9021 0.2862 -0.3230
vn 0.9864 -0.0771 -0.1454
vn 0.6059 -0.3072 -0.7338
vn 0.7738 -0.4745 0.4197
vn 0.2505 -0.9594 0.1300
vn 0.1468 -0.8632 -0.4830
vn 0.2668 0.1537 -0.9514
vn 0.7988 0.6014 -0.0185
vn 0.4419 0.0077 0.8970
vn -0.3284 -0.8192 0.4703
vn -0.4866 -0.6263 -0.6090
vn 0.3883 0.7931 -0.4693
vn 0.4318 0.6107 0.6638
vn -0.2133 -0.1823 0.9598
vn -0.7728 -0.6346 -0.0069
vn -0.5316 -0.0822 -0.8430
vn -0.3400 0.9390 -0.0517
vn -0.2290 0.8208 0.5233
vn -0.5949 0.3525 0.7224
vn -0.9825 0.1345 0.1293
vn -0.8406 0.4274 -0.3327
vn -0.8831 -0.4205 -0.2081
vn -0.2470 -0.9683 -0.0386
vn -0.6165 0.0983 -0.7812
vn 0.1285 -0.1016 -0.9865
vn 0.3127 -0.8104 -0.4955
vn -0.0624 -0.8273 0.5582
vn -0.9451 -0.0667 0.3200
vn -0.5725 0.6508 -0.4988
vn 0.4247 0.3597 -0.8308
vn 0.7697 -0.6371 -0.0407
vn -0.5070 -0.3514 0.7871
vn -0.8233 0.5536 0.1255
vn -0.0248 0.8263 -0.5627
vn 0.9491 0.1130 -0.2940
vn 0.5396 -0.6571 0.5264
vn -0.1838 0.0839 0.9794
vn -0.4106 0.7633 0.4989
vn 0.1683 0.9831 0.0725
vn 0.8626 0.4214 0.2799
vn 0.6045 -0.1214 0.7873
vn -0.7521 -0.1527 0.6411
vn -0.7809 -0.6247 0.0031
vn -0.7665 0.4998 0.4033
vn -0.8017 0.5047 -0.3202
vn -0.7695 -0.2298 -0.5959
vn -0.1928 -0.9812 0.0046
vn -0.2261 -0.2267 0.9473
vn -0.1709 0.7734 0.6105
vn -0.2562 0.8068 -0.5323
vn -0.1619 -0.3337 -0.9287
vn 0.1934 -0.7723 0.6051
vn 0.1913 0.3696 0.9093
vn 0.1503 0.9824 0.1111
vn 0.2213 0.2262 -0.9486
vn 0.2088 -0.7559 -0.6205
vn 0.8442 -0.4062 0.3498
vn 0.7538 0.2724 0.5979
vn 0.7805 0.6147 0.1137
vn 0.8016 0.1340 -0.5826
vn 0.8285 -0.4206 -0.3696
vn 0.1775 -0.9825 0.0564
vn 0.1312 -0.8992 0.4174
vn -0.8948 -0.1895 -0.4042
vn -0.6938 0.5889 0.4146
vn 0.6144 -0.7755 -0.1452
vn 0.1069 -0.9940 0.0211
vn -0.5054 -0.4828 -0.7152
vn -0.8156 -0.1697 -0.5532
vn -0.5991 0.7389 -0.3084
vn -0.4723 0.8803 0.0461
vn -0.0281 0.9877 0.1538
vn -0.8779 -0.0000 0.4789
vn 0.1146 -0.9273 0.3564
vn 0.1330 0.9902 -0.0427
vn 0.8635 0.4509 0.2259
vn -0.4913 0.8680 0.0721
vn -0.3608 -0.0499 0.9313
vn 0.5380 -0.8392 0.0798
vn -0.7630 0.6153 -0.1982
vn 0.1353 -0.9867 0.0902
vn -0.7641 -0.2420 0.5980
vn -0.6608 0.6337 -0.4022
vn 0.9724 0.2200 0.0780
vn 0.9263 0.3733 -0.0501
vn 0.9975 -0.0342 0.0614
vn -0.8945 -0.3014 0.3304
vn -0.9153 -0.3316 -0.2286
vn -0.0073 -0.0063 -1.0000
vn 0.6973 0.1354 -0.7039
vn 0.1520 -0.7858 -0.5995
vn -0.1709 0.8403 0.5145
vn 0.1871 -0.1727 0.9670
vn 0.2277 0.9529 -0.2002
vn 0.3222 0.2074 0.9237
vn 0.1785 0.5903 -0.7872
vn -0.6765 0.5838 -0.4490
vn 0.7125 0.7017 0.0003
vn 0.6480 -0.6140 0.4506
vn -0.7140 -0.7001 0.0078
vn -0.2850 0.9473 -0.1465
vn 0.9491 0.3144 0.0219
vn 0.2608 -0.9567 0.1292
vn -0.9498 -0.3126 0.0075
vn 0.9929 0.0124 -0.1183
vn 0.0179 -0.9994 0.0293
vn -0.9863 -0.0973 0.1335
vn -0.0391 0.9990 0.0214
vn 0.7507 0.6566 0.0729
vn 0.6414 -0.7672 -0.0080
vn -0.7494 -0.6615 0.0276
vn -0.6514 0.7494 0.1190
vn 0.7571 0.6498 0.0682
vn 0.6506 -0.7554 0.0783
vn -0.7545 -0.6504 0.0874
vn -0.6496 0.7563 0.0775
vn -0.4051 -0.0593 -0.9123
vn -0.3814 0.9235 0.0416
vn 0.2537 0.0508 0.9659
vn 0.2389 -0.9709 -0.0181
vn 0.3143 -0.1468 -0.9379
vn 0.6271 0.7789 0.0099
vn -0.3617 0.2963 0.8840
vn -0.6669 -0.7272 -0.1628
vn 0.2823 0.1196 -0.9518
vn 0.5204 -0.8535 0.0260
vn -0.1516 -0.0432 0.9875
vn -0.3845 0.9231 -0.0080
vn 0.0281 -0.4083 -0.9124
vn -0.9841 -0.1761 0.0234
vn 0.0262 0.3101 0.9504
vn 0.9974 0.0700 0.0164
vn -0.5812 0.5871 -0.5635
vn 0.1209 0.7749 0.6204
vn 0.2194 -0.4884 0.8446
vn -0.4716 -0.8025 -0.3655
vn -0.9309 -0.3504 -0.1031
vn -0.8678 -0.4402 0.2307
vt 0.760843 0.243573
vt 0.755921 0.762799
vt 0.288373 0.253416
vt 0.261719 0.773437
s 0
f 1/1/1 2/1/1 3/1/1
f 2/1/2 1/1/2 6/1/2
f 1/1/3 3/1/3 4/1/3
f 1/1/4 4/1/4 5/1/4
f 1/1/5 5/1/5 6/1/5
f 2/1/6 6/1/6 11/1/6
f 3/1/7 2/1/7 7/1/7
f 4/1/8 3/1/8 8/1/8
f 5/1/9 4/1/9 9/1/9
f 6/1/10 5/1/10 10/1/10
f 2/1/11 11/1/11 7/1/11
f 3/1/12 7/1/12 8/1/12
f 4/1/13 8/1/13 9/1/13
f 5/1/14 9/1/14 10/1/14
f 6/1/15 10/1/15 11/1/15
f 7/1/16 11/1/16 12/1/16
f 8/1/17 7/1/17 12/1/17
f 9/1/18 8/1/18 12/1/18
f 10/1/19 9/1/19 12/1/19
f 11/1/20 10/1/20 12/1/20
f 13/2/21 14/2/21 15/2/21
f 14/2/22 13/2/22 18/2/22
f 13/2/23 15/2/23 16/2/23
f 13/2/24 16/2/24 17/2/24
f 13/2/25 17/2/25 18/2/25
f 14/2/26 18/2/26 23/2/26
f 15/2/27 14/2/27 19/2/27
f 16/2/28 15/2/28 20/2/28
f 17/2/29 16/2/29 21/2/29
f 18/2/30 17/2/30 22/2/30
f 14/2/31 23/2/31 19/2/31
f 15/2/32 19/2/32 20/2/32
f 16/2/33 20/2/33 21/2/33
f 17/2/34 21/2/34 22/2/34
f 18/2/35 22/2/35 23/2/35
f 19/2/36 23/2/36 24/2/36
f 20/2/37 19/2/37 24/2/37
f 21/2/38 20/2/38 24/2/38
f 22/2/39 21/2/39 24/2/39
f 23/2/40 22/2/40 24/2/40
f 25/2/41 26/2/41 27/2/41
f 26/2/42 25/2/42 30/2/42
f 25/2/43 27/2/43 28/2/43
f 25/2/44 28/2/44 29/2/44
f 25/2/45 29/2/45 30/2/45
f 26/2/46 30/2/46 35/2/46
f 27/2/47 26/2/47 31/2/47
f 28/2/48 27/2/48 32/2/48
f 29/2/49 28/2/49 33/2/49
f 30/2/50 29/2/50 34/2/50
f 26/2/51 35/2/51 31/2/51
f 27/2/52 31/2/52 32/2/52
f 28/2/53 32/2/53 33/2/53
f 29/2/54 33/2/54 34/2/54
f 30/2/55 34/2/55 35/2/55
f 31/2/56 35/2/56 36/2/56
f 32/2/57 31/2/57 36/2/57
f 33/2/58 32/2/58 36/2/58
f 34/2/59 33/2/59 36/2/59
f 35/2/60 34/2/60 36/2/60
f 37/3/61 38/3/61 39/3/61
f 38/3/62 37/3/62 42/3/62
f 37/3/63 39/3/63 40/3/63
f 37/3/64 40/3/64 41/3/64
f 37/3/65 41/3/65 42/3/65
f 38/3/66 42/3/66 47/3/66
f 39/3/67 38/3/67 43/3/67
f 40/3/68 39/3/68 44/3/68
f 41/3/69 40/3/69 45/3/69
f 42/3/70 41/3/70 46/3/70
f 38/3/71 47/3/71 43/3/71
f 39/3/72 43/3/72 44/3/72
f 40/3/73 44/3/73 45/3/73
f 41/3/74 45/3/74 46/3/74
f 42/3/75 46/3/75 47/3/75
f 43/3/76 47/3/76 48/3/76
f 44/3/77 43/3/77 48/3/77
f 45/3/78 44/3/78 48/3/78
f 46/3/79 45/3/79 48/3/79
f 47/3/80 46/3/80 48/3/80
f 49/1/81 50/1/81 51/1/81
f 50/1/82 49/1/82 54/1/82
f 49/1/83 51/1/83 52/1/83
f 49/1/84 52/1/84 53/1/84
f 49/1/85 53/1/85 54/1/85
f 50/1/86 54/1/86 59/1/86
f 51/1/87 50/1/87 55/1/87
f 52/1/88 51/1/88 56/1/88
f 53/1/89 52/1/89 57/1/89
f 54/1/90 53/1/90 58/1/90
f 50/1/91 59/1/91 55/1/91
f 51/1/92 55/1/92 56/1/92
f 52/1/93 56/1/93 57/1/93
f 53/1/94 57/1/94 58/1/94
f 54/1/95 58/1/95 59/1/95
f 55/1/96 59/1/96 60/1/96
f 56/1/97 55/1/97 60/1/97
f 57/1/98 56/1/98 60/1/98
f 58/1/99 57/1/99 60/1/99
f 59/1/100 58/1/100 60/1/100
f 120/4/101 115/4/101 106/4/101
f 107/4/102 120/4/102 106/4/102
f 111/4/103 123/4/103 112/4/103
f 123/4/104 97/4/104 122/4/104
f 106/4/105 115/4/105 114/4/105
f 120/4/106 117/4/106 115/4/106
f 117/4/107 116/4/107 115/4/107
f 117/4/108 118/4/108 116/4/108
f 118/4/109 113/4/109 116/4/109
f 118/4/110 108/4/110 113/4/110
f 108/4/111 105/4/111 113/4/111
f 92/4/112 91/4/112 90/4/112 89/4/112
f 88/4/113 87/4/113 86/4/113 85/4/113
f 122/4/114 127/4/114 124/4/114 121/4/114
f 84/4/115 83/4/115 82/4/115 81/4/115
f 119/4/116 108/4/116 118/4/116
f 119/4/117 120/4/117 107/4/117 108/4/117
f 126/4/118 99/4/118 110/4/118 125/4/118
f 101/4/119 93/4/119 94/4/119
f 100/4/120 111/4/120 110/4/120 99/4/120
f 93/4/121 130/4/121 96/4/121
f 80/4/122 79/4/122 78/4/122 77/4/122
f 103/4/123 102/4/123 95/4/123 131/4/123
f 105/4/124 106/4/124 114/4/124 113/4/124
f 128/4/125 103/4/125 131/4/125
f 76/4/126 75/4/126 74/4/126 73/4/126
f 104/4/127 129/4/127 101/4/127
f 61/4/128 62/4/128 63/4/128 64/4/128
f 125/4/129 110/4/129 109/4/129 124/4/129
f 104/4/130 103/4/130 128/4/130 129/4/130
f 97/4/131 98/4/131 127/4/131 122/4/131
f 130/4/132 131/4/132 95/4/132 96/4/132
f 101/4/133 94/4/133 95/4/133 102/4/133
f 99/4/134 126/4/134 127/4/134 98/4/134
f 121/4/135 124/4/135 109/4/135 112/4/135
f 94/4/136 93/4/136 69/4/136 70/4/136
f 95/4/137 94/4/137 70/4/137 71/4/137
f 96/4/138 95/4/138 71/4/138 72/4/138
f 93/4/139 96/4/139 72/4/139 69/4/139
f 101/4/140 102/4/140 98/4/140 97/4/140
f 102/4/141 103/4/141 99/4/141 98/4/141
f 103/4/142 104/4/142 100/4/142 99/4/142
f 104/4/143 101/4/143 97/4/143 100/4/143
f 106/4/144 105/4/144 109/4/144 110/4/144
f 107/4/145 106/4/145 110/4/145 111/4/145
f 108/4/146 107/4/146 111/4/146 112/4/146
f 105/4/147 108/4/147 112/4/147 109/4/147
f 113/4/148 114/4/148 66/4/148 65/4/148
f 114/4/149 115/4/149 67/4/149 66/4/149
f 115/4/150 116/4/150 68/4/150 67/4/150
f 116/4/151 113/4/151 65/4/151 68/4/151
f 62/4/152 61/4/152 65/4/152 66/4/152
f 63/4/153 62/4/153 66/4/153 67/4/153
f 64/4/154 63/4/154 67/4/154 68/4/154
f 61/4/155 64/4/155 68/4/155 65/4/155
f 118/4/156 117/4/156 73/4/156 74/4/156
f 119/4/157 118/4/157 74/4/157 75/4/157
f 120/4/158 119/4/158 75/4/158 76/4/158
f 117/4/159 120/4/159 76/4/159 73/4/159
f 121/4/160 112/4/160 77/4/160 78/4/160
f 122/4/161 121/4/161 78/4/161 79/4/161
f 123/4/162 122/4/162 79/4/162 80/4/162
f 112/4/163 123/4/163 80/4/163 77/4/163
f 125/4/164 124/4/164 81/4/164 82/4/164
f 126/4/165 125/4/165 82/4/165 83/4/165
f 127/4/166 126/4/166 83/4/166 84/4/166
f 124/4/167 127/4/167 84/4/167 81/4/167
f 129/4/168 128/4/168 85/4/168 86/4/168
f 130/4/169 129/4/169 86/4/169 87/4/169
f 131/4/170 130/4/170 87/4/170 88/4/170
f 128/4/171 131/4/171 88/4/171 85/4/171
f 70/4/172 69/4/172 89/4/172 90/4/172
f 71/4/173 70/4/173 90/4/173 91/4/173
f 72/4/174 71/4/174 91/4/174 92/4/174
f 69/4/175 72/4/175 92/4/175 89/4/175
f 129/4/176 130/4/176 93/4/176 101/4/176
f 123/4/177 111/4/177 100/4/177 97/4/177
