<svg width="16" height="16" viewBox="0 0 16 16" fill="none" xmlns="http://www.w3.org/2000/svg">
<path fill-rule="evenodd" clip-rule="evenodd" d="M8 1C8.11567 1 8.23067 1.00284 8.34495 1.00841C8.35688 1.00899 8.36879 1.00988 8.38071 1.01052C8.47093 1.01537 8.56066 1.02224 8.64994 1.0305C8.68257 1.0335 8.71525 1.03546 8.74775 1.03891C8.84445 1.04922 8.94043 1.06255 9.03591 1.07677C9.06793 1.08152 9.09973 1.08737 9.13161 1.09255C9.20102 1.10388 9.27009 1.116 9.33879 1.12936C9.37779 1.13691 9.41676 1.14429 9.45553 1.15249C9.641 1.19187 9.82373 1.2386 10.0035 1.29237C10.0666 1.31119 10.1293 1.33072 10.1917 1.35126C10.2072 1.35638 10.2225 1.36182 10.238 1.36704C12.3805 2.08968 14.0574 3.82022 14.7066 5.99549C14.7604 6.17523 14.807 6.35793 14.8465 6.54342C14.8547 6.58219 14.862 6.62115 14.8696 6.66016C14.883 6.72887 14.8951 6.79792 14.9064 6.86734C14.9116 6.89922 14.9174 6.93102 14.9222 6.96304C14.9283 7.00393 14.9336 7.04497 14.939 7.08609C14.9504 7.17326 14.9603 7.26086 14.9685 7.34901C14.9883 7.56337 15 7.78042 15 8C15 8.21923 14.9883 8.43592 14.9685 8.64994C14.9654 8.68257 14.9635 8.71525 14.96 8.74775C14.9497 8.84446 14.9364 8.94042 14.9222 9.03591C14.9174 9.06793 14.9116 9.09973 14.9064 9.13161C14.8952 9.19993 14.8838 9.268 14.8706 9.33564C14.8626 9.37749 14.8542 9.4192 14.8454 9.46079C14.8063 9.64404 14.7608 9.82477 14.7076 10.0024C14.0589 12.1786 12.3811 13.909 10.238 14.6319C10.2225 14.6371 10.2072 14.6426 10.1917 14.6477C10.1293 14.6682 10.0666 14.6877 10.0035 14.7066C9.82371 14.7604 9.64103 14.8071 9.45553 14.8465C9.41676 14.8547 9.3778 14.862 9.33879 14.8696C9.27008 14.883 9.20103 14.8951 9.13161 14.9064C9.09973 14.9116 9.06793 14.9174 9.03591 14.9222C8.94042 14.9364 8.84446 14.9497 8.74775 14.96C8.71525 14.9635 8.68257 14.9654 8.64994 14.9685C8.56065 14.9767 8.47095 14.9836 8.38071 14.9884C8.36879 14.9891 8.35689 14.99 8.34495 14.9905C8.23066 14.9961 8.11569 15 8 15C7.88396 15 7.76864 14.9961 7.654 14.9905C7.64206 14.99 7.63016 14.9891 7.61824 14.9884C7.528 14.9836 7.4383 14.9767 7.34901 14.9685C7.31638 14.9654 7.2837 14.9635 7.2512 14.96C7.15449 14.9497 7.05853 14.9364 6.96304 14.9222C6.93102 14.9174 6.89922 14.9116 6.86734 14.9064C6.79792 14.8951 6.72887 14.883 6.66016 14.8696C6.62115 14.862 6.58219 14.8547 6.54342 14.8465C6.35793 14.807 6.17523 14.7604 5.99549 14.7066C5.93237 14.6877 5.86961 14.6682 5.80724 14.6477C5.79176 14.6426 5.7764 14.6371 5.76097 14.6319C3.61819 13.9087 1.93986 12.1784 1.29132 10.0024C1.23818 9.82479 1.19263 9.64402 1.15355 9.46079C1.14472 9.41921 1.13639 9.37749 1.12831 9.33564C1.11517 9.26801 1.10371 9.19992 1.09255 9.13161C1.08737 9.09973 1.08152 9.06793 1.07677 9.03591C1.06254 8.94043 1.04924 8.84445 1.03891 8.74775C1.03546 8.71525 1.0335 8.68257 1.0305 8.64994C1.01069 8.43595 1 8.2192 1 8C1 7.78045 1.01065 7.56334 1.0305 7.34901C1.03863 7.26082 1.04962 7.1733 1.061 7.08609C1.06638 7.04502 1.07068 7.00388 1.07677 6.96304C1.08153 6.93102 1.08736 6.89922 1.09255 6.86734C1.10389 6.79794 1.11599 6.72886 1.12936 6.66016C1.13692 6.62116 1.14429 6.58219 1.15249 6.54342C1.1919 6.35796 1.23858 6.1752 1.29237 5.99549C1.94142 3.8204 3.61876 2.0899 5.76097 1.36704C5.7764 1.36182 5.79176 1.35638 5.80724 1.35126C5.8696 1.33071 5.93237 1.3112 5.99549 1.29237C6.1752 1.23858 6.35796 1.1919 6.54342 1.15249C6.58219 1.14429 6.62116 1.13692 6.66016 1.12936C6.72886 1.11599 6.79794 1.10389 6.86734 1.09255C6.89922 1.08736 6.93102 1.08153 6.96304 1.07677C7.05851 1.06254 7.15451 1.04924 7.2512 1.03891C7.2837 1.03546 7.31638 1.03351 7.34901 1.0305C7.43828 1.02223 7.52802 1.01539 7.61824 1.01052C7.63016 1.00988 7.64207 1.00899 7.654 1.00841C7.76862 1.00281 7.88398 1 8 1ZM6.38462 13.7779C6.60023 13.8381 6.8204 13.8871 7.04507 13.9231H7.46154V12.8462H6.38462V13.7779ZM8.53846 13.9231H8.95493C9.1796 13.8871 9.39977 13.8381 9.61539 13.7779V12.8462H8.53846V13.9231ZM4.46319 12.8462C4.72887 13.0404 5.0114 13.2124 5.30769 13.3615V12.8462H4.46319ZM10.6923 13.3615C10.9886 13.2124 11.2711 13.0404 11.5368 12.8462H10.6923V13.3615ZM4.23077 11.7692H5.30769V10.6923H4.23077V11.7692ZM6.38462 11.7692H7.46154V10.6923H6.38462V11.7692ZM8.53846 11.7692H9.61539V10.6923H8.53846V11.7692ZM10.6923 11.7692H11.7692V10.6923H10.6923V11.7692ZM2.63852 10.6923C2.78747 10.9883 2.95982 11.2703 3.15385 11.5358V10.6923H2.63852ZM12.8462 11.5358C13.0402 11.2703 13.2125 10.9883 13.3615 10.6923H12.8462V11.5358ZM2.07692 8.95493C2.11285 9.1795 2.16089 9.39986 2.221 9.61539H3.15385V8.53846H2.07692V8.95493ZM4.23077 9.61539H5.30769V8.53846H4.23077V9.61539ZM6.38462 9.61539H7.46154V8.53846H6.38462V9.61539ZM8.53846 9.61539H9.61539V8.53846H8.53846V9.61539ZM10.6923 9.61539H11.7692V8.53846H10.6923V9.61539ZM12.8462 9.61539H13.779C13.8391 9.39986 13.8872 9.1795 13.9231 8.95493V8.53846H12.8462V9.61539ZM2.221 6.38462C2.16098 6.59981 2.11283 6.8198 2.07692 7.04402V7.46154H3.15385V6.38462H2.221ZM4.23077 7.46154H5.30769V6.38462H4.23077V7.46154ZM6.38462 7.46154H7.46154V6.38462H6.38462V7.46154ZM8.53846 7.46154H9.61539V6.38462H8.53846V7.46154ZM10.6923 7.46154H11.7692V6.38462H10.6923V7.46154ZM12.8462 7.46154H13.9231V7.04402C13.8872 6.8198 13.839 6.59981 13.779 6.38462H12.8462V7.46154ZM3.15385 4.46319C2.95962 4.72887 2.7876 5.0114 2.63852 5.30769H3.15385V4.46319ZM4.23077 5.30769H5.30769V4.23077H4.23077V5.30769ZM6.38462 5.30769H7.46154V4.23077H6.38462V5.30769ZM8.53846 5.30769H9.61539V4.23077H8.53846V5.30769ZM10.6923 5.30769H11.7692V4.23077H10.6923V5.30769ZM12.8462 5.30769H13.3615C13.2124 5.0114 13.0404 4.72887 12.8462 4.46319V5.30769ZM5.30769 2.63747C5.01124 2.7866 4.72899 2.95953 4.46319 3.15385H5.30769V2.63747ZM7.04507 2.07692C6.8205 2.11285 6.60014 2.16089 6.38462 2.221V3.15385H7.46154V2.07692H7.04507ZM8.53846 3.15385H9.61539V2.221C9.39986 2.16089 9.1795 2.11285 8.95493 2.07692H8.53846V3.15385ZM10.6923 3.15385H11.5368C11.271 2.95953 10.9888 2.7866 10.6923 2.63747V3.15385Z" fill="white"/>
</svg>
