<svg width="17" height="17" viewBox="0 0 17 17" fill="none" xmlns="http://www.w3.org/2000/svg">
<path d="M12.9593 5.21325L8.92901 1.18292L4.89868 5.21325L5.95934 6.27391L8.17896 4.0543V6.91516C8.17896 7.24669 8.04726 7.56463 7.81284 7.79905L4.98441 10.6275C4.46869 11.1432 4.17896 11.8427 4.17896 12.572V15.2436H5.67896V12.572C5.67896 12.2405 5.81065 11.9226 6.04507 11.6881L8.8735 8.85971C8.89229 8.84092 8.91077 8.82189 8.92896 8.80263C8.94714 8.82189 8.96563 8.84092 8.98441 8.85971L11.8128 11.6881C12.0473 11.9226 12.179 12.2405 12.179 12.572V15.2436H13.679V12.572C13.679 11.8427 13.3892 11.1432 12.8735 10.6275L10.0451 7.79905C9.81065 7.56463 9.67896 7.24669 9.67896 6.91516V4.05419L11.8987 6.27391L12.9593 5.21325Z" fill="white"/>
</svg>
