<svg width="59" height="16" viewBox="0 0 59 16" fill="none" xmlns="http://www.w3.org/2000/svg">
<path d="M49.0026 0.981995V14.982H45.6895V0.981995H49.0026Z" fill="white"/>
<path d="M40.4157 7.42644L44.4561 14.982H40.84L38.4359 9.64866L36.0723 14.982H32.5571L36.4763 7.54765L32.8602 0.981995H36.4561L38.4763 5.46684L40.5975 0.981995H44.1127L40.4157 7.42644Z" fill="white"/>
<path d="M29.409 14.982L28.6817 11.9719H24.6009L23.8938 14.982H20.4595L24.6817 0.981995H28.7019L32.9241 14.982H29.409ZM25.1665 9.56785H28.116L26.6413 3.38604L25.1665 9.56785Z" fill="white"/>
<path d="M21.7071 0.981995L21.3838 3.52745H17.9293V14.982H14.6162V3.52745H11V0.981995H21.7071Z" fill="white"/>
</svg>
