<svg width="59" height="16" viewBox="0 0 59 16" fill="none" xmlns="http://www.w3.org/2000/svg">
<path d="M35.1686 1.06C38.4558 1.06 40.2182 3.55505 40.2182 8.0501C40.2182 12.5253 38.4558 15.06 35.1686 15.06C31.8815 15.06 30.1191 12.5253 30.1191 8.0501C30.1191 3.55505 31.8815 1.06 35.1686 1.06ZM35.1686 3.37683C33.8617 3.37683 33.3271 4.50554 33.3271 8.0501C33.3271 11.5947 33.8617 12.7432 35.1686 12.7432C36.4558 12.7432 37.0102 11.6739 37.0102 8.0501C37.0102 4.40653 36.4558 3.37683 35.1686 3.37683Z" fill="white"/>
<path d="M23.8119 1.06C26.703 1.06 28.2673 2.58475 28.2673 4.46594C28.2673 6.0897 27.297 7.17881 25.6535 7.65406C27.3168 7.83228 28.703 8.82237 28.703 10.9412C28.703 13.1788 26.901 15.06 23.5941 15.06C21.5743 15.06 20.0495 14.3075 19 13.0402L20.6832 11.3966C21.5743 12.2877 22.3663 12.6838 23.4158 12.6838C24.6436 12.6838 25.495 11.9709 25.495 10.7432C25.495 9.33723 24.7228 8.82237 23.3168 8.82237H22.2079L22.5446 6.66396H23.3168C24.505 6.66396 25.2376 6.0303 25.2376 4.92138C25.2376 3.95109 24.5446 3.37683 23.4554 3.37683C22.4653 3.37683 21.6337 3.77287 20.8416 4.54515L19.297 2.86198C20.5446 1.67386 22.0297 1.06 23.8119 1.06Z" fill="white"/>
</svg>
