<svg width="59" height="16" viewBox="0 0 59 16" fill="none" xmlns="http://www.w3.org/2000/svg">
<path d="M54.7404 14.6726L52.0059 9.56948H50.7734V14.6726H47.6152V1.32739H51.9866C55.607 1.32739 57.4749 2.61763 57.4749 5.39067C57.4749 7.14307 56.6469 8.20222 54.9137 8.99177L58.303 14.6726H54.7404ZM50.7734 3.54197V7.39342H52.1022C53.4887 7.39342 54.2205 6.79644 54.2205 5.39067C54.2205 4.10043 53.4694 3.54197 51.9096 3.54197H50.7734Z" fill="white"/>
<path d="M45.6633 1.32739L45.336 3.58049H40.6372V6.77719H44.739V8.99177H40.6372V12.4003H45.6633V14.6726H37.479V1.32739H45.6633Z" fill="white"/>
<path d="M31.8173 14.6726V8.95325H27.8117V14.6726H24.6536V1.32739H27.8117V6.48833H31.8173V1.32739H34.9754V14.6726H31.8173Z" fill="white"/>
<path d="M23.3816 1.32739L23.0735 3.7538H19.7805V14.6726H16.6223V3.7538H13.1753V1.32739H23.3816Z" fill="white"/>
<path d="M7.00825 1C10.7827 1 13.0358 3.54195 13.0358 7.99037C13.0358 12.3618 10.7827 15 7.00825 15C3.2531 15 1 12.4388 1 7.99037C1 3.63824 3.2531 1 7.00825 1ZM7.00825 3.31087C5.23659 3.31087 4.31224 4.62036 4.31224 7.99037C4.31224 11.3796 5.2751 12.6891 7.00825 12.6891C8.81843 12.6891 9.72352 11.3796 9.72352 7.99037C9.72352 4.62036 8.79918 3.31087 7.00825 3.31087Z" fill="white"/>
</svg>
