<svg width="59" height="16" viewBox="0 0 59 16" fill="none" xmlns="http://www.w3.org/2000/svg">
<path d="M41.6106 1C43.6518 1 45.0576 1.59697 46.2323 2.71389L44.7687 4.42779C43.8444 3.67675 42.92 3.31087 41.8416 3.31087C40.744 3.31087 40.0507 3.77304 40.0507 4.62036C40.0507 5.46768 40.5514 5.81431 42.6312 6.46905C45.1539 7.27785 46.5982 8.31774 46.5982 10.7827C46.5982 13.2669 44.6339 15 41.3024 15C38.9916 15 37.3355 14.1527 36.2378 13.0935L37.8361 11.3411C38.8183 12.1692 39.8774 12.6506 41.2062 12.6506C42.5156 12.6506 43.3245 12.0344 43.3245 11.0138C43.3245 10.0316 42.8238 9.58872 40.8788 8.99175C37.8939 8.0674 36.7963 6.83494 36.7963 4.85144C36.7963 2.50206 38.8375 1 41.6106 1Z" fill="white"/>
<path d="M35.1108 1.32736V10.2435C35.1108 12.9395 33.3776 15 29.8921 15C26.4065 15 24.6926 13.055 24.6926 10.2435V1.32736H27.8508V10.1087C27.8508 11.8225 28.467 12.6506 29.8921 12.6506C31.3364 12.6506 31.9526 11.8225 31.9526 10.1087V1.32736H35.1108Z" fill="white"/>
<path d="M20.1059 7.60522C21.5887 7.89407 23.11 8.62585 23.11 10.7827C23.11 13.8253 20.6451 14.6726 17.2944 14.6726H13V1.32736H16.7744C20.3563 1.32736 22.5516 2.23245 22.5516 4.73589C22.5516 6.43053 21.3384 7.31636 20.1059 7.60522ZM17.0825 3.5612H16.1582V6.66161H17.3329C18.6424 6.66161 19.3356 6.16092 19.3356 5.04401C19.3356 3.92709 18.6039 3.5612 17.0825 3.5612ZM17.3136 12.381C18.7964 12.381 19.8556 12.0729 19.8556 10.6093C19.8556 9.26134 18.912 8.76065 17.5447 8.76065H16.1582V12.381H17.3136Z" fill="white"/>
</svg>
