<svg width="59" height="16" viewBox="0 0 59 16" fill="none" xmlns="http://www.w3.org/2000/svg">
<path d="M48.2584 1C51.9957 1 55.5311 2.15152 55.5311 7.92929C55.5311 13.5657 52.1372 15 48.5614 15H44.3594V1H48.2584ZM48.723 3.40404H47.6725V12.596H48.7634C50.7634 12.596 52.0968 11.6465 52.0968 7.92929C52.0968 4.17172 50.6624 3.40404 48.723 3.40404Z" fill="white"/>
<path d="M37.3151 1V12.3737H42.7696L42.4262 15H34.002V1H37.3151Z" fill="white"/>
<path d="M31.954 1L31.6106 3.36364H26.6813V6.71717H30.9843V9.0404H26.6813V12.6162H31.954V15H23.3682V1H31.954Z" fill="white"/>
<path d="M20.7626 1V15H17.4495V1H20.7626Z" fill="white"/>
<path d="M16.2828 1L11.798 9.74747V15H8.48485V9.76768L4 1H7.61616L10.202 7.16162L12.7879 1H16.2828Z" fill="white"/>
</svg>
