<svg width="59" height="16" viewBox="0 0 59 16" fill="none" xmlns="http://www.w3.org/2000/svg">
<path d="M47.0358 1.32736C50.4828 1.32736 52.6011 2.7524 52.6011 5.67949C52.6011 8.77991 50.4058 10.2242 47.3246 10.2242H45.8804V14.6726H42.7222V1.32736H47.0358ZM47.055 7.95185C48.4801 7.95185 49.3467 7.35487 49.3467 5.67949C49.3467 4.25446 48.5571 3.58046 46.9973 3.58046H45.8804V7.95185H47.055Z" fill="white"/>
<path d="M34.7998 1C38.5742 1 40.8273 3.54195 40.8273 7.99037C40.8273 12.3618 38.5742 15 34.7998 15C31.0446 15 28.7915 12.4388 28.7915 7.99037C28.7915 3.63824 31.0446 1 34.7998 1ZM34.7998 3.31087C33.0281 3.31087 32.1037 4.62036 32.1037 7.99037C32.1037 11.3796 33.0666 12.6891 34.7998 12.6891C36.6099 12.6891 37.515 11.3796 37.515 7.99037C37.515 4.62036 36.5907 3.31087 34.7998 3.31087Z" fill="white"/>
<path d="M28.8128 1.32736L28.5047 3.75377H25.2117V14.6726H22.0535V3.75377H18.6064V1.32736H28.8128Z" fill="white"/>
<path d="M13.3728 1C15.414 1 16.8198 1.59697 17.9945 2.71389L16.5309 4.42779C15.6066 3.67675 14.6823 3.31087 13.6039 3.31087C12.5062 3.31087 11.8129 3.77304 11.8129 4.62036C11.8129 5.46768 12.3136 5.81431 14.3934 6.46905C16.9161 7.27785 18.3604 8.31774 18.3604 10.7827C18.3604 13.2669 16.3961 15 13.0646 15C10.7538 15 9.09766 14.1527 8 13.0935L9.59835 11.3411C10.5805 12.1692 11.6396 12.6506 12.9684 12.6506C14.2779 12.6506 15.0867 12.0344 15.0867 11.0138C15.0867 10.0316 14.586 9.58872 12.641 8.99175C9.65612 8.0674 8.55846 6.83494 8.55846 4.85144C8.55846 2.50206 10.5997 1 13.3728 1Z" fill="white"/>
</svg>
