<svg width="16" height="16" viewBox="0 0 16 16" fill="none" xmlns="http://www.w3.org/2000/svg">
<path d="M13.3333 4V2.33333C13.3333 2.06812 13.228 1.81376 13.0404 1.62623C12.8529 1.43869 12.5985 1.33333 12.3333 1.33333H3.66667C3.40145 1.33333 3.1471 1.43869 2.95956 1.62623C2.77202 1.81376 2.66667 2.06812 2.66667 2.33333V4H2V6.66667H2.66667V14C2.66667 14.1768 2.7369 14.3464 2.86193 14.4714C2.98695 14.5964 3.15652 14.6667 3.33333 14.6667H4.66667C4.84348 14.6667 5.01305 14.5964 5.13807 14.4714C5.2631 14.3464 5.33333 14.1768 5.33333 14V13.3333H10.6667V14C10.6667 14.1768 10.7369 14.3464 10.8619 14.4714C10.987 14.5964 11.1565 14.6667 11.3333 14.6667H12.6667C12.8435 14.6667 13.013 14.5964 13.1381 14.4714C13.2631 14.3464 13.3333 14.1768 13.3333 14V6.66667H14V4H13.3333ZM4 2.66667H12V4H4V2.66667ZM4 5.33333H12V9.33333H4V5.33333ZM6 12H4.33333C4.22984 11.9224 4.14583 11.8217 4.08798 11.706C4.03012 11.5903 4 11.4627 4 11.3333C4 11.204 4.03012 11.0764 4.08798 10.9607C4.14583 10.8449 4.22984 10.7443 4.33333 10.6667H6V12ZM10 10.6667H11.6667C11.7702 10.7443 11.8542 10.8449 11.912 10.9607C11.9699 11.0764 12 11.204 12 11.3333C12 11.4627 11.9699 11.5903 11.912 11.706C11.8542 11.8217 11.7702 11.9224 11.6667 12H10V10.6667Z" fill="white"/>
</svg>
