<svg width="17" height="17" viewBox="0 0 17 17" fill="none" xmlns="http://www.w3.org/2000/svg">
<path d="M5.86785 1.45924L1.33752 5.98957L5.86786 10.5199L6.92851 9.45924L4.20884 6.73956L6.92851 6.73961C7.61887 6.73961 8.17851 7.29926 8.17851 7.98961V14.9896H9.67851V7.98961C9.67851 6.47083 8.4473 5.23961 6.92851 5.23961L4.20885 5.23956L6.92851 2.5199L5.86785 1.45924Z" fill="white"/>
<path d="M11.9901 1.45924L16.5204 5.98957L11.9901 10.5199L10.9294 9.45924L13.6491 6.73956L10.9294 6.73961C10.239 6.73961 9.6794 7.29926 9.6794 7.98961V14.9896H8.1794V7.98961C8.1794 6.47083 9.41061 5.23961 10.9294 5.23961L13.6491 5.23956L10.9294 2.5199L11.9901 1.45924Z" fill="white"/>
</svg>
