<svg width="20" height="26" viewBox="0 0 20 26" fill="none" xmlns="http://www.w3.org/2000/svg">
<path d="M10 1.5C14.6756 1.51543 18.4999 5.32767 18.5 10.1357C18.5 11.4064 18.4904 12.7501 17.9199 14.3682C17.349 15.9874 16.2014 17.919 13.8652 20.3047L13.8643 20.3057L10 24.2822L6.13574 20.3057L6.13477 20.3037C3.79877 17.9181 2.65104 15.9874 2.08008 14.3682C1.50959 12.7501 1.5 11.4064 1.5 10.1357C1.50002 5.32762 5.32436 1.51543 10 1.5Z" fill="#4C3D77" stroke="#927DC4"/>
<path d="M14.5 10.5H10V8.5H13.5C13.7652 8.5 14.0196 8.60536 14.2071 8.79289C14.3946 8.98043 14.5 9.23478 14.5 9.5V10.5ZM7 10.5V9.5C7 9.23478 7.10536 8.98043 7.29289 8.79289C7.48043 8.60536 7.73478 8.5 8 8.5C8.26522 8.5 8.51957 8.60536 8.70711 8.79289C8.89464 8.98043 9 9.23478 9 9.5V10.5H7ZM15 11.875C14.9987 11.7759 14.9588 11.6813 14.8887 11.6113C14.8187 11.5412 14.7241 11.5013 14.625 11.5H6V7.5H5V15H6V13.5H14V15H15V11.875Z" fill="#D6D6D6"/>
</svg>
