<svg width="20" height="26" viewBox="0 0 20 26" fill="none" xmlns="http://www.w3.org/2000/svg">
<path d="M10 1.5C14.6756 1.51543 18.4999 5.32767 18.5 10.1357C18.5 11.4064 18.4904 12.7501 17.9199 14.3682C17.349 15.9874 16.2014 17.919 13.8652 20.3047L13.8643 20.3057L10 24.2822L6.13574 20.3057L6.13477 20.3037C3.79877 17.9181 2.65104 15.9874 2.08008 14.3682C1.50959 12.7501 1.5 11.4064 1.5 10.1357C1.50002 5.32762 5.32436 1.51543 10 1.5Z" fill="#3E495A" stroke="#8D9FB5"/>
<path d="M7 10.8125L14.9671 6.91855C15.1787 6.82121 15.3167 6.61228 15.3232 6.37948C15.3329 6.03473 15.0561 5.75 14.7112 5.75H13.6103C13.2504 5.75 12.8958 5.83632 12.5762 6.00172L10.9375 6.875L6.25 5.75L5.125 6.5L8.5 8.375L7.375 9.125L5.5 8.9375L4.75 9.5L7 10.8125Z" fill="#D6D6D6"/>
<path d="M13 11.75V10.25H10.375V11.75H13Z" fill="#D6D6D6"/>
<path d="M13.75 16.25H12.625L12.625 15.5H7.375V16.25H6.25V14.75H13.75V16.25Z" fill="#D6D6D6"/>
<path d="M7 14H9.625V12.5H7V14Z" fill="#D6D6D6"/>
<path d="M13 14V12.5H10.375V14H13Z" fill="#D6D6D6"/>
</svg>
