<svg width="20" height="26" viewBox="0 0 20 26" fill="none" xmlns="http://www.w3.org/2000/svg">
<path d="M10 1.5C14.6756 1.51543 18.4999 5.32767 18.5 10.1357C18.5 11.4064 18.4904 12.7501 17.9199 14.3682C17.349 15.9874 16.2014 17.919 13.8652 20.3047L13.8643 20.3057L10 24.2822L6.13574 20.3057L6.13477 20.3037C3.79877 17.9181 2.65104 15.9874 2.08008 14.3682C1.50959 12.7501 1.5 11.4064 1.5 10.1357C1.50002 5.32762 5.32436 1.51543 10 1.5Z" fill="#4E596F" stroke="#717C95"/>
<path d="M8.875 9.875H11.125V10.625H8.875V9.875ZM15 7.5V8.5C15 8.89782 14.842 9.27936 14.5607 9.56066C14.2794 9.84196 13.8978 10 13.5 10H13V16H7V10H6.5C6.10218 10 5.72064 9.84196 5.43934 9.56066C5.15804 9.27936 5 8.89782 5 8.5V7.5C5 7.10218 5.15804 6.72064 5.43934 6.43934C5.72064 6.15804 6.10218 6 6.5 6H13.5C13.8978 6 14.2794 6.15804 14.5607 6.43934C14.842 6.72064 15 7.10218 15 7.5ZM12 13H8V13.5L9 14.5H9.5V14H12V13ZM12 9.5C12 9.36739 11.9473 9.24021 11.8536 9.14645C11.7598 9.05268 11.6326 9 11.5 9H8.5C8.36739 9 8.24021 9.05268 8.14645 9.14645C8.05268 9.24021 8 9.36739 8 9.5V11C8 11.1326 8.05268 11.2598 8.14645 11.3536C8.24021 11.4473 8.36739 11.5 8.5 11.5H11.5C11.6326 11.5 11.7598 11.4473 11.8536 11.3536C11.9473 11.2598 12 11.1326 12 11V9.5ZM14 7H6V9H7V8H13V9H14V7Z" fill="#D6D6D6"/>
</svg>
