<svg width="20" height="26" viewBox="0 0 20 26" fill="none" xmlns="http://www.w3.org/2000/svg">
<path d="M10 1.5C14.6756 1.51543 18.4999 5.32767 18.5 10.1357C18.5 11.4064 18.4904 12.7501 17.9199 14.3682C17.349 15.9874 16.2014 17.919 13.8652 20.3047L13.8643 20.3057L10 24.2822L6.13574 20.3057L6.13477 20.3037C3.79877 17.9181 2.65104 15.9874 2.08008 14.3682C1.50959 12.7501 1.5 11.4064 1.5 10.1357C1.50002 5.32762 5.32436 1.51543 10 1.5Z" fill="#195657" stroke="#499D9E"/>
<path d="M15 9.69C15.0027 9.79375 14.9849 9.89701 14.9476 9.99388C14.9103 10.0907 14.8544 10.1793 14.7828 10.2545C14.7113 10.3298 14.6257 10.3902 14.5309 10.4323C14.436 10.4744 14.3338 10.4974 14.23 10.5H13C12.898 10.4997 12.7971 10.4787 12.7035 10.4383C12.6098 10.3979 12.5253 10.339 12.455 10.265L11.925 9.69L11.38 10.265C11.3098 10.339 11.2252 10.3979 11.1316 10.4383C11.0379 10.4787 10.937 10.4997 10.835 10.5H9.16501C9.06301 10.4997 8.96213 10.4787 8.86845 10.4383C8.77478 10.3979 8.69027 10.339 8.62001 10.265L8.07501 9.69L7.53502 10.265C7.46593 10.3378 7.38303 10.396 7.29117 10.4364C7.19931 10.4767 7.10033 10.4983 7.00002 10.5H5.77002C5.66626 10.4974 5.56403 10.4744 5.46918 10.4323C5.37432 10.3902 5.28869 10.3298 5.21718 10.2545C5.14568 10.1793 5.08969 10.0907 5.05243 9.99388C5.01517 9.89701 4.99736 9.79375 5.00002 9.69C6.04502 8.155 7.14502 7 9.52501 7H9.73501V6.25H10.235V7H10.5C12.855 7 13.955 8.155 15 9.69ZM9.61501 11.5L9.50001 15.5H10.5L10.385 11.5H9.61501Z" fill="#D6D6D6"/>
</svg>
