<svg width="20" height="26" viewBox="0 0 20 26" fill="none" xmlns="http://www.w3.org/2000/svg">
<path d="M10 1.5C14.6756 1.51543 18.4999 5.32767 18.5 10.1357C18.5 11.4064 18.4904 12.7501 17.9199 14.3682C17.349 15.9874 16.2014 17.919 13.8652 20.3047L13.8643 20.3057L10 24.2822L6.13574 20.3057L6.13477 20.3037C3.79877 17.9181 2.65104 15.9874 2.08008 14.3682C1.50959 12.7501 1.5 11.4064 1.5 10.1357C1.50002 5.32762 5.32436 1.51543 10 1.5Z" fill="#8C2B72" stroke="#DD70BB"/>
<path d="M13.68 15.2035C13.4878 15.8103 12.9201 16.25 12.2498 16.25C7.96955 16.25 4.74976 13.0302 4.74976 8.75C4.74976 8.07964 5.1895 7.51198 5.79627 7.31977L4.94409 6.04151C4.86102 5.9169 4.95035 5.75 5.1001 5.75L7.39941 5.75C7.54916 5.75 7.63849 5.9169 7.55542 6.04151L6.70324 7.31977C7.31001 7.51198 7.74976 8.07964 7.74976 8.75C7.74976 11.3734 9.6264 13.25 12.2498 13.25C12.9201 13.25 13.4878 13.6897 13.68 14.2965L14.9582 13.4443C15.0829 13.3613 15.2498 13.4506 15.2498 13.6003V15.8997C15.2498 16.0494 15.0829 16.1387 14.9582 16.0557L13.68 15.2035Z" fill="#D6D6D6"/>
</svg>
