<svg width="20" height="26" viewBox="0 0 20 26" fill="none" xmlns="http://www.w3.org/2000/svg">
<path d="M10 1.5C14.6756 1.51543 18.4999 5.32767 18.5 10.1357C18.5 11.4064 18.4904 12.7501 17.9199 14.3682C17.349 15.9874 16.2014 17.919 13.8652 20.3047L13.8643 20.3057L10 24.2822L6.13574 20.3057L6.13477 20.3037C3.79877 17.9181 2.65104 15.9874 2.08008 14.3682C1.50959 12.7501 1.5 11.4064 1.5 10.1357C1.50002 5.32762 5.32436 1.51543 10 1.5Z" fill="#8C2B72" stroke="#DD70BB"/>
<path d="M14.95 9.875L13.45 7.85C13.15 7.475 12.7 7.25 12.25 7.25H7.75C7.3 7.25 6.85 7.475 6.55 7.85L5.05 9.875C4.825 10.1 4.75 10.4 4.75 10.775V13.25C4.75 14.075 5.425 14.75 6.25 14.75H7.75L8.5 13.625H11.5L12.25 14.75H13.75C14.575 14.75 15.25 14.075 15.25 13.25V10.775C15.25 10.4 15.175 10.1 14.95 9.875ZM7 13.25C6.55 13.25 6.25 12.95 6.25 12.5C6.25 12.05 6.55 11.75 7 11.75C7.45 11.75 7.75 12.05 7.75 12.5C7.75 12.95 7.45 13.25 7 13.25ZM6.25 10.25V10.1L7.225 8.825C7.45 8.525 7.75 8.375 8.125 8.375H11.875C12.25 8.375 12.55 8.525 12.775 8.825L13.75 10.1V10.25H6.25ZM13 13.25C12.55 13.25 12.25 12.95 12.25 12.5C12.25 12.05 12.55 11.75 13 11.75C13.45 11.75 13.75 12.05 13.75 12.5C13.75 12.95 13.45 13.25 13 13.25Z" fill="#D6D6D6"/>
</svg>
