<svg width="20" height="26" viewBox="0 0 20 26" fill="none" xmlns="http://www.w3.org/2000/svg">
<path d="M10 1.5C14.6756 1.51543 18.4999 5.32767 18.5 10.1357C18.5 11.4064 18.4904 12.7501 17.9199 14.3682C17.349 15.9874 16.2014 17.919 13.8652 20.3047L13.8643 20.3057L10 24.2822L6.13574 20.3057L6.13477 20.3037C3.79877 17.9181 2.65104 15.9874 2.08008 14.3682C1.50959 12.7501 1.5 11.4064 1.5 10.1357C1.50002 5.32762 5.32436 1.51543 10 1.5Z" fill="#3E495A" stroke="#8D9FB5"/>
<path fill-rule="evenodd" clip-rule="evenodd" d="M14.051 8.75L10.375 6.2993V5.75H9.625V6.29931L5.94896 8.75H4.75V15.5H7V14.75H13V15.5H15.25V8.75H14.051ZM10.375 8V7.20069L12.699 8.75H7.30104L9.625 7.2007V8H10.375ZM10.375 13.25H9.625V10.25H10.375V13.25ZM11.125 13.25V10.25H11.875V13.25H11.125ZM13.375 13.25H12.625V10.25H13.375V13.25ZM6.625 13.25V10.25H7.375V13.25H6.625ZM8.875 13.25H8.125V10.25H8.875V13.25Z" fill="#D6D6D6"/>
</svg>
