<svg width="20" height="26" viewBox="0 0 20 26" fill="none" xmlns="http://www.w3.org/2000/svg">
<path d="M10 1.5C14.6756 1.51543 18.4999 5.32767 18.5 10.1357C18.5 11.4064 18.4904 12.7501 17.9199 14.3682C17.349 15.9874 16.2014 17.919 13.8652 20.3047L13.8643 20.3057L10 24.2822L6.13574 20.3057L6.13477 20.3037C3.79877 17.9181 2.65104 15.9874 2.08008 14.3682C1.50959 12.7501 1.5 11.4064 1.5 10.1357C1.50002 5.32762 5.32436 1.51543 10 1.5Z" fill="#865627" stroke="#D69962"/>
<path d="M11.5 15H10.5C10.5 15 10.5 13.265 10.5 12.65C10.4997 12.3956 10.5962 12.1507 10.77 11.965L14.5 8H8.72505L6.72505 6L6.13505 6.63L7.50005 8H5.30005L9.21005 11.95C9.39479 12.1363 9.49894 12.3877 9.50005 12.65C9.50005 13.285 9.50005 15 9.50005 15H8.50005C8.23483 15 7.98048 15.1054 7.79294 15.2929C7.60541 15.4804 7.50005 15.7348 7.50005 16H12.5C12.5 15.7348 12.3947 15.4804 12.2072 15.2929C12.0196 15.1054 11.7653 15 11.5 15ZM10.5 11C10.3419 10.9988 10.1863 10.9602 10.0459 10.8872C9.90563 10.8142 9.78464 10.7089 9.69289 10.5801C9.60114 10.4513 9.54127 10.3025 9.51817 10.146C9.49508 9.98956 9.50943 9.82985 9.56005 9.68C9.62658 9.48299 9.75288 9.31163 9.92136 9.18975C10.0898 9.06787 10.2921 9.00154 10.5 9C10.6727 8.99716 10.8427 9.04242 10.991 9.13073C11.1394 9.21904 11.2602 9.3469 11.34 9.5C11.4268 9.65012 11.473 9.82021 11.4742 9.99359C11.4754 10.167 11.4314 10.3377 11.3467 10.4889C11.262 10.6402 11.1394 10.7669 10.991 10.8565C10.8425 10.9461 10.6734 10.9955 10.5 11Z" fill="#D6D6D6"/>
</svg>
