<svg width="20" height="26" viewBox="0 0 20 26" fill="none" xmlns="http://www.w3.org/2000/svg">
<path d="M10 1.5C14.6756 1.51543 18.4999 5.32767 18.5 10.1357C18.5 11.4064 18.4904 12.7501 17.9199 14.3682C17.349 15.9874 16.2014 17.919 13.8652 20.3047L13.8643 20.3057L10 24.2822L6.13574 20.3057L6.13477 20.3037C3.79877 17.9181 2.65104 15.9874 2.08008 14.3682C1.50959 12.7501 1.5 11.4064 1.5 10.1357C1.50002 5.32762 5.32436 1.51543 10 1.5Z" fill="#8C2B72" stroke="#DD70BB"/>
<path d="M4.75 7.0625H6.36465C6.45631 7.0625 6.53453 7.12876 6.5496 7.21917L7.4657 12.7158C7.57118 13.3486 8.11874 13.8125 8.76034 13.8125H13.75V12.6875H8.76034C8.66869 12.6875 8.59046 12.6212 8.5754 12.5308L8.38276 11.375H13.75C14.1642 11.375 14.5 11.0392 14.5 10.625V8H7.82026L7.6593 7.03423C7.55382 6.40135 7.00626 5.9375 6.36465 5.9375H4.75V7.0625Z" fill="#D6D6D6"/>
<path d="M13.75 15.3125C13.75 15.8303 13.3303 16.25 12.8125 16.25C12.2947 16.25 11.875 15.8303 11.875 15.3125C11.875 14.7947 12.2947 14.375 12.8125 14.375C13.3303 14.375 13.75 14.7947 13.75 15.3125Z" fill="#D6D6D6"/>
<path d="M8.6875 16.25C9.20527 16.25 9.625 15.8303 9.625 15.3125C9.625 14.7947 9.20527 14.375 8.6875 14.375C8.16973 14.375 7.75 14.7947 7.75 15.3125C7.75 15.8303 8.16973 16.25 8.6875 16.25Z" fill="#D6D6D6"/>
</svg>
