<svg width="20" height="26" viewBox="0 0 20 26" fill="none" xmlns="http://www.w3.org/2000/svg">
<path d="M10 1.5C14.6756 1.51543 18.4999 5.32767 18.5 10.1357C18.5 11.4064 18.4904 12.7501 17.9199 14.3682C17.349 15.9874 16.2014 17.919 13.8652 20.3047L13.8643 20.3057L10 24.2822L6.13574 20.3057L6.13477 20.3037C3.79877 17.9181 2.65104 15.9874 2.08008 14.3682C1.50959 12.7501 1.5 11.4064 1.5 10.1357C1.50002 5.32762 5.32436 1.51543 10 1.5Z" fill="#4E596F" stroke="#717C95"/>
<path d="M7.39448 6.5H9.42045V8.66816L11.4464 7.84998L11.9529 8.75L9.42045 9.875V10.9182L11.4464 10.1L11.9529 10.9692L9.42045 11.9818V13.7L10.4334 13.7C11.3242 13.7 12.1777 13.1927 12.64 12.3222L14.2321 13.025C13.4979 14.4075 12.2465 15.4968 10.4413 15.5C10.0536 15.5 8.73707 15.4998 7.39448 15.5V12.8L6.38149 13.25L5.87503 12.35L7.39448 11.7364V10.55L6.38149 11L5.875 10.1L7.39448 9.48636V6.5Z" fill="#D6D6D6"/>
</svg>
