<svg width="20" height="26" viewBox="0 0 20 26" fill="none" xmlns="http://www.w3.org/2000/svg">
<path d="M10 1.5C14.6756 1.51543 18.4999 5.32767 18.5 10.1357C18.5 11.4064 18.4904 12.7501 17.9199 14.3682C17.349 15.9874 16.2014 17.919 13.8652 20.3047L13.8643 20.3057L10 24.2822L6.13574 20.3057L6.13477 20.3037C3.79877 17.9181 2.65104 15.9874 2.08008 14.3682C1.50959 12.7501 1.5 11.4064 1.5 10.1357C1.50002 5.32762 5.32436 1.51543 10 1.5Z" fill="#4E596F" stroke="#717C95"/>
<path fill-rule="evenodd" clip-rule="evenodd" d="M13.375 10.625V11.9375H14.5V13.0625H13.375V15.5H10.7331L9.84088 13.0625H8.3125V15.5H6.625V13.0625H5.5V11.9375H6.625V10.625H5.5V9.5H6.625V6.5H9.20365L10.2722 9.5H11.6875V6.5H13.375V9.5H14.5V10.625H13.375ZM11.7216 10.625L11.7812 11.9375H11.1404L10.6729 10.625H11.7216ZM8.94862 10.625L9.42907 11.9375H8.30312L8.2375 10.625H8.94862ZM8.53681 9.5L8.125 8.375L8.18125 9.5H8.53681ZM11.5411 13.0625H11.8324L11.875 14L11.5411 13.0625Z" fill="#D6D6D6"/>
</svg>
