<svg width="20" height="26" viewBox="0 0 20 26" fill="none" xmlns="http://www.w3.org/2000/svg">
<path d="M10 1.5C14.6756 1.51543 18.4999 5.32767 18.5 10.1357C18.5 11.4064 18.4904 12.7501 17.9199 14.3682C17.349 15.9874 16.2014 17.919 13.8652 20.3047L13.8643 20.3057L10 24.2822L6.13574 20.3057L6.13477 20.3037C3.79877 17.9181 2.65104 15.9874 2.08008 14.3682C1.50959 12.7501 1.5 11.4064 1.5 10.1357C1.50002 5.32762 5.32436 1.51543 10 1.5Z" fill="#4E596F" stroke="#717C95"/>
<path d="M10.7916 6.40625C9.33582 6.40625 8.03122 7.58044 8.03122 9.10615V10.25H6.99994V11.75H8.03122V12.5378C8.03122 13.0935 7.70394 13.5971 7.1961 13.8228L7.00841 13.9062H6.99997V13.9106C6.99674 13.9117 6.99334 13.913 6.99023 13.9143L6.99997 13.9106V13.9362V15.5937H13V13.9062H9.39964C9.60567 13.4887 9.71872 13.0222 9.71872 12.5378V11.75H11.6874V10.25H9.71872V8.975C9.71872 8.375 10.2251 7.835 10.7501 7.835C11.2376 7.835 11.5001 7.9625 11.6876 8.1875L12.6402 7.19703C12.1565 6.71325 11.5376 6.40625 10.7916 6.40625Z" fill="#D6D6D6"/>
</svg>
