<svg width="20" height="26" viewBox="0 0 20 26" fill="none" xmlns="http://www.w3.org/2000/svg">
<path d="M10 1.5C14.6756 1.51543 18.4999 5.32767 18.5 10.1357C18.5 11.4064 18.4904 12.7501 17.9199 14.3682C17.349 15.9874 16.2014 17.919 13.8652 20.3047L13.8643 20.3057L10 24.2822L6.13574 20.3057L6.13477 20.3037C3.79877 17.9181 2.65104 15.9874 2.08008 14.3682C1.50959 12.7501 1.5 11.4064 1.5 10.1357C1.50002 5.32762 5.32436 1.51543 10 1.5Z" fill="#4E596F" stroke="#717C95"/>
<path d="M12.7911 6.5375H13.5625V7.5875H12.775V14.15H11.2L11.0641 13.3717C10.7072 13.8553 10.1546 14.2352 9.32566 14.2352C7.77138 14.2352 7 13.0148 7 11.1382C7 9.3421 7.99013 8.05263 9.49835 8.05263C10.097 8.05263 10.5921 8.27138 10.949 8.61678L10.9375 7.5875H9.3625L9.38553 6.55362L10.9375 6.5375L10.949 5.75L12.775 6.0125L12.7911 6.5375ZM9.8898 12.9687C10.3273 12.9687 10.6612 12.75 10.949 12.324V9.80263C10.6727 9.50329 10.3964 9.31908 9.99342 9.31908C9.34868 9.31908 8.88816 9.83717 8.88816 11.1382C8.88816 12.5888 9.30263 12.9687 9.8898 12.9687Z" fill="#D6D6D6"/>
<path d="M8.3125 14.9375V16.25H11.8562V14.9375H8.3125Z" fill="#D6D6D6"/>
</svg>
