<svg width="20" height="26" viewBox="0 0 20 26" fill="none" xmlns="http://www.w3.org/2000/svg">
<path d="M10 1.5C14.6756 1.51543 18.4999 5.32767 18.5 10.1357C18.5 11.4064 18.4904 12.7501 17.9199 14.3682C17.349 15.9874 16.2014 17.919 13.8652 20.3047L13.8643 20.3057L10 24.2822L6.13574 20.3057L6.13477 20.3037C3.79877 17.9181 2.65104 15.9874 2.08008 14.3682C1.50959 12.7501 1.5 11.4064 1.5 10.1357C1.50002 5.32762 5.32436 1.51543 10 1.5Z" fill="#4E596F" stroke="#717C95"/>
<path fill-rule="evenodd" clip-rule="evenodd" d="M6.625 15.5L6.3125 13.625H4.75V12.5H6.125L5.9375 11.375L4.75 11.375V10.25L5.75 10.25L5.125 6.5H7L7.39474 10.25L8.28289 10.25L8.875 6.5H11.125L11.7171 10.25L12.6053 10.25L13 6.5H14.875L14.25 10.25L15.25 10.25V11.375L14.0625 11.375L13.875 12.5H15.25V13.625H13.6875L13.375 15.5H11.125L10.8289 13.625H9.17105L8.875 15.5H6.625ZM12.4868 11.375L11.8947 11.375L12.0724 12.5H12.3684L12.4868 11.375ZM10.2961 10.25L10 8.375L9.70395 10.25L10.2961 10.25ZM9.52631 11.375L10.4737 11.375L10.6513 12.5H9.34868L9.52631 11.375ZM8.10526 11.375L7.51316 11.375L7.63158 12.5H7.92763L8.10526 11.375Z" fill="#D6D6D6"/>
</svg>
