<svg width="20" height="26" viewBox="0 0 20 26" fill="none" xmlns="http://www.w3.org/2000/svg">
<path d="M10 1.5C14.6756 1.51543 18.4999 5.32767 18.5 10.1357C18.5 11.4064 18.4904 12.7501 17.9199 14.3682C17.349 15.9874 16.2014 17.919 13.8652 20.3047L13.8643 20.3057L10 24.2822L6.13574 20.3057L6.13477 20.3037C3.79877 17.9181 2.65104 15.9874 2.08008 14.3682C1.50959 12.7501 1.5 11.4064 1.5 10.1357C1.50002 5.32762 5.32436 1.51543 10 1.5Z" fill="#4E596F" stroke="#717C95"/>
<path fill-rule="evenodd" clip-rule="evenodd" d="M6.25 12.2857V11H7.73515V6.5H11.0767C12.5531 6.5 13.75 7.80957 13.75 9.425C13.75 11.0404 12.5531 12.2857 11.0767 12.2857H9.51733V13.25H11.875V14.375H9.51733V15.5H7.73515V14.375H6.25V13.25H7.73515V12.2857H6.25ZM10.4084 11C11.1466 11 11.7451 10.2948 11.7451 9.42499C11.7451 8.55514 11.1466 7.84999 10.4084 7.84999H9.51734V11H10.4084Z" fill="#D6D6D6"/>
</svg>
