<svg width="20" height="26" viewBox="0 0 20 26" fill="none" xmlns="http://www.w3.org/2000/svg">
<path d="M10 1.5C14.6756 1.51543 18.4999 5.32767 18.5 10.1357C18.5 11.4064 18.4904 12.7501 17.9199 14.3682C17.349 15.9874 16.2014 17.919 13.8652 20.3047L13.8643 20.3057L10 24.2822L6.13574 20.3057L6.13477 20.3037C3.79877 17.9181 2.65104 15.9874 2.08008 14.3682C1.50959 12.7501 1.5 11.4064 1.5 10.1357C1.50002 5.32762 5.32436 1.51543 10 1.5Z" fill="#4E596F" stroke="#717C95"/>
<path d="M8.05002 11C8.66157 11 9.17815 10.5256 9.34411 9.875H6.25V8.75H9.27482C9.06024 8.19304 8.5925 7.78571 8.05002 7.78571H6.25002V6.5H13.375V7.78571H10.8574C11.1345 8.03334 11.3538 8.37128 11.4908 8.75H13.375V9.875H11.6416C11.5567 11.0012 10.837 11.9274 9.76058 12.0972L12.1 15.5H9.62502L7.82502 12.35H6.25002V11H8.05002Z" fill="#D6D6D6"/>
</svg>
