<svg width="20" height="26" viewBox="0 0 20 26" fill="none" xmlns="http://www.w3.org/2000/svg">
<path d="M10 1.5C14.6756 1.51543 18.4999 5.32767 18.5 10.1357C18.5 11.4064 18.4904 12.7501 17.9199 14.3682C17.349 15.9874 16.2014 17.919 13.8652 20.3047L13.8643 20.3057L10 24.2822L6.13574 20.3057L6.13477 20.3037C3.79877 17.9181 2.65104 15.9874 2.08008 14.3682C1.50959 12.7501 1.5 11.4064 1.5 10.1357C1.50002 5.32762 5.32436 1.51543 10 1.5Z" fill="#4E596F" stroke="#717C95"/>
<path d="M7.4375 14.75L7.4375 7.25L5.875 7.42296V14.75H7.4375Z" fill="#D6D6D6"/>
<path d="M10.6118 9.5L9.20832 11.7969L10.6118 14.75H8.84867L7.61183 11.7969L8.87499 9.5H10.6118Z" fill="#D6D6D6"/>
<path d="M14.875 9.57478C14.6783 9.52137 14.5143 9.5 14.2957 9.5C13.6289 9.5 13.1032 9.89435 12.8409 10.6849L12.5984 9.50284H11.1437L11.125 14.75H12.8222L12.8409 12.3351C12.8409 11.6328 13.3625 10.989 14.073 10.989C14.2588 10.989 14.4118 11.0211 14.5977 11.0638L14.875 9.57478Z" fill="#D6D6D6"/>
</svg>
