<svg width="20" height="26" viewBox="0 0 20 26" fill="none" xmlns="http://www.w3.org/2000/svg">
<path d="M10 1.5C14.6756 1.51543 18.4999 5.32767 18.5 10.1357C18.5 11.4064 18.4904 12.7501 17.9199 14.3682C17.349 15.9874 16.2014 17.919 13.8652 20.3047L13.8643 20.3057L10 24.2822L6.13574 20.3057L6.13477 20.3037C3.79877 17.9181 2.65104 15.9874 2.08008 14.3682C1.50959 12.7501 1.5 11.4064 1.5 10.1357C1.50002 5.32762 5.32436 1.51543 10 1.5Z" fill="#8C2B72" stroke="#DD70BB"/>
<path fill-rule="evenodd" clip-rule="evenodd" d="M10 15.5C13 15.5 15.25 14.375 15.25 11C15.25 7.68421 12.8995 6.5 10 6.5C7.1005 6.5 4.75 7.68421 4.75 11C4.75 14.375 7 15.5 10 15.5ZM5.87575 10.9056C6.01341 10.9712 6.1462 11.0001 6.25016 11.0001C6.58717 11 6.69692 11.303 6.81777 11.6367C6.96581 12.0454 7.13051 12.5001 7.75 12.5001C8.125 12.5001 8.21875 12.4063 8.3125 12.3126C8.40625 12.2188 8.5 12.1251 8.875 12.1251C9.21211 12.1251 9.32193 12.3524 9.44285 12.6026C9.59095 12.9091 9.75569 13.25 10.3751 13.25C10.9375 13.25 11.125 12.9688 11.3125 12.6875C11.5 12.4063 11.6875 12.125 12.25 12.125C13.0538 12.1251 13.2115 11.802 13.3579 11.5021C13.4846 11.2424 13.6029 11.0001 14.125 11.0001C14.125 12.413 13.6711 13.1686 13.075 13.6156C12.4181 14.1083 11.3918 14.375 10 14.375C8.60818 14.375 7.58193 14.1083 6.925 13.6156C6.32893 13.1686 5.875 12.413 5.875 11C5.875 10.9682 5.87525 10.9368 5.87575 10.9056ZM11.4791 9.37483C11.3599 9.0202 10.743 8.75 9.9999 8.75C9.25689 8.75 8.64006 9.02011 8.52076 9.37466C8.7832 9.67051 9.34692 9.87509 10 9.87509C10.653 9.87509 11.2166 9.67059 11.4791 9.37483Z" fill="#D6D6D6"/>
</svg>
