<svg width="20" height="26" viewBox="0 0 20 26" fill="none" xmlns="http://www.w3.org/2000/svg">
<path d="M10 1.5C14.6756 1.51543 18.4999 5.32767 18.5 10.1357C18.5 11.4064 18.4904 12.7501 17.9199 14.3682C17.349 15.9874 16.2014 17.919 13.8652 20.3047L13.8643 20.3057L10 24.2822L6.13574 20.3057L6.13477 20.3037C3.79877 17.9181 2.65104 15.9874 2.08008 14.3682C1.50959 12.7501 1.5 11.4064 1.5 10.1357C1.50002 5.32762 5.32436 1.51543 10 1.5Z" fill="#832639" stroke="#E26377"/>
<path d="M14.5 7H13.5C13.5 7.92826 13.1312 8.8185 12.4749 9.47487C11.8185 10.1313 10.9283 10.5 10 10.5C9.07174 10.5 8.1815 10.1313 7.52513 9.47487C6.86875 8.8185 6.5 7.92826 6.5 7H5.5C5.50053 8.10653 5.90873 9.17408 6.64661 9.99866C7.38449 10.8232 8.40032 11.3471 9.5 11.47V15H10.5V11.47C11.5997 11.3471 12.6155 10.8232 13.3534 9.99866C14.0913 9.17408 14.4995 8.10653 14.5 7Z" fill="#D6D6D6"/>
</svg>
