<svg width="20" height="26" viewBox="0 0 20 26" fill="none" xmlns="http://www.w3.org/2000/svg">
<path d="M10 1.5C14.6756 1.51543 18.4999 5.32767 18.5 10.1357C18.5 11.4064 18.4904 12.7501 17.9199 14.3682C17.349 15.9874 16.2014 17.919 13.8652 20.3047L13.8643 20.3057L10 24.2822L6.13574 20.3057L6.13477 20.3037C3.79877 17.9181 2.65104 15.9874 2.08008 14.3682C1.50959 12.7501 1.5 11.4064 1.5 10.1357C1.50002 5.32762 5.32436 1.51543 10 1.5Z" fill="#832639" stroke="#E26377"/>
<path d="M14.5 6H5.5C5.36739 6 5.24021 6.05268 5.14645 6.14645C5.05268 6.24021 5 6.36739 5 6.5V15.5C5 15.6326 5.05268 15.7598 5.14645 15.8536C5.24021 15.9473 5.36739 16 5.5 16H14.5C14.6326 16 14.7598 15.9473 14.8536 15.8536C14.9473 15.7598 15 15.6326 15 15.5V6.5C15 6.36739 14.9473 6.24021 14.8536 6.14645C14.7598 6.05268 14.6326 6 14.5 6ZM14 12.5H11.5V15H8.5V12.5H6V9.5H8.5V7H11.5V9.5H14V12.5Z" fill="#D6D6D6"/>
</svg>
