<svg width="20" height="26" viewBox="0 0 20 26" fill="none" xmlns="http://www.w3.org/2000/svg">
<path d="M10 1.5C14.6756 1.51543 18.4999 5.32767 18.5 10.1357C18.5 11.4064 18.4904 12.7501 17.9199 14.3682C17.349 15.9874 16.2014 17.919 13.8652 20.3047L13.8643 20.3057L10 24.2822L6.13574 20.3057L6.13477 20.3037C3.79877 17.9181 2.65104 15.9874 2.08008 14.3682C1.50959 12.7501 1.5 11.4064 1.5 10.1357C1.50002 5.32762 5.32436 1.51543 10 1.5Z" fill="#4E596F" stroke="#717C95"/>
<path d="M15 11.7504L13.75 9.75037L12.5 11.7504H13.25C13.25 13.3554 12.21 14.0904 10.705 14.2504L10.58 11.0004H12V10.0004H10.545L10.5 9.16037C10.8659 9.03812 11.1763 8.7897 11.3758 8.45953C11.5753 8.12937 11.6509 7.73901 11.5889 7.35826C11.527 6.97751 11.3316 6.6312 11.0378 6.38129C10.7439 6.13137 10.3708 5.99414 9.985 5.99414C9.59925 5.99414 9.22607 6.13137 8.93222 6.38129C8.63837 6.6312 8.44301 6.97751 8.38108 7.35826C8.31915 7.73901 8.39469 8.12937 8.59419 8.45953C8.79368 8.7897 9.10413 9.03812 9.47 9.16037L9.455 10.0004H8V11.0004H9.42L9.295 14.2504C7.795 14.0904 6.75 13.3554 6.75 11.7504H7.5L6.25 9.75037L5 11.7504H5.75V12.0004C5.75 13.7104 6.795 14.4354 8.295 15.0804C8.815 15.3054 10 16.0004 10 16.0004C10 16.0004 11.185 15.3054 11.705 15.0804C13.205 14.4354 14.25 13.7104 14.25 12.0004V11.7504H15ZM9.125 7.62537C9.125 7.45231 9.17632 7.28314 9.27246 7.13925C9.36861 6.99536 9.50527 6.88321 9.66515 6.81698C9.82504 6.75075 10.001 6.73342 10.1707 6.76719C10.3404 6.80095 10.4963 6.88428 10.6187 7.00666C10.7411 7.12903 10.8244 7.28494 10.8582 7.45467C10.8919 7.6244 10.8746 7.80034 10.8084 7.96022C10.7422 8.12011 10.63 8.25676 10.4861 8.35291C10.3422 8.44906 10.1731 8.50037 10 8.50037C9.76834 8.49906 9.54654 8.40645 9.38273 8.24264C9.21892 8.07883 9.12631 7.85703 9.125 7.62537Z" fill="#D6D6D6"/>
</svg>
