<svg width="20" height="26" viewBox="0 0 20 26" fill="none" xmlns="http://www.w3.org/2000/svg">
<path d="M10 1.5C14.6756 1.51543 18.4999 5.32767 18.5 10.1357C18.5 11.4064 18.4904 12.7501 17.9199 14.3682C17.349 15.9874 16.2014 17.919 13.8652 20.3047L13.8643 20.3057L10 24.2822L6.13574 20.3057L6.13477 20.3037C3.79877 17.9181 2.65104 15.9874 2.08008 14.3682C1.50959 12.7501 1.5 11.4064 1.5 10.1357C1.50002 5.32762 5.32436 1.51543 10 1.5Z" fill="#832639" stroke="#E26377"/>
<path d="M10 6L5 7.78V9.21L10 7.42L15 9.21V7.78L10 6Z" fill="#D6D6D6"/>
<path d="M12.3117 10.8207C12.1321 10.7745 11.9439 10.75 11.7499 10.75C10.5073 10.75 9.49994 11.7574 9.49994 13C9.49994 14.2426 10.5073 15.25 11.7499 15.25C11.9439 15.25 12.1321 15.2255 12.3117 15.1793C11.7741 15.688 11.0485 16 10.25 16C8.59311 16 7.24997 14.6568 7.24997 13C7.24997 11.3431 8.59311 9.99999 10.25 9.99999C11.0485 9.99999 11.7741 10.312 12.3117 10.8207Z" fill="#D6D6D6"/>
</svg>
