<svg width="20" height="26" viewBox="0 0 20 26" fill="none" xmlns="http://www.w3.org/2000/svg">
<path d="M10 1.5C14.6756 1.51543 18.4999 5.32767 18.5 10.1357C18.5 11.4064 18.4904 12.7501 17.9199 14.3682C17.349 15.9874 16.2014 17.919 13.8652 20.3047L13.8643 20.3057L10 24.2822L6.13574 20.3057L6.13477 20.3037C3.79877 17.9181 2.65104 15.9874 2.08008 14.3682C1.50959 12.7501 1.5 11.4064 1.5 10.1357C1.50002 5.32762 5.32436 1.51543 10 1.5Z" fill="#5A443E" stroke="#A9827C"/>
<path d="M15 7H13.19C12.4766 7 11.7924 7.28341 11.2879 7.78788C10.7834 8.29236 10.5 8.97657 10.5 9.69V15.5H11C11 15.2348 11.1054 14.9804 11.2929 14.7929C11.4804 14.6054 11.7348 14.5 12 14.5H15V7ZM5 7H6.825C7.17736 7.00065 7.52614 7.07079 7.85137 7.20639C8.1766 7.34199 8.47189 7.5404 8.72036 7.79025C8.96882 8.04011 9.16557 8.33651 9.29935 8.66249C9.43313 8.98847 9.50131 9.33764 9.5 9.69V15.5H9C9 15.2348 8.89464 14.9804 8.70711 14.7929C8.51957 14.6054 8.26522 14.5 8 14.5H5V7Z" fill="#D6D6D6"/>
</svg>
