<svg width="20" height="26" viewBox="0 0 20 26" fill="none" xmlns="http://www.w3.org/2000/svg">
<path d="M10 1.5C14.6756 1.51543 18.4999 5.32767 18.5 10.1357C18.5 11.4064 18.4904 12.7501 17.9199 14.3682C17.349 15.9874 16.2014 17.919 13.8652 20.3047L13.8643 20.3057L10 24.2822L6.13574 20.3057L6.13477 20.3037C3.79877 17.9181 2.65104 15.9874 2.08008 14.3682C1.50959 12.7501 1.5 11.4064 1.5 10.1357C1.50002 5.32762 5.32436 1.51543 10 1.5Z" fill="#3E495A" stroke="#8D9FB5"/>
<path d="M7 9.5H4.75V7.25H7V9.5Z" fill="#D6D6D6"/>
<path d="M7 12.5H4.75V10.25H7V12.5Z" fill="#D6D6D6"/>
<path d="M6.625 15.5V14.375H4.75V13.25H7.75V15.5H6.625Z" fill="#D6D6D6"/>
<path d="M12.625 14.375H12.25C12.25 14.9963 11.7463 15.5 11.125 15.5C10.5037 15.5 10 14.9963 10 14.375L9.25 14.375V8.1875C9.25 7.66973 9.66973 7.25 10.1875 7.25H15.25V8.375H10V12.5H15.25V14.375L14.875 14.375C14.875 14.9963 14.3713 15.5 13.75 15.5C13.1287 15.5 12.625 14.9963 12.625 14.375Z" fill="#D6D6D6"/>
</svg>
