<svg width="20" height="26" viewBox="0 0 20 26" fill="none" xmlns="http://www.w3.org/2000/svg">
<path d="M10 1.5C14.6756 1.51543 18.4999 5.32767 18.5 10.1357C18.5 11.4064 18.4904 12.7501 17.9199 14.3682C17.349 15.9874 16.2014 17.919 13.8652 20.3047L13.8643 20.3057L10 24.2822L6.13574 20.3057L6.13477 20.3037C3.79877 17.9181 2.65104 15.9874 2.08008 14.3682C1.50959 12.7501 1.5 11.4064 1.5 10.1357C1.50002 5.32762 5.32436 1.51543 10 1.5Z" fill="#4E596F" stroke="#717C95"/>
<path fill-rule="evenodd" clip-rule="evenodd" d="M11.3425 10.0925C11.441 9.77919 11.494 9.45337 11.5 9.125C11.5 8.45749 11.3021 7.80497 10.9312 7.24995C10.5604 6.69494 10.0333 6.26235 9.41656 6.00691C8.79986 5.75146 8.12126 5.68463 7.46657 5.81485C6.81189 5.94508 6.21052 6.26651 5.73852 6.73852C5.26651 7.21052 4.94508 7.81189 4.81485 8.46657C4.68463 9.12126 4.75146 9.79986 5.00691 10.4166C5.26235 11.0333 5.69494 11.5604 6.24995 11.9312C6.80497 12.3021 7.45749 12.5 8.125 12.5C8.45337 12.494 8.77919 12.441 9.0925 12.3425L10 13.25H11.5V14.75H13V16.25H13.75C14.1478 16.25 14.5294 16.092 14.8107 15.8107C15.092 15.5294 15.25 15.1478 15.25 14.75V14L11.3425 10.0925ZM7.75 8C7.89834 8 8.04334 8.04399 8.16668 8.1264C8.29002 8.20881 8.38614 8.32594 8.44291 8.46299C8.49968 8.60003 8.51453 8.75083 8.48559 8.89632C8.45665 9.0418 8.38522 9.17544 8.28033 9.28033C8.17544 9.38522 8.0418 9.45665 7.89632 9.48559C7.75083 9.51453 7.60003 9.49968 7.46299 9.44291C7.32594 9.38614 7.20881 9.29002 7.1264 9.16668C7.04399 9.04334 7 8.89834 7 8.75C7 8.55109 7.07902 8.36032 7.21967 8.21967C7.36032 8.07902 7.55109 8 7.75 8Z" fill="#D6D6D6"/>
</svg>
