<svg width="20" height="26" viewBox="0 0 20 26" fill="none" xmlns="http://www.w3.org/2000/svg">
<path d="M10 1.5C14.6756 1.51543 18.4999 5.32767 18.5 10.1357C18.5 11.4064 18.4904 12.7501 17.9199 14.3682C17.349 15.9874 16.2014 17.919 13.8652 20.3047L13.8643 20.3057L10 24.2822L6.13574 20.3057L6.13477 20.3037C3.79877 17.9181 2.65104 15.9874 2.08008 14.3682C1.50959 12.7501 1.5 11.4064 1.5 10.1357C1.50002 5.32762 5.32436 1.51543 10 1.5Z" fill="#8C2B72" stroke="#DD70BB"/>
<path fill-rule="evenodd" clip-rule="evenodd" d="M10.375 6.5H12.6846L13.2716 8.75H14.5V9.875H13.5651L13.8762 11.0677C14.6684 11.2869 15.25 12.0131 15.25 12.875C15.25 13.9105 14.4105 14.75 13.375 14.75C12.3395 14.75 11.5 13.9105 11.5 12.875C11.5 12.0676 12.0103 11.3794 12.726 11.1154L12.4024 9.875H12.2467C12.2467 9.875 11.2391 10.4004 10.75 11.375C10.2609 12.3496 10.375 13.625 10.375 13.625H8.86913L8.49143 13.0554C8.40063 14.0063 7.59966 14.75 6.625 14.75C5.58947 14.75 4.75 13.9105 4.75 12.875C4.75 11.8395 5.58947 11 6.625 11C6.81994 11 7.00793 11.0297 7.18468 11.085L6.38229 9.875H4.75V8.75H6.98613L7.4835 9.5H9.42605L10.3537 8.75H12.1089L11.8154 7.625H10.375V6.5ZM7.375 12.875C7.375 12.4608 7.03921 12.125 6.625 12.125C6.21079 12.125 5.875 12.4608 5.875 12.875C5.875 13.2892 6.21079 13.625 6.625 13.625C7.03921 13.625 7.375 13.2892 7.375 12.875ZM14.125 12.875C14.125 12.4608 13.7892 12.125 13.375 12.125C12.9608 12.125 12.625 12.4608 12.625 12.875C12.625 13.2892 12.9608 13.625 13.375 13.625C13.7892 13.625 14.125 13.2892 14.125 12.875Z" fill="#D6D6D6"/>
</svg>
