<svg width="20" height="26" viewBox="0 0 20 26" fill="none" xmlns="http://www.w3.org/2000/svg">
<path d="M10 1.5C14.6756 1.51543 18.4999 5.32767 18.5 10.1357C18.5 11.4064 18.4904 12.7501 17.9199 14.3682C17.349 15.9874 16.2014 17.919 13.8652 20.3047L13.8643 20.3057L10 24.2822L6.13574 20.3057L6.13477 20.3037C3.79877 17.9181 2.65104 15.9874 2.08008 14.3682C1.50959 12.7501 1.5 11.4064 1.5 10.1357C1.50002 5.32762 5.32436 1.51543 10 1.5Z" fill="#5F3068" stroke="#B378BC"/>
<path d="M8.49994 13.4816V13.5457C8.49994 13.8418 8.41229 14.1313 8.24802 14.3777L8.00187 14.7469C7.8376 14.9933 7.74994 15.2828 7.74994 15.579V16.2498H12.6249V11.7762C12.6249 11.5254 12.7503 11.2913 12.9589 11.1522L13.3102 10.918C13.5739 10.7422 13.6986 10.4196 13.6218 10.1121L13.517 9.69292C13.4335 9.35904 13.1335 9.12482 12.7894 9.12482H10.9053C10.6124 9.12482 10.3749 8.88738 10.3749 8.59449C10.3749 8.45384 10.4308 8.31895 10.5303 8.21949L10.5764 8.1734C10.6886 8.06115 10.7586 7.91352 10.7744 7.75556L10.7995 7.50456C10.8162 7.33721 10.7923 7.16828 10.7299 7.01212L10.6076 6.70643C10.46 6.33756 10.1576 6.05236 9.78067 5.92673C9.44085 5.81346 9.06995 5.83982 8.74956 6.00001L8.46899 6.14029C8.02834 6.36062 7.74994 6.81103 7.74994 7.3037V7.32378C7.74994 7.74613 7.96102 8.14054 8.31244 8.37482L8.57555 8.55023C8.76259 8.67492 8.87494 8.88485 8.87494 9.10965C8.87494 9.35092 8.74566 9.5737 8.53618 9.6934L6.76054 10.7081C6.46073 10.8794 6.31664 11.2333 6.4115 11.5653L6.76958 12.8186C6.88929 13.2375 7.36021 13.4447 7.74994 13.2498L7.95724 13.1462C8.20657 13.0215 8.49994 13.2028 8.49994 13.4816Z" fill="#D6D6D6"/>
</svg>
