<svg width="20" height="26" viewBox="0 0 20 26" fill="none" xmlns="http://www.w3.org/2000/svg">
<path d="M10 1.5C14.6756 1.51543 18.4999 5.32767 18.5 10.1357C18.5 11.4064 18.4904 12.7501 17.9199 14.3682C17.349 15.9874 16.2014 17.919 13.8652 20.3047L13.8643 20.3057L10 24.2822L6.13574 20.3057L6.13477 20.3037C3.79877 17.9181 2.65104 15.9874 2.08008 14.3682C1.50959 12.7501 1.5 11.4064 1.5 10.1357C1.50002 5.32762 5.32436 1.51543 10 1.5Z" fill="#195657" stroke="#499D9E"/>
<path d="M9.045 14.03L7.38 16L6.47 15.09L8.44 13.425C8.1721 12.8259 8.08661 12.1612 8.19421 11.5139C8.3018 10.8665 8.59772 10.2652 9.045 9.785C10.635 8.195 14.5 7.97 14.5 7.97C14.5 7.97 14.27 11.835 12.68 13.425C12.2002 13.8713 11.5998 14.1666 10.9535 14.2742C10.3071 14.3817 9.64344 14.2968 9.045 14.03ZM6.925 13.58L7.425 13.14C7.23055 12.4501 7.22057 11.7213 7.39606 11.0264C7.57154 10.3315 7.92634 9.69482 8.425 9.18C8.79496 8.82176 9.21834 8.5232 9.68 8.295C9.21503 7.48213 8.67608 6.71388 8.07 6C8.07 6 5.5 8.895 5.5 11.145C5.51154 11.6384 5.64839 12.1208 5.89767 12.5467C6.14695 12.9727 6.50047 13.3283 6.925 13.58Z" fill="#D6D6D6"/>
</svg>
