<svg width="20" height="26" viewBox="0 0 20 26" fill="none" xmlns="http://www.w3.org/2000/svg">
<path d="M10 1.5C14.6756 1.51543 18.4999 5.32767 18.5 10.1357C18.5 11.4064 18.4904 12.7501 17.9199 14.3682C17.349 15.9874 16.2014 17.919 13.8652 20.3047L13.8643 20.3057L10 24.2822L6.13574 20.3057L6.13477 20.3037C3.79877 17.9181 2.65104 15.9874 2.08008 14.3682C1.50959 12.7501 1.5 11.4064 1.5 10.1357C1.50002 5.32762 5.32436 1.51543 10 1.5Z" fill="#255978" stroke="#4687B0"/>
<path d="M14 9.5C14 11.6667 12.5 12.75 10.0334 12.75H9.00003V15.5H7.00003V6.5H10.0334C12.44 6.5 14 7.45333 14 9.5ZM12 9.5C12 8.68494 11.3151 8.24834 10.5 8.25H9.00003V11H10.5C11.3824 11 12.0314 10.3911 12 9.5Z" fill="#D6D6D6"/>
</svg>
