<svg width="20" height="26" viewBox="0 0 20 26" fill="none" xmlns="http://www.w3.org/2000/svg">
<path d="M10 1.5C14.6756 1.51543 18.4999 5.32767 18.5 10.1357C18.5 11.4064 18.4904 12.7501 17.9199 14.3682C17.349 15.9874 16.2014 17.919 13.8652 20.3047L13.8643 20.3057L10 24.2822L6.13574 20.3057L6.13477 20.3037C3.79877 17.9181 2.65104 15.9874 2.08008 14.3682C1.50959 12.7501 1.5 11.4064 1.5 10.1357C1.50002 5.32762 5.32436 1.51543 10 1.5Z" fill="#255978" stroke="#4687B0"/>
<path d="M15 9L13 7L12.5 7.545L13.5 8.545V11L14 11.5V14C14 14.2652 13.8946 14.5196 13.7071 14.7071C13.5196 14.8946 13.2652 15 13 15H11V7C11.0109 6.74699 10.9214 6.49993 10.7509 6.31262C10.5805 6.12532 10.3429 6.01296 10.09 6H6.91C6.65709 6.01296 6.41954 6.12532 6.24909 6.31262C6.07865 6.49993 5.98912 6.74699 6 7V15H5V16H13C13.5304 16 14.0391 15.7893 14.4142 15.4142C14.7893 15.0391 15 14.5304 15 14V9ZM7 7H10V10.5H7V7Z" fill="#D6D6D6"/>
</svg>
