<svg width="20" height="26" viewBox="0 0 20 26" fill="none" xmlns="http://www.w3.org/2000/svg">
<path d="M10 1.5C14.6756 1.51543 18.4999 5.32767 18.5 10.1357C18.5 11.4064 18.4904 12.7501 17.9199 14.3682C17.349 15.9874 16.2014 17.919 13.8652 20.3047L13.8643 20.3057L10 24.2822L6.13574 20.3057L6.13477 20.3037C3.79877 17.9181 2.65104 15.9874 2.08008 14.3682C1.50959 12.7501 1.5 11.4064 1.5 10.1357C1.50002 5.32762 5.32436 1.51543 10 1.5Z" fill="#255978" stroke="#4687B0"/>
<path d="M13 16H11.5V14.5H9.5L10 13H11V10H10.43L12.25 6L14.5 11H13.75L15 14.5H13V16ZM10 12V11H5V12H7V16H8V12H10Z" fill="#D6D6D6"/>
</svg>
