<svg width="20" height="26" viewBox="0 0 20 26" fill="none" xmlns="http://www.w3.org/2000/svg">
<path d="M10 1.5C14.6756 1.51543 18.4999 5.32767 18.5 10.1357C18.5 11.4064 18.4904 12.7501 17.9199 14.3682C17.349 15.9874 16.2014 17.919 13.8652 20.3047L13.8643 20.3057L10 24.2822L6.13574 20.3057L6.13477 20.3037C3.79877 17.9181 2.65104 15.9874 2.08008 14.3682C1.50959 12.7501 1.5 11.4064 1.5 10.1357C1.50002 5.32762 5.32436 1.51543 10 1.5Z" fill="#832639" stroke="#E26377"/>
<path d="M13.8901 7.81937L13.1801 7.10938L10.0001 10.2944L6.82011 7.10938L6.11011 7.81937L9.29511 10.9994L6.11011 14.1794L6.82011 14.8894L10.0001 11.7044L13.1801 14.8894L13.8901 14.1794L10.7051 10.9994L13.8901 7.81937Z" fill="#D6D6D6"/>
</svg>
