<svg width="20" height="26" viewBox="0 0 20 26" fill="none" xmlns="http://www.w3.org/2000/svg">
<path d="M10 1.5C14.6756 1.51543 18.4999 5.32767 18.5 10.1357C18.5 11.4064 18.4904 12.7501 17.9199 14.3682C17.349 15.9874 16.2014 17.919 13.8652 20.3047L13.8643 20.3057L10 24.2822L6.13574 20.3057L6.13477 20.3037C3.79877 17.9181 2.65104 15.9874 2.08008 14.3682C1.50959 12.7501 1.5 11.4064 1.5 10.1357C1.50002 5.32762 5.32436 1.51543 10 1.5Z" fill="#832639" stroke="#E26377"/>
<path d="M11.285 8.285C11.2662 8.6664 11.1338 9.03348 10.9049 9.33907C10.6759 9.64467 10.3608 9.87484 10 10C9.63923 9.87484 9.32412 9.64467 9.09514 9.33907C8.86617 9.03348 8.73379 8.6664 8.715 8.285V7.855L10 7.43L11.285 7.855V8.285ZM14.75 8.5L10 6L5.25 8.5L7 10V10.5C7 10.5 7.5 11 10 11C12.5 11 13 10.5 13 10.5V10L14.75 8.5ZM13 11.25C13 11.25 12.5 12.5 10 12.5C7.5 12.5 7 11.25 7 11.25V11.75C7 14.095 8.345 16 10 16C11.655 16 13 14.095 13 11.75V11.25Z" fill="#D6D6D6"/>
</svg>
