<svg width="20" height="26" viewBox="0 0 20 26" fill="none" xmlns="http://www.w3.org/2000/svg">
<path d="M10 1.5C14.6756 1.51543 18.4999 5.32767 18.5 10.1357C18.5 11.4064 18.4904 12.7501 17.9199 14.3682C17.349 15.9874 16.2014 17.919 13.8652 20.3047L13.8643 20.3057L10 24.2822L6.13574 20.3057L6.13477 20.3037C3.79877 17.9181 2.65104 15.9874 2.08008 14.3682C1.50959 12.7501 1.5 11.4064 1.5 10.1357C1.50002 5.32762 5.32436 1.51543 10 1.5Z" fill="#865627" stroke="#D69962"/>
<path d="M14.0549 9.9996H5.99993V14.9996L5.74993 15.9996H13.2499L12.9999 14.9996V14.4996L14.1949 14.3096C14.4251 14.2639 14.6319 14.1386 14.7791 13.9558C14.9262 13.773 15.0044 13.5443 14.9999 13.3096V10.9996C15.0003 10.7436 14.9025 10.4973 14.7267 10.3113C14.5509 10.1252 14.3105 10.0137 14.0549 9.9996ZM8.99993 14.4996H7.99993V10.9996H8.99993V14.4996ZM10.9999 14.4996H9.99992V10.9996H10.9999V14.4996ZM13.9999 13.0946C13.9999 13.1522 13.98 13.2081 13.9436 13.2527C13.9071 13.2974 13.8564 13.3281 13.7999 13.3396L12.9999 13.4996V10.9996H13.7499C13.8162 10.9996 13.8798 11.0259 13.9267 11.0728C13.9736 11.1197 13.9999 11.1833 13.9999 11.2496V13.0946ZM6.54493 8.9996H5.54493C5.53971 8.91635 5.53971 8.83286 5.54493 8.7496C5.54477 8.29317 5.72296 7.85473 6.04148 7.52781C6.36 7.20088 6.79364 7.01134 7.24993 6.9996H7.74993C7.92639 6.69885 8.17841 6.44946 8.481 6.27617C8.78359 6.10289 9.12623 6.01172 9.47493 6.01172C9.82362 6.01172 10.1663 6.10289 10.4688 6.27617C10.7714 6.44946 11.0235 6.69885 11.1999 6.9996H11.7499C12.2141 6.9996 12.6592 7.18398 12.9874 7.51217C13.3156 7.84036 13.4999 8.28548 13.4999 8.7496C13.5051 8.83286 13.5051 8.91635 13.4999 8.9996H12.4999C12.515 8.91696 12.515 8.83225 12.4999 8.7496C12.4999 8.55069 12.4209 8.35993 12.2803 8.21927C12.1396 8.07862 11.9488 7.9996 11.7499 7.9996H10.4999C10.4999 7.73439 10.3946 7.48003 10.207 7.2925C10.0195 7.10496 9.76514 6.9996 9.49993 6.9996C9.23471 6.9996 8.98036 7.10496 8.79282 7.2925C8.60528 7.48003 8.49993 7.73439 8.49993 7.9996H7.24993C7.05101 7.9996 6.86025 8.07862 6.7196 8.21927C6.57894 8.35993 6.49993 8.55069 6.49993 8.7496C6.50185 8.83477 6.51703 8.91911 6.54493 8.9996Z" fill="#D6D6D6"/>
</svg>
