<svg width="20" height="26" viewBox="0 0 20 26" fill="none" xmlns="http://www.w3.org/2000/svg">
<path d="M10 1.5C14.6756 1.51543 18.4999 5.32767 18.5 10.1357C18.5 11.4064 18.4904 12.7501 17.9199 14.3682C17.349 15.9874 16.2014 17.919 13.8652 20.3047L13.8643 20.3057L10 24.2822L6.13574 20.3057L6.13477 20.3037C3.79877 17.9181 2.65104 15.9874 2.08008 14.3682C1.50959 12.7501 1.5 11.4064 1.5 10.1357C1.50002 5.32762 5.32436 1.51543 10 1.5Z" fill="#3E495A" stroke="#8D9FB5"/>
<path fill-rule="evenodd" clip-rule="evenodd" d="M4.75 5.75H15.25V12.5H13V11.75H7V12.5H4.75V5.75ZM7.375 7.25H6.625V10.25H7.375V7.25ZM10.375 7.25H9.625V10.25H10.375V7.25ZM11.875 7.25H11.125V10.25H11.875V7.25ZM12.625 7.25V10.25H13.375V7.25H12.625ZM8.125 7.25V10.25H8.875V7.25H8.125Z" fill="#D6D6D6"/>
<path d="M9.24074 14.5625H10.7593C10.8533 15.51 11.6527 16.25 12.625 16.25C13.5973 16.25 14.3967 15.51 14.4907 14.5625H15.25V13.4375H4.75V14.5625H5.50926C5.60333 15.51 6.40275 16.25 7.375 16.25C8.34725 16.25 9.14667 15.51 9.24074 14.5625Z" fill="#D6D6D6"/>
</svg>
