<svg width="20" height="26" viewBox="0 0 20 26" fill="none" xmlns="http://www.w3.org/2000/svg">
<path d="M10 1.5C14.6756 1.51543 18.4999 5.32767 18.5 10.1357C18.5 11.4064 18.4904 12.7501 17.9199 14.3682C17.349 15.9874 16.2014 17.919 13.8652 20.3047L13.8643 20.3057L10 24.2822L6.13574 20.3057L6.13477 20.3037C3.79877 17.9181 2.65104 15.9874 2.08008 14.3682C1.50959 12.7501 1.5 11.4064 1.5 10.1357C1.50002 5.32762 5.32436 1.51543 10 1.5Z" fill="#5A443E" stroke="#A9827C"/>
<path d="M13 6L11 11V14.5H9.49996V10.5H5.49996V16H15V11L13 6ZM6.99996 14.5V11.5C7.05818 11.4224 7.13367 11.3594 7.22045 11.316C7.30724 11.2726 7.40294 11.25 7.49996 11.25C7.59699 11.25 7.69269 11.2726 7.77947 11.316C7.86626 11.3594 7.94175 11.4224 7.99996 11.5V14.5H6.99996ZM12.5 14.5V11.5C12.5582 11.4224 12.6337 11.3594 12.7205 11.316C12.8072 11.2726 12.9029 11.25 13 11.25C13.097 11.25 13.1927 11.2726 13.2795 11.316C13.3663 11.3594 13.4417 11.4224 13.5 11.5V14.5H12.5ZM9.99996 8.5C10.0053 8.69496 9.96253 8.88823 9.87531 9.06267C9.78809 9.23712 9.65916 9.38733 9.49996 9.5H5.49996C5.34077 9.38733 5.21184 9.23712 5.12462 9.06267C5.03739 8.88823 4.99458 8.69496 4.99996 8.5C4.99996 7.5 7.49996 6 7.49996 6C7.49996 6 9.99996 7.5 9.99996 8.5Z" fill="#D6D6D6"/>
</svg>
