<svg width="20" height="26" viewBox="0 0 20 26" fill="none" xmlns="http://www.w3.org/2000/svg">
<path d="M10 1.5C14.6756 1.51543 18.4999 5.32767 18.5 10.1357C18.5 11.4064 18.4904 12.7501 17.9199 14.3682C17.349 15.9874 16.2014 17.919 13.8652 20.3047L13.8643 20.3057L10 24.2822L6.13574 20.3057L6.13477 20.3037C3.79877 17.9181 2.65104 15.9874 2.08008 14.3682C1.50959 12.7501 1.5 11.4064 1.5 10.1357C1.50002 5.32762 5.32436 1.51543 10 1.5Z" fill="#4E596F" stroke="#717C95"/>
<path d="M14.3574 10.9549C13.9806 11.3319 13.5116 11.6037 12.9971 11.7432C12.4826 11.8827 11.9406 11.885 11.4249 11.7499L7.35245 15.7999C7.21111 15.9413 7.04332 16.0534 6.85866 16.1299C6.674 16.2063 6.47608 16.2457 6.2762 16.2457C5.87253 16.2457 5.48539 16.0854 5.19995 15.7999C4.91451 15.5145 4.75415 15.1273 4.75415 14.7237C4.75415 14.32 4.91451 13.9329 5.19995 13.6474L9.24995 9.57492C9.10141 9.02445 9.1108 8.44329 9.27705 7.89791C9.4433 7.35253 9.75969 6.86495 10.19 6.49094C10.6204 6.11693 11.1473 5.8716 11.7105 5.783C12.2738 5.69439 12.8506 5.7661 13.3749 5.98992L11.3949 7.99992L11.6649 9.34992L13.0149 9.61992L15.0099 7.62492C15.2429 8.18226 15.3052 8.79617 15.189 9.38894C15.0729 9.98172 14.7835 10.5267 14.3574 10.9549Z" fill="#D6D6D6"/>
</svg>
