<svg width="20" height="26" viewBox="0 0 20 26" fill="none" xmlns="http://www.w3.org/2000/svg">
<path d="M10 1.5C14.6756 1.51543 18.4999 5.32767 18.5 10.1357C18.5 11.4064 18.4904 12.7501 17.9199 14.3682C17.349 15.9874 16.2014 17.919 13.8652 20.3047L13.8643 20.3057L10 24.2822L6.13574 20.3057L6.13477 20.3037C3.79877 17.9181 2.65104 15.9874 2.08008 14.3682C1.50959 12.7501 1.5 11.4064 1.5 10.1357C1.50002 5.32762 5.32436 1.51543 10 1.5Z" fill="#865627" stroke="#D69962"/>
<path d="M14 6V16H12.5V12H11.5V9.5C11.5 7 14 6 14 6ZM9 6V8.5H8.25V6H7.25V8.5H6.5V6H5.5V8.655C5.50012 9.03809 5.64682 9.40662 5.91 9.685L6.85 10.5C6.89908 10.5481 6.93772 10.6057 6.96353 10.6694C6.98934 10.733 7.00175 10.8013 7 10.87V16H8.5V10.87C8.49889 10.801 8.51209 10.7325 8.53877 10.6688C8.56544 10.6051 8.60502 10.5476 8.655 10.5L9.56 9.725C9.84138 9.44396 9.99965 9.06269 10 8.665V6H9Z" fill="#D6D6D6"/>
</svg>
