<svg width="20" height="26" viewBox="0 0 20 26" fill="none" xmlns="http://www.w3.org/2000/svg">
<path d="M10 1.5C14.6756 1.51543 18.4999 5.32767 18.5 10.1357C18.5 11.4064 18.4904 12.7501 17.9199 14.3682C17.349 15.9874 16.2014 17.919 13.8652 20.3047L13.8643 20.3057L10 24.2822L6.13574 20.3057L6.13477 20.3037C3.79877 17.9181 2.65104 15.9874 2.08008 14.3682C1.50959 12.7501 1.5 11.4064 1.5 10.1357C1.50002 5.32762 5.32436 1.51543 10 1.5Z" fill="#8C2B72" stroke="#DD70BB"/>
<path fill-rule="evenodd" clip-rule="evenodd" d="M11.6217 9.22378L11.3167 8.488C11.0737 7.90194 11.4896 7.25 12.1063 7.25L13.4364 7.25C13.7 7.25 13.9136 7.47091 13.9136 7.74341C13.9136 8.01592 13.7 8.23683 13.4364 8.23683H12.2511L13.0693 10.2107C14.275 10.2189 15.25 11.2319 15.25 12.4803C15.25 13.7338 14.2671 14.75 13.0545 14.75C11.842 14.75 10.8591 13.7338 10.8591 12.4803C10.8591 12.3234 10.8745 12.1702 10.9038 12.0223L9.92941 12.9037C9.67944 13.1298 9.34789 13.1755 9.06641 13.0687C8.8157 14.037 7.96112 14.75 6.94545 14.75C5.73294 14.75 4.75 13.7338 4.75 12.4803C4.75 11.2268 5.73294 10.2106 6.94545 10.2106C7.14054 10.2106 7.32968 10.2369 7.50975 10.2863L6.74431 8.63168H6.56364C6.30005 8.63168 6.08636 8.41077 6.08636 8.13827C6.08636 7.86576 6.30005 7.64486 6.56364 7.64486H8.28182C8.54541 7.64486 8.75909 7.86576 8.75909 8.13827C8.75909 8.41077 8.54541 8.63168 8.28182 8.63168H7.8024L8.07632 9.22378H11.6217ZM11.457 10.2106H8.53284L9.39552 12.0754L11.457 10.2106ZM5.70455 12.4803C5.70455 11.7718 6.26012 11.1974 6.94545 11.1974C7.63079 11.1974 8.18636 11.7718 8.18636 12.4803C8.18636 13.1888 7.63079 13.7632 6.94545 13.7632C6.26012 13.7632 5.70455 13.1888 5.70455 12.4803ZM11.8136 12.4803C11.8136 11.7718 12.3692 11.1974 13.0545 11.1974C13.7399 11.1974 14.2955 11.7718 14.2955 12.4803C14.2955 13.1888 13.7399 13.7632 13.0545 13.7632C12.3692 13.7632 11.8136 13.1888 11.8136 12.4803Z" fill="#D6D6D6"/>
</svg>
