<svg width="20" height="26" viewBox="0 0 20 26" fill="none" xmlns="http://www.w3.org/2000/svg">
<path d="M10 1.5C14.6756 1.51543 18.4999 5.32767 18.5 10.1357C18.5 11.4064 18.4904 12.7501 17.9199 14.3682C17.349 15.9874 16.2014 17.919 13.8652 20.3047L13.8643 20.3057L10 24.2822L6.13574 20.3057L6.13477 20.3037C3.79877 17.9181 2.65104 15.9874 2.08008 14.3682C1.50959 12.7501 1.5 11.4064 1.5 10.1357C1.50002 5.32762 5.32436 1.51543 10 1.5Z" fill="#8C2B72" stroke="#DD70BB"/>
<path d="M14.1849 8.04574L14.6849 7.17574C14.7485 7.0614 14.7648 6.92668 14.7302 6.80048C14.6956 6.67428 14.6129 6.56667 14.4999 6.50075L14.0649 6.25075C13.9501 6.18556 13.8141 6.16843 13.6867 6.20308C13.5594 6.23774 13.4508 6.32138 13.3849 6.43575L12.6349 7.73574L13.0699 7.98074L13.4999 8.23074C13.5569 8.2638 13.62 8.28525 13.6854 8.29384C13.7508 8.30243 13.8172 8.298 13.8809 8.28081C13.9446 8.26361 14.0042 8.23399 14.0564 8.19365C14.1085 8.1533 14.1522 8.10304 14.1849 8.04574ZM13.6849 14.9607C13.2599 15.2007 13.0699 15.1857 12.7899 15.0207L9.74988 13.2857L11.4999 12.2607L10.9999 10.5557L8.84988 9.31574L9.96488 11.3907L8.66488 12.6657L5.84488 11.0507L5.25488 11.5757L12.4099 15.6657C12.6327 15.795 12.8914 15.8487 13.1473 15.819C13.4032 15.7893 13.6426 15.6776 13.8299 15.5007L13.6849 14.9607ZM14.2449 10.9607L12.9449 10.2157L12.8999 8.75574L11.2149 7.79074C11.1389 7.74686 11.0527 7.72376 10.9649 7.72376C10.8771 7.72376 10.7909 7.74686 10.7149 7.79074L9.90488 8.50074L7.29988 7.00075L6.92988 7.65075L13.8749 11.6207L14.2449 10.9607Z" fill="#D6D6D6"/>
</svg>
