<svg width="20" height="26" viewBox="0 0 20 26" fill="none" xmlns="http://www.w3.org/2000/svg">
<path d="M10 1.5C14.6756 1.51543 18.4999 5.32767 18.5 10.1357C18.5 11.4064 18.4904 12.7501 17.9199 14.3682C17.349 15.9874 16.2014 17.919 13.8652 20.3047L13.8643 20.3057L10 24.2822L6.13574 20.3057L6.13477 20.3037C3.79877 17.9181 2.65104 15.9874 2.08008 14.3682C1.50959 12.7501 1.5 11.4064 1.5 10.1357C1.50002 5.32762 5.32436 1.51543 10 1.5Z" fill="#5A443E" stroke="#A9827C"/>
<path d="M10.6103 6.62591L10 5.77148L9.3897 6.62591C8.54761 7.80482 7.44519 8.5303 6.53691 8.96282C6.08457 9.17822 5.6872 9.31763 5.40627 9.40243C5.26608 9.44476 5.15571 9.47323 5.08299 9.49064C5.04665 9.49933 5.0198 9.50524 5.00341 9.50872L4.98683 9.51215C4.98708 9.51211 4.98676 9.51218 5.12497 10.2493C5.26319 10.9865 5.26347 10.9864 5.26375 10.9864L5.26586 10.986L5.26963 10.9853L5.28044 10.9831C5.28909 10.9814 5.3006 10.9791 5.31484 10.976C5.34331 10.97 5.38274 10.9613 5.4321 10.9494C5.53077 10.9258 5.66942 10.8899 5.83978 10.8384C6.17995 10.7357 6.64977 10.5705 7.18181 10.3171C8.04306 9.90699 9.08545 9.25726 9.99999 8.253C10.9145 9.25726 11.9569 9.90699 12.8182 10.3171C13.3502 10.5705 13.82 10.7357 14.1602 10.8384C14.3306 10.8899 14.4692 10.9258 14.5679 10.9494C14.6172 10.9613 14.6567 10.97 14.6851 10.976C14.6994 10.9791 14.7109 10.9814 14.7195 10.9831L14.7303 10.9853L14.7341 10.986L14.7356 10.9863C14.7359 10.9863 14.7368 10.9865 14.875 10.2493C15.0132 9.51218 15.0135 9.51223 15.0137 9.51228L14.9966 9.50872C14.9802 9.50524 14.9533 9.49933 14.917 9.49064C14.8443 9.47323 14.7339 9.44476 14.5937 9.40244C14.3128 9.31763 13.9154 9.17822 13.4631 8.96282C12.5548 8.5303 11.4524 7.80482 10.6103 6.62591Z" fill="#D6D6D6"/>
<path d="M8.49994 11.7493H6.99994V16.2493H12.9999V11.7493H11.4999V14.7493H8.49994V11.7493Z" fill="#D6D6D6"/>
</svg>
