<svg width="20" height="26" viewBox="0 0 20 26" fill="none" xmlns="http://www.w3.org/2000/svg">
<path d="M10 1.5C14.6756 1.51543 18.4999 5.32767 18.5 10.1357C18.5 11.4064 18.4904 12.7501 17.9199 14.3682C17.349 15.9874 16.2014 17.919 13.8652 20.3047L13.8643 20.3057L10 24.2822L6.13574 20.3057L6.13477 20.3037C3.79877 17.9181 2.65104 15.9874 2.08008 14.3682C1.50959 12.7501 1.5 11.4064 1.5 10.1357C1.50002 5.32762 5.32436 1.51543 10 1.5Z" fill="#8C2B72" stroke="#DD70BB"/>
<path d="M12.1221 6.07975L11.752 8.11536C11.2413 7.8046 10.6416 7.62561 10.0001 7.62561C8.13632 7.62561 6.62509 9.13665 6.62509 11.0006C6.62509 11.6421 6.80409 12.2418 7.11486 12.7525L5.07926 13.1226C4.78164 13.1767 4.66728 13.5428 4.88118 13.7567L7.24401 16.1196C7.45791 16.3334 7.82401 16.2191 7.87813 15.9215L8.24824 13.8859C8.75894 14.1966 9.35863 14.3756 10.0001 14.3756C11.8639 14.3756 13.3751 12.8646 13.3751 11.0006C13.3751 10.3591 13.1961 9.75941 12.8853 9.24872L14.9209 8.87861C15.2185 8.8245 15.3329 8.4584 15.119 8.2445L12.7562 5.88167C12.5423 5.66777 12.1762 5.78213 12.1221 6.07975Z" fill="#D6D6D6"/>
</svg>
