<svg width="20" height="26" viewBox="0 0 20 26" fill="none" xmlns="http://www.w3.org/2000/svg">
<path d="M10 1.5C14.6756 1.51543 18.4999 5.32767 18.5 10.1357C18.5 11.4064 18.4904 12.7501 17.9199 14.3682C17.349 15.9874 16.2014 17.919 13.8652 20.3047L13.8643 20.3057L10 24.2822L6.13574 20.3057L6.13477 20.3037C3.79877 17.9181 2.65104 15.9874 2.08008 14.3682C1.50959 12.7501 1.5 11.4064 1.5 10.1357C1.50002 5.32762 5.32436 1.51543 10 1.5Z" fill="#3E495A" stroke="#8D9FB5"/>
<path d="M7.07793 9.28659C7.32884 9.51513 7.65876 9.64295 8.00192 9.64454C8.1388 9.64454 8.59835 9.61114 8.59835 9.19114C8.59835 8.96682 8.52991 8.84273 7.90903 8.65659C7.00949 8.38455 6.64283 8.01705 6.64283 7.39182C6.64672 7.1332 6.74015 6.88348 6.90792 6.68329C7.07569 6.48311 7.30792 6.34425 7.56681 6.28932V5.75H8.54457V6.22727C8.89466 6.29614 9.21709 6.46181 9.47345 6.70455L9.56633 6.8L9.04323 7.39182L8.95034 7.31545C8.72891 7.1248 8.44383 7.01959 8.14858 7.01955C7.99703 7.01955 7.6597 7.04818 7.6597 7.35364C7.6597 7.53023 7.72814 7.63523 8.37835 7.83091C9.13612 8.06 9.625 8.375 9.625 9.15295C9.62428 9.4506 9.51523 9.73831 9.31733 9.96474C9.11943 10.1912 8.84555 10.3416 8.54457 10.3891V11H7.56681V10.3986C7.17429 10.3324 6.81043 10.1548 6.52061 9.88795L6.4375 9.80682L6.98016 9.215L7.07793 9.28659Z" fill="#D6D6D6"/>
<path fill-rule="evenodd" clip-rule="evenodd" d="M5.5 12.5V7.25C5.08579 7.25 4.75 7.58579 4.75 8V14.375L5.5 14.375C5.5 14.9963 6.00368 15.5 6.625 15.5C7.24632 15.5 7.75 14.9963 7.75 14.375H8.125C8.125 14.9963 8.62868 15.5 9.25 15.5C9.87132 15.5 10.375 14.9963 10.375 14.375L12.25 14.375C12.25 14.9963 12.7537 15.5 13.375 15.5C13.9963 15.5 14.5 14.9963 14.5 14.375H15.25L15.25 12.6875L15.25 12.6788V12.5C15.25 12.0203 14.9497 11.6107 14.5269 11.4489L14.067 9.72432C13.9138 9.14977 13.3935 8.75 12.7988 8.75H11.6875V8.1875C11.6875 7.66973 11.2678 7.25 10.75 7.25H10.5625V12.5H5.5ZM12.7988 9.875C12.8838 9.875 12.9581 9.93211 12.98 10.0142L13.3429 11.375H11.6875V9.875H12.7988Z" fill="#D6D6D6"/>
</svg>
