<svg width="20" height="26" viewBox="0 0 20 26" fill="none" xmlns="http://www.w3.org/2000/svg">
<path d="M10 1.5C14.6756 1.51543 18.4999 5.32767 18.5 10.1357C18.5 11.4064 18.4904 12.7501 17.9199 14.3682C17.349 15.9874 16.2014 17.919 13.8652 20.3047L13.8643 20.3057L10 24.2822L6.13574 20.3057L6.13477 20.3037C3.79877 17.9181 2.65104 15.9874 2.08008 14.3682C1.50959 12.7501 1.5 11.4064 1.5 10.1357C1.50002 5.32762 5.32436 1.51543 10 1.5Z" fill="#5A443E" stroke="#A9827C"/>
<path d="M6.035 16H5V10.2C5 7.59 7.245 6 10 6C12.755 6 15 7.59 15 10.2V16H13.965L13.5 15.59V10.29C13.5 8.43 11.74 7.595 10 7.595C8.26 7.595 6.5 8.43 6.5 10.29V15.59L6.035 16ZM10 9.5C8.895 9.5 8 10.175 8 11.28V14.28L9 13.395V11.295C9 10.535 9.835 10.5 10 10.5C10.165 10.5 11 10.535 11 11.28V13.38L12 14.265V11.265C12 10.175 11.105 9.5 10 9.5Z" fill="#D6D6D6"/>
</svg>
