<svg width="20" height="26" viewBox="0 0 20 26" fill="none" xmlns="http://www.w3.org/2000/svg">
<path d="M10 1.5C14.6756 1.51543 18.4999 5.32767 18.5 10.1357C18.5 11.4064 18.4904 12.7501 17.9199 14.3682C17.349 15.9874 16.2014 17.919 13.8652 20.3047L13.8643 20.3057L10 24.2822L6.13574 20.3057L6.13477 20.3037C3.79877 17.9181 2.65104 15.9874 2.08008 14.3682C1.50959 12.7501 1.5 11.4064 1.5 10.1357C1.50002 5.32762 5.32436 1.51543 10 1.5Z" fill="#5F3068" stroke="#B378BC"/>
<path d="M13.375 5.75V8.87869C13.375 9.27651 13.5368 9.65707 13.7543 9.99019C14.0809 10.4905 14.5 11.3556 14.5001 12.5C14.5002 14.375 14.5 16.25 14.5 16.25H10.75C10.75 16.25 10.7502 14.375 10.7501 12.5C10.75 11.3556 11.1691 10.4906 11.4957 9.99021C11.7132 9.65707 11.875 9.2765 11.875 8.87866V5.75H13.375Z" fill="#D6D6D6"/>
<path d="M9.25 8.75H5.5V10.625C5.5 11.4645 6.05179 12.1752 6.8125 12.4141L6.8125 15.5H6.25C5.83579 15.5 5.5 15.8358 5.5 16.25H9.25C9.25 15.8358 8.91421 15.5 8.5 15.5H7.9375L7.9375 12.4141C8.69821 12.1752 9.25 11.4645 9.25 10.625V8.75Z" fill="#D6D6D6"/>
</svg>
