<svg width="20" height="26" viewBox="0 0 20 26" fill="none" xmlns="http://www.w3.org/2000/svg">
<path d="M10 1.5C14.6756 1.51543 18.4999 5.32767 18.5 10.1357C18.5 11.4064 18.4904 12.7501 17.9199 14.3682C17.349 15.9874 16.2014 17.919 13.8652 20.3047L13.8643 20.3057L10 24.2822L6.13574 20.3057L6.13477 20.3037C3.79877 17.9181 2.65104 15.9874 2.08008 14.3682C1.50959 12.7501 1.5 11.4064 1.5 10.1357C1.50002 5.32762 5.32436 1.51543 10 1.5Z" fill="#195657" stroke="#499D9E"/>
<path d="M15 8.875C15.0007 8.49727 14.9267 8.12312 14.7825 7.77401C14.6382 7.4249 14.4265 7.1077 14.1594 6.8406C13.8923 6.5735 13.5751 6.36176 13.226 6.21751C12.8769 6.07326 12.5027 5.99935 12.125 6H10.81C11.1854 6.34986 11.4847 6.77322 11.6894 7.24374C11.8942 7.71426 11.9999 8.22188 12 8.735V11H11V8.735C11 7.315 10 6 8.545 6H7.75C7.02106 6.00133 6.32235 6.29148 5.80692 6.80692C5.29148 7.32236 5.00132 8.02106 5 8.75C5 9.14 5 13.25 5 13.25C5.00394 13.9781 5.29494 14.6753 5.80981 15.1902C6.32468 15.7051 7.02187 15.9961 7.75 16H8V14.5C7.71344 14.4962 7.43668 14.3951 7.21504 14.2135C6.99339 14.0318 6.84001 13.7802 6.78 13.5C6.7425 13.3387 6.73755 13.1716 6.76544 13.0083C6.79333 12.8451 6.85351 12.6891 6.94244 12.5494C7.03137 12.4097 7.14727 12.2892 7.28336 12.1949C7.41945 12.1005 7.57299 12.0343 7.735 12L9 11.75V16H11V13.5L13 13.765V16H14.75L15 9V8.875ZM7.25 10C7.10166 10 6.95666 9.95602 6.83332 9.87361C6.70999 9.79119 6.61386 9.67406 6.55709 9.53702C6.50032 9.39997 6.48547 9.24917 6.51441 9.10369C6.54335 8.9582 6.61478 8.82456 6.71967 8.71967C6.82456 8.61478 6.9582 8.54335 7.10368 8.51441C7.24917 8.48548 7.39997 8.50033 7.53701 8.55709C7.67406 8.61386 7.79119 8.70999 7.8736 8.83333C7.95601 8.95666 8 9.10167 8 9.25C8 9.44892 7.92098 9.63968 7.78033 9.78033C7.63968 9.92099 7.44891 10 7.25 10Z" fill="#D6D6D6"/>
</svg>
