<svg width="23" height="23" viewBox="0 0 23 23" fill="none" xmlns="http://www.w3.org/2000/svg">
<path d="M18.5 15H4.5C2.6 15 1 13.4 1 11.5C1 9.6 2.6 8 4.5 8H18.5C20.4 8 22 9.6 22 11.5C22 13.4 20.4 15 18.5 15Z" fill="#C6C6C6"/>
<path d="M17.8 13.5C18.9046 13.5 19.8 12.6046 19.8 11.5C19.8 10.3954 18.9046 9.5 17.8 9.5C16.6954 9.5 15.8 10.3954 15.8 11.5C15.8 12.6046 16.6954 13.5 17.8 13.5Z" fill="#282828"/>
<path d="M11.5 13.5C12.6046 13.5 13.5 12.6046 13.5 11.5C13.5 10.3954 12.6046 9.5 11.5 9.5C10.3954 9.5 9.5 10.3954 9.5 11.5C9.5 12.6046 10.3954 13.5 11.5 13.5Z" fill="#282828"/>
<path d="M5.29999 13.5C6.40456 13.5 7.29999 12.6046 7.29999 11.5C7.29999 10.3954 6.40456 9.5 5.29999 9.5C4.19542 9.5 3.29999 10.3954 3.29999 11.5C3.29999 12.6046 4.19542 13.5 5.29999 13.5Z" fill="#282828"/>
</svg>
