<svg width="32" height="34" viewBox="0 0 32 34" fill="none" xmlns="http://www.w3.org/2000/svg">
<path d="M11.542 3.2998C14.0026 0.900345 17.9974 0.900345 20.458 3.2998L28.6602 11.2979C31.1134 13.6905 31.1136 17.5645 28.6602 19.957L16 32.3008L3.33984 19.957C0.886356 17.5645 0.886574 13.6905 3.33984 11.2979L11.542 3.2998Z" fill="#3D4551" stroke="#E1E0E0"/>
<path d="M17 17H15L14 13V9H18V13L17 17ZM18 21C18 19.9 17.1 19 16 19C14.9 19 14 19.9 14 21C14 22.1 14.9 23 16 23C17.1 23 18 22.1 18 21Z" fill="#D5D5D5"/>
</svg>
