<svg width="32" height="34" viewBox="0 0 32 34" fill="none" xmlns="http://www.w3.org/2000/svg">
<path d="M11.542 3.2998C14.0026 0.900345 17.9974 0.900345 20.458 3.2998L28.6602 11.2979C31.1134 13.6905 31.1136 17.5645 28.6602 19.957L16 32.3008L3.33984 19.957C0.886356 17.5645 0.886574 13.6905 3.33984 11.2979L11.542 3.2998Z" fill="#3D4551" stroke="#E1E0E0"/>
<path fill-rule="evenodd" clip-rule="evenodd" d="M11.4174 10.971C11.7788 10.3686 12.4299 10 13.1324 10H16.8676C17.5701 10 18.2212 10.3686 18.5826 10.971L19.8 13H18.2L17.3 11.5H12.8L11.3 14H16.4444L14.5 17.5H13L12.2969 18.5547C12.1114 18.8329 11.7992 19 11.4648 19H10C9.44772 19 9 18.5523 9 18V15.554C9 15.1915 9.09852 14.8358 9.28501 14.525L11.4174 10.971ZM13 16C13 15.4477 12.5523 15 12 15C11.4477 15 11 15.4477 11 16C11 16.5523 11.4477 17 12 17C12.5523 17 13 16.5523 13 16Z" fill="#D5D5D5"/>
<path fill-rule="evenodd" clip-rule="evenodd" d="M17.1259 14.5734C17.5069 13.8876 18.4932 13.8876 18.8742 14.5734L22.1747 20.5143C22.545 21.1808 22.063 22 21.3005 22H14.6996C13.9371 22 13.4551 21.1808 13.8254 20.5143L17.1259 14.5734ZM20.4508 20.5L18 16.0886L15.5493 20.5H20.4508Z" fill="#D5D5D5"/>
</svg>
