<svg width="32" height="34" viewBox="0 0 32 34" fill="none" xmlns="http://www.w3.org/2000/svg">
<path d="M11.542 3.2998C14.0026 0.900345 17.9974 0.900345 20.458 3.2998L28.6602 11.2979C31.1134 13.6905 31.1136 17.5645 28.6602 19.957L16 32.3008L3.33984 19.957C0.886356 17.5645 0.886574 13.6905 3.33984 11.2979L11.542 3.2998Z" fill="#333B47" stroke="#E1E0E0"/>
<path d="M10.079 12.834C10.0908 12.1316 10.4703 11.4868 11.0787 11.1356L14.3136 9.26795C14.922 8.91669 15.6701 8.91039 16.2843 9.25137L19.908 11.263C20.2249 11.4389 20.488 11.6977 20.6693 12.0116L21.8923 14.13C22.1684 14.6082 22.0046 15.2198 21.5263 15.496L20.2577 16.2284C19.9682 16.3956 19.6142 16.407 19.3145 16.2588L18.1782 15.6969L14.7141 17.697L14.6325 18.9619C14.611 19.2956 14.4242 19.5964 14.1346 19.7636L12.866 20.496C12.3877 20.7721 11.7761 20.6083 11.5 20.13L10.277 18.0116C10.0957 17.6977 10.0032 17.3404 10.0093 16.978L10.079 12.834ZM13.5981 17.7639C14.0764 17.4878 14.2402 16.8762 13.9641 16.3979C13.688 15.9196 13.0764 15.7557 12.5981 16.0319C12.1198 16.308 11.9559 16.9196 12.232 17.3979C12.5082 17.8762 13.1198 18.0401 13.5981 17.7639ZM19.1603 13.3979C18.8841 12.9196 18.2725 12.7557 17.7942 13.0319C17.3159 13.308 17.1521 13.9196 17.4282 14.3979C17.7043 14.8762 18.3159 15.0401 18.7942 14.7639C19.2725 14.4878 19.4364 13.8762 19.1603 13.3979ZM15.438 10.3508L11.5409 12.6008L11.4919 15.5159L17.987 11.7659L15.438 10.3508Z" fill="#D5D5D5"/>
<path d="M9 21H10.0858C10.351 21 10.6006 21.1103 10.8012 21.2839C11.1691 21.6022 11.7587 22 12.5 22C13.2413 22 13.8309 21.6022 14.1988 21.2839C14.3994 21.1103 14.649 21 14.9142 21H23V22H14.7071C14.5745 22 14.4485 22.0535 14.3523 22.1447C14.0083 22.4707 13.3551 23 12.5 23C11.6449 23 10.9917 22.4707 10.6477 22.1447C10.5515 22.0535 10.4255 22 10.2929 22H9V21Z" fill="#D5D5D5"/>
</svg>
